G04*
G04 #@! TF.GenerationSoftware,Altium Limited,Altium Designer,20.2.6 (244)*
G04*
G04 Layer_Color=8388736*
%FSLAX24Y24*%
%MOIN*%
G70*
G04*
G04 #@! TF.SameCoordinates,6B0B31F8-34BC-4807-AF79-D9433D138100*
G04*
G04*
G04 #@! TF.FilePolarity,Positive*
G04*
G01*
G75*
%ADD11C,0.0079*%
%ADD13C,0.0059*%
%ADD20C,0.0039*%
%ADD21C,0.0050*%
%ADD155R,0.1098X0.0238*%
D11*
X10949Y31258D02*
X12131D01*
X10949Y32282D02*
X12131D01*
Y31258D02*
Y32282D01*
X10949Y31258D02*
Y32282D01*
X11540Y31620D02*
Y31920D01*
X11390Y31770D02*
X11690D01*
X30150Y24200D02*
Y26300D01*
X28650D02*
X30150D01*
X28650Y24200D02*
Y26300D01*
Y24200D02*
X30150D01*
X29400Y25100D02*
Y25400D01*
X29250Y25250D02*
X29550D01*
X9103Y28722D02*
Y29234D01*
X10245Y28722D02*
Y29234D01*
X9103D02*
X10245D01*
X9103Y28722D02*
X10245D01*
D13*
X25310Y25414D02*
X25610D01*
X25460Y25264D02*
Y25564D01*
X24948Y24794D02*
X25972D01*
X24948D02*
Y26014D01*
X25972D01*
Y24794D02*
Y26014D01*
X26790Y25394D02*
X27090D01*
X26940Y25244D02*
Y25544D01*
X26428Y24774D02*
X27452D01*
X26428D02*
Y25994D01*
X27452D01*
Y24774D02*
Y25994D01*
D20*
X4010Y10080D02*
X4210D01*
X4110Y9980D02*
Y10180D01*
X3953Y9765D02*
X4268D01*
X3953D02*
Y10395D01*
X4268D01*
Y9765D02*
Y10395D01*
X2620Y6340D02*
Y6540D01*
X2520Y6440D02*
X2720D01*
X2305Y6283D02*
Y6597D01*
X2935D01*
Y6283D02*
Y6597D01*
X2305Y6283D02*
X2935D01*
X1110Y6340D02*
Y6540D01*
X1010Y6440D02*
X1210D01*
X795Y6283D02*
Y6597D01*
X1425D01*
Y6283D02*
Y6597D01*
X795Y6283D02*
X1425D01*
X2360Y10223D02*
X2990D01*
Y10537D01*
X2360D02*
X2990D01*
X2360Y10223D02*
Y10537D01*
X2575Y10380D02*
X2775D01*
X2675Y10280D02*
Y10480D01*
X2291Y8273D02*
X2921D01*
Y8587D01*
X2291D02*
X2921D01*
X2291Y8273D02*
Y8587D01*
X2506Y8430D02*
X2706D01*
X2606Y8330D02*
Y8530D01*
X19385Y19403D02*
X20015D01*
Y19717D01*
X19385D02*
X20015D01*
X19385Y19403D02*
Y19717D01*
X19600Y19560D02*
X19800D01*
X19700Y19460D02*
Y19660D01*
X19395Y18353D02*
X20025D01*
Y18667D01*
X19395D02*
X20025D01*
X19395Y18353D02*
Y18667D01*
X19610Y18510D02*
X19810D01*
X19710Y18410D02*
Y18610D01*
X12810Y31720D02*
X13010D01*
X12910Y31620D02*
Y31820D01*
X12752Y32035D02*
X13067D01*
Y31405D02*
Y32035D01*
X12752Y31405D02*
X13067D01*
X12752D02*
Y32035D01*
X13460Y32490D02*
X14100D01*
Y31030D02*
Y32490D01*
X13460Y31030D02*
X14100D01*
X13460D02*
Y32490D01*
X851Y10223D02*
X1481D01*
Y10537D01*
X851D02*
X1481D01*
X851Y10223D02*
Y10537D01*
X1066Y10380D02*
X1266D01*
X1166Y10280D02*
Y10480D01*
X785Y8273D02*
X1415D01*
Y8587D01*
X785D02*
X1415D01*
X785Y8273D02*
Y8587D01*
X1000Y8430D02*
X1200D01*
X1100Y8330D02*
Y8530D01*
X10868Y28710D02*
Y29340D01*
X10553D02*
X10868D01*
X10553Y28710D02*
Y29340D01*
Y28710D02*
X10868D01*
X10710Y28925D02*
Y29125D01*
X10610Y29025D02*
X10810D01*
X30521Y24095D02*
X31619D01*
X30521Y25867D02*
X31619D01*
Y24095D02*
Y25867D01*
X30521Y24095D02*
Y25867D01*
D21*
X33697Y26420D02*
X35043D01*
Y24553D02*
Y26420D01*
X33697Y24553D02*
X35043D01*
X33697D02*
Y26420D01*
D155*
X31070Y24214D02*
D03*
M02*
