G04*
G04 #@! TF.GenerationSoftware,Altium Limited,Altium Designer,20.2.6 (244)*
G04*
G04 Layer_Color=8388736*
%FSLAX24Y24*%
%MOIN*%
G70*
G04*
G04 #@! TF.SameCoordinates,6B0B31F8-34BC-4807-AF79-D9433D138100*
G04*
G04*
G04 #@! TF.FilePolarity,Negative*
G04*
G01*
G75*
%ADD52R,0.0410X0.1590*%
%ADD53R,0.4230X0.3270*%
%ADD61R,0.0867X0.0631*%
%ADD62R,0.1261X0.0671*%
%ADD63O,0.1261X0.0671*%
%ADD64R,0.0472X0.0512*%
%ADD65R,0.0630X0.0580*%
%ADD66R,0.0749X0.0749*%
%ADD67C,0.0474*%
%ADD68R,0.0592X0.0671*%
%ADD69R,0.0512X0.0472*%
%ADD70R,0.0552X0.0474*%
%ADD71R,0.0749X0.0749*%
%ADD72R,0.2442X0.4017*%
%ADD73R,0.0671X0.0592*%
%ADD74R,0.0419X0.0651*%
%ADD75R,0.0651X0.0419*%
%ADD76R,0.1458X0.1458*%
%ADD77R,0.0513X0.0356*%
%ADD78R,0.1655X0.1104*%
%ADD79R,0.0671X0.0671*%
%ADD80R,0.0671X0.0671*%
G04:AMPARAMS|DCode=81|XSize=69mil|YSize=18.6mil|CornerRadius=6.8mil|HoleSize=0mil|Usage=FLASHONLY|Rotation=0.000|XOffset=0mil|YOffset=0mil|HoleType=Round|Shape=RoundedRectangle|*
%AMROUNDEDRECTD81*
21,1,0.0690,0.0051,0,0,0.0*
21,1,0.0555,0.0186,0,0,0.0*
1,1,0.0135,0.0277,-0.0026*
1,1,0.0135,-0.0277,-0.0026*
1,1,0.0135,-0.0277,0.0026*
1,1,0.0135,0.0277,0.0026*
%
%ADD81ROUNDEDRECTD81*%
G04:AMPARAMS|DCode=82|XSize=69mil|YSize=18.6mil|CornerRadius=6.8mil|HoleSize=0mil|Usage=FLASHONLY|Rotation=90.000|XOffset=0mil|YOffset=0mil|HoleType=Round|Shape=RoundedRectangle|*
%AMROUNDEDRECTD82*
21,1,0.0690,0.0051,0,0,90.0*
21,1,0.0555,0.0186,0,0,90.0*
1,1,0.0135,0.0026,0.0277*
1,1,0.0135,0.0026,-0.0277*
1,1,0.0135,-0.0026,-0.0277*
1,1,0.0135,-0.0026,0.0277*
%
%ADD82ROUNDEDRECTD82*%
%ADD83R,0.0749X0.1064*%
%ADD84R,0.0513X0.0671*%
%ADD85R,0.1300X0.1025*%
%ADD86R,0.0356X0.0710*%
%ADD87R,0.0631X0.0552*%
%ADD88R,0.1182X0.1655*%
%ADD89R,0.0694X0.0190*%
%ADD90R,0.0190X0.0694*%
%ADD91R,0.0631X0.0552*%
%ADD92R,0.0552X0.0631*%
%ADD93R,0.1143X0.0710*%
%ADD94C,0.0749*%
%ADD95O,0.1379X0.0749*%
%ADD96O,0.0749X0.1222*%
%ADD97O,0.0749X0.1379*%
%ADD98C,0.1025*%
%ADD99C,0.1180*%
%ADD100R,0.0984X0.0984*%
%ADD101C,0.0984*%
%ADD102C,0.0787*%
%ADD103C,0.2442*%
%ADD104O,0.1580X0.2480*%
%ADD105R,0.1580X0.2480*%
%ADD106C,0.0560*%
%ADD107O,0.0748X0.0906*%
%ADD108C,0.0906*%
%ADD109O,0.0906X0.1299*%
%ADD110R,0.0880X0.0680*%
%ADD111O,0.0880X0.0680*%
%ADD112C,0.0671*%
D52*
X29490Y20292D02*
D03*
X30160D02*
D03*
X30830D02*
D03*
X31500D02*
D03*
X32170D02*
D03*
D53*
X30830Y24407D02*
D03*
D61*
X3200Y6530D02*
D03*
X680D02*
D03*
X670Y8430D02*
D03*
X3190D02*
D03*
Y10400D02*
D03*
X670D02*
D03*
X4670Y10380D02*
D03*
X7190D02*
D03*
D62*
X37276Y13240D02*
D03*
X10276Y13120D02*
D03*
X17526Y13140D02*
D03*
X24216Y13160D02*
D03*
X30625Y13191D02*
D03*
D63*
X33764Y14240D02*
D03*
Y13240D02*
D03*
X37276Y14240D02*
D03*
X10276Y14120D02*
D03*
X6764Y13120D02*
D03*
Y14120D02*
D03*
X17526Y14140D02*
D03*
X14014Y13140D02*
D03*
Y14140D02*
D03*
X24216Y14160D02*
D03*
X20704Y13160D02*
D03*
Y14160D02*
D03*
X30625Y14191D02*
D03*
X27113Y13191D02*
D03*
Y14191D02*
D03*
D64*
X27254Y1299D02*
D03*
Y630D02*
D03*
X28058Y1299D02*
D03*
Y630D02*
D03*
X28863Y630D02*
D03*
Y1299D02*
D03*
X29667D02*
D03*
Y630D02*
D03*
X26450D02*
D03*
Y1299D02*
D03*
X38850Y4755D02*
D03*
Y5425D02*
D03*
X37339Y4765D02*
D03*
Y5435D02*
D03*
X40360Y4765D02*
D03*
Y5435D02*
D03*
X38094D02*
D03*
Y4765D02*
D03*
X36584Y5435D02*
D03*
Y4765D02*
D03*
X39605Y5435D02*
D03*
Y4765D02*
D03*
X39661Y15720D02*
D03*
Y16389D02*
D03*
X40324Y15720D02*
D03*
Y16389D02*
D03*
X22410Y25235D02*
D03*
Y24565D02*
D03*
X24010Y30449D02*
D03*
Y29780D02*
D03*
X24870Y30449D02*
D03*
Y29780D02*
D03*
X26420Y24785D02*
D03*
Y24115D02*
D03*
X40590Y24105D02*
D03*
Y23435D02*
D03*
X42380Y6705D02*
D03*
Y7375D02*
D03*
X42530Y11360D02*
D03*
Y10691D02*
D03*
X43617Y16389D02*
D03*
Y15720D02*
D03*
X14990Y23845D02*
D03*
Y24515D02*
D03*
X23810Y26821D02*
D03*
Y27490D02*
D03*
X24760Y24795D02*
D03*
Y24125D02*
D03*
X25560D02*
D03*
Y24795D02*
D03*
X37290Y23430D02*
D03*
Y24099D02*
D03*
X37990Y23435D02*
D03*
Y24105D02*
D03*
X38639D02*
D03*
Y23435D02*
D03*
X39287D02*
D03*
Y24105D02*
D03*
X39936Y23435D02*
D03*
Y24105D02*
D03*
X41020Y15725D02*
D03*
Y16395D02*
D03*
X42520Y23435D02*
D03*
Y24105D02*
D03*
X41880Y23435D02*
D03*
Y24105D02*
D03*
X41230D02*
D03*
Y23435D02*
D03*
X44451Y24110D02*
D03*
Y23441D02*
D03*
X45100D02*
D03*
Y24110D02*
D03*
X43166Y24105D02*
D03*
Y23435D02*
D03*
X43814D02*
D03*
Y24105D02*
D03*
X45773Y23435D02*
D03*
Y24105D02*
D03*
X46421D02*
D03*
Y23435D02*
D03*
X47070D02*
D03*
Y24105D02*
D03*
X22120Y20585D02*
D03*
Y21255D02*
D03*
X23150Y29780D02*
D03*
Y30449D02*
D03*
X44267Y15720D02*
D03*
Y16389D02*
D03*
X44917Y15720D02*
D03*
Y16389D02*
D03*
D65*
X26420Y2140D02*
D03*
Y3040D02*
D03*
X27240Y2140D02*
D03*
Y3040D02*
D03*
X28060Y2140D02*
D03*
Y3040D02*
D03*
X28880D02*
D03*
Y2140D02*
D03*
X29700Y3040D02*
D03*
Y2140D02*
D03*
D66*
X45664Y27505D02*
D03*
Y28805D02*
D03*
D67*
X39410Y17320D02*
D03*
X42380Y6030D02*
D03*
D68*
X22754Y22180D02*
D03*
X22006D02*
D03*
X22784Y31630D02*
D03*
X22036D02*
D03*
X23926D02*
D03*
X24674D02*
D03*
X37566Y18070D02*
D03*
X38314D02*
D03*
X5434Y19060D02*
D03*
X4686D02*
D03*
X32238Y18750D02*
D03*
X31490D02*
D03*
X38874Y16340D02*
D03*
X38126D02*
D03*
X40746Y10670D02*
D03*
X41494D02*
D03*
D69*
X37835Y15150D02*
D03*
X37165D02*
D03*
X31125Y15170D02*
D03*
X30455D02*
D03*
X28270Y15150D02*
D03*
X27600D02*
D03*
X29630D02*
D03*
X28960D02*
D03*
X21195Y22770D02*
D03*
X20525D02*
D03*
X18235Y17910D02*
D03*
X17565D02*
D03*
X37685Y19538D02*
D03*
X38355D02*
D03*
X37685Y20216D02*
D03*
X38355D02*
D03*
X46259Y19071D02*
D03*
X46928D02*
D03*
X20525Y22090D02*
D03*
X21195D02*
D03*
X14235Y18750D02*
D03*
X13565D02*
D03*
X19655Y22780D02*
D03*
X18985D02*
D03*
X18170Y19430D02*
D03*
X18839D02*
D03*
X2815Y18550D02*
D03*
X3485D02*
D03*
X2815Y19200D02*
D03*
X3485D02*
D03*
X5795Y15180D02*
D03*
X5125D02*
D03*
X6795D02*
D03*
X7465D02*
D03*
X8355D02*
D03*
X9025D02*
D03*
X9915D02*
D03*
X10585D02*
D03*
X14007Y15110D02*
D03*
X14676D02*
D03*
X13320D02*
D03*
X12651D02*
D03*
X15364D02*
D03*
X16033D02*
D03*
X16720D02*
D03*
X17389D02*
D03*
X20015Y15140D02*
D03*
X19345D02*
D03*
X21180D02*
D03*
X21850D02*
D03*
X22540D02*
D03*
X23210D02*
D03*
X24005D02*
D03*
X24675D02*
D03*
X26405Y15160D02*
D03*
X25735D02*
D03*
X33445D02*
D03*
X32775D02*
D03*
X34240Y15170D02*
D03*
X34910D02*
D03*
X35620D02*
D03*
X36290D02*
D03*
X38355Y18860D02*
D03*
X37685D02*
D03*
X38355Y20894D02*
D03*
X37685D02*
D03*
X38355Y22250D02*
D03*
X37685D02*
D03*
X38355Y21572D02*
D03*
X37685D02*
D03*
X42615Y17250D02*
D03*
X41945D02*
D03*
X46928Y16238D02*
D03*
X46259D02*
D03*
X46928Y16946D02*
D03*
X46259D02*
D03*
Y17654D02*
D03*
X46928D02*
D03*
Y18362D02*
D03*
X46259D02*
D03*
X46928Y19779D02*
D03*
X46259D02*
D03*
Y20487D02*
D03*
X46928D02*
D03*
X46259Y21195D02*
D03*
X46928D02*
D03*
X46259Y22611D02*
D03*
X46928D02*
D03*
X46259Y15530D02*
D03*
X46928D02*
D03*
X46259Y21903D02*
D03*
X46928D02*
D03*
D70*
X25680Y12990D02*
D03*
Y14290D02*
D03*
X4850Y12840D02*
D03*
Y14140D02*
D03*
X12750D02*
D03*
Y12840D02*
D03*
X19290Y14230D02*
D03*
Y12930D02*
D03*
X32240Y14330D02*
D03*
Y13030D02*
D03*
D71*
X18759Y27020D02*
D03*
X17460D02*
D03*
X18759Y28050D02*
D03*
X17460D02*
D03*
D72*
X15880Y31190D02*
D03*
X20053Y31151D02*
D03*
D73*
X27330Y27146D02*
D03*
Y27894D02*
D03*
X36160Y19350D02*
D03*
Y18602D02*
D03*
X43260Y7464D02*
D03*
Y6716D02*
D03*
X43420Y10606D02*
D03*
Y11354D02*
D03*
X33530Y20554D02*
D03*
Y19806D02*
D03*
X28250Y27884D02*
D03*
Y27136D02*
D03*
D74*
X9410Y20057D02*
D03*
X8910D02*
D03*
X8410D02*
D03*
X7910D02*
D03*
X7410D02*
D03*
X6910D02*
D03*
X6410D02*
D03*
X5910D02*
D03*
X5410D02*
D03*
X4910D02*
D03*
X4410D02*
D03*
X3410D02*
D03*
X2910D02*
D03*
X9410Y27010D02*
D03*
X8910D02*
D03*
X8410D02*
D03*
X7910D02*
D03*
X7410D02*
D03*
X6910D02*
D03*
X6410D02*
D03*
X5910D02*
D03*
X5410D02*
D03*
X4910D02*
D03*
X4410D02*
D03*
X3910D02*
D03*
X3410D02*
D03*
X2910D02*
D03*
X3910Y20057D02*
D03*
D75*
X9934Y23784D02*
D03*
Y24284D02*
D03*
Y24784D02*
D03*
Y25284D02*
D03*
Y25784D02*
D03*
Y23284D02*
D03*
Y22784D02*
D03*
Y22284D02*
D03*
Y21784D02*
D03*
Y21284D02*
D03*
D76*
X5918Y22959D02*
D03*
D77*
X7176Y16366D02*
D03*
X8200Y16740D02*
D03*
Y15992D02*
D03*
X8758Y16370D02*
D03*
X9782Y16744D02*
D03*
Y15996D02*
D03*
X12588Y16270D02*
D03*
X13612Y16644D02*
D03*
Y15896D02*
D03*
X14238Y16280D02*
D03*
X15262Y16654D02*
D03*
Y15906D02*
D03*
X20966Y16296D02*
D03*
X21990Y16670D02*
D03*
Y15922D02*
D03*
X22596Y16296D02*
D03*
X23620Y16670D02*
D03*
Y15922D02*
D03*
X27676Y16306D02*
D03*
X28700Y16680D02*
D03*
Y15932D02*
D03*
X29308Y16310D02*
D03*
X30332Y16684D02*
D03*
Y15936D02*
D03*
X34006Y16346D02*
D03*
X35030Y16720D02*
D03*
Y15972D02*
D03*
X35630Y16350D02*
D03*
X36654Y16724D02*
D03*
Y15976D02*
D03*
D78*
X9681Y30790D02*
D03*
X3303D02*
D03*
D79*
X13670Y30740D02*
D03*
X11230D02*
D03*
X800Y29850D02*
D03*
Y17210D02*
D03*
Y14080D02*
D03*
D80*
X11230Y33180D02*
D03*
X13670D02*
D03*
D81*
X17874Y20027D02*
D03*
Y20224D02*
D03*
Y20421D02*
D03*
Y20618D02*
D03*
Y20815D02*
D03*
Y21012D02*
D03*
Y21208D02*
D03*
Y21405D02*
D03*
Y21602D02*
D03*
Y21799D02*
D03*
Y21996D02*
D03*
Y22193D02*
D03*
X14586D02*
D03*
Y21996D02*
D03*
Y21799D02*
D03*
Y21602D02*
D03*
Y21405D02*
D03*
Y21208D02*
D03*
Y21012D02*
D03*
Y20815D02*
D03*
Y20618D02*
D03*
Y20421D02*
D03*
Y20224D02*
D03*
Y20027D02*
D03*
D82*
X17313Y22754D02*
D03*
X17116D02*
D03*
X16919D02*
D03*
X16722D02*
D03*
X16525D02*
D03*
X16328D02*
D03*
X16132D02*
D03*
X15935D02*
D03*
X15738D02*
D03*
X15541D02*
D03*
X15344D02*
D03*
X15147D02*
D03*
Y19466D02*
D03*
X15344D02*
D03*
X15541D02*
D03*
X15738D02*
D03*
X15935D02*
D03*
X16132D02*
D03*
X16328D02*
D03*
X16525D02*
D03*
X16722D02*
D03*
X16919D02*
D03*
X17116D02*
D03*
X17313D02*
D03*
D83*
X22800Y26360D02*
D03*
Y27960D02*
D03*
D84*
X23874Y32550D02*
D03*
X24740D02*
D03*
X22840Y32540D02*
D03*
X21974D02*
D03*
X40667Y11610D02*
D03*
X41533D02*
D03*
D85*
X25340Y27180D02*
D03*
D86*
X24590Y26117D02*
D03*
X25090D02*
D03*
X25590D02*
D03*
X26090D02*
D03*
X24590Y28243D02*
D03*
X26090D02*
D03*
X25590D02*
D03*
X25090D02*
D03*
D87*
X26769Y23032D02*
D03*
Y22284D02*
D03*
D88*
X34890Y21620D02*
D03*
Y19140D02*
D03*
X27870Y20330D02*
D03*
Y22810D02*
D03*
D89*
X43916Y21583D02*
D03*
Y21386D02*
D03*
Y21189D02*
D03*
Y20992D02*
D03*
Y20795D02*
D03*
Y20598D02*
D03*
Y20402D02*
D03*
Y20205D02*
D03*
Y20008D02*
D03*
Y19811D02*
D03*
Y19614D02*
D03*
Y19417D02*
D03*
X40624D02*
D03*
Y19614D02*
D03*
Y19811D02*
D03*
Y20008D02*
D03*
Y20205D02*
D03*
Y20402D02*
D03*
Y20598D02*
D03*
Y20795D02*
D03*
Y20992D02*
D03*
Y21189D02*
D03*
Y21386D02*
D03*
Y21583D02*
D03*
D90*
X43353Y18854D02*
D03*
X43156D02*
D03*
X42959D02*
D03*
X42762D02*
D03*
X42565D02*
D03*
X42368D02*
D03*
X42172D02*
D03*
X41975D02*
D03*
X41778D02*
D03*
X41581D02*
D03*
X41384D02*
D03*
X41187D02*
D03*
Y22146D02*
D03*
X41384D02*
D03*
X41581D02*
D03*
X41778D02*
D03*
X41975D02*
D03*
X42172D02*
D03*
X42368D02*
D03*
X42565D02*
D03*
X42762D02*
D03*
X42959D02*
D03*
X43156D02*
D03*
X43353D02*
D03*
D91*
X41874Y16429D02*
D03*
Y15760D02*
D03*
X42740D02*
D03*
Y16429D02*
D03*
D92*
X21215Y21353D02*
D03*
X20545D02*
D03*
Y20487D02*
D03*
X21215D02*
D03*
D93*
X21310Y26859D02*
D03*
Y27961D02*
D03*
X21300Y25731D02*
D03*
Y24629D02*
D03*
D94*
X34768Y32516D02*
D03*
D95*
X34750Y31200D02*
D03*
D96*
X32893Y29528D02*
D03*
D97*
X36643D02*
D03*
X36693Y31328D02*
D03*
X32943D02*
D03*
D98*
X34768Y28717D02*
D03*
D99*
X37717Y2100D02*
D03*
X35717D02*
D03*
X40060D02*
D03*
X42060D02*
D03*
X31373D02*
D03*
X33373D02*
D03*
X18595Y2090D02*
D03*
X20595D02*
D03*
X5560D02*
D03*
X7560D02*
D03*
X11905D02*
D03*
X9905D02*
D03*
X16250D02*
D03*
X14250D02*
D03*
X22940D02*
D03*
X24940D02*
D03*
D100*
X19610Y4860D02*
D03*
X9110D02*
D03*
X14360D02*
D03*
X24860D02*
D03*
X30110D02*
D03*
D101*
X19610Y7860D02*
D03*
X9110D02*
D03*
X14360D02*
D03*
X24860D02*
D03*
X30110D02*
D03*
D102*
X19610Y11860D02*
D03*
X22610Y5860D02*
D03*
Y11860D02*
D03*
X12110Y5860D02*
D03*
Y11860D02*
D03*
X9110D02*
D03*
X17360D02*
D03*
Y5860D02*
D03*
X14360Y11860D02*
D03*
X27860D02*
D03*
Y5860D02*
D03*
X24860Y11860D02*
D03*
X30110D02*
D03*
X33110Y5860D02*
D03*
Y11860D02*
D03*
D103*
X46460Y1180D02*
D03*
X1184D02*
D03*
X46471Y32690D02*
D03*
X1184Y32676D02*
D03*
X46460Y1180D02*
D03*
X1184D02*
D03*
D104*
X26850Y30050D02*
D03*
D105*
X29850D02*
D03*
D106*
X21150Y19530D02*
D03*
Y18530D02*
D03*
D107*
X43232Y27140D02*
D03*
X42232D02*
D03*
X41232D02*
D03*
X40232D02*
D03*
X39732Y26140D02*
D03*
X40732D02*
D03*
X42732D02*
D03*
X41732D02*
D03*
D108*
X44088Y31569D02*
D03*
X43088D02*
D03*
X39872D02*
D03*
X38872D02*
D03*
D109*
X38431Y28439D02*
D03*
X44529D02*
D03*
D110*
X44340Y6650D02*
D03*
D111*
Y7650D02*
D03*
Y9650D02*
D03*
Y11650D02*
D03*
D112*
X800Y27850D02*
D03*
Y28850D02*
D03*
Y19210D02*
D03*
Y18210D02*
D03*
Y16080D02*
D03*
Y15080D02*
D03*
M02*
