G04*
G04 #@! TF.GenerationSoftware,Altium Limited,Altium Designer,20.2.6 (244)*
G04*
G04 Layer_Color=32896*
%FSLAX24Y24*%
%MOIN*%
G70*
G04*
G04 #@! TF.SameCoordinates,6B0B31F8-34BC-4807-AF79-D9433D138100*
G04*
G04*
G04 #@! TF.FilePolarity,Positive*
G04*
G01*
G75*
%ADD11C,0.0079*%
%ADD12C,0.0098*%
%ADD13C,0.0059*%
%ADD15C,0.0100*%
%ADD20C,0.0039*%
%ADD21C,0.0050*%
%ADD23R,0.0690X0.0180*%
%ADD153R,0.0398X0.0394*%
D11*
X12131Y31652D02*
Y32046D01*
X11816D02*
X12131D01*
X10949Y31652D02*
Y32046D01*
X11264D01*
X28500Y24195D02*
Y26295D01*
X30010D02*
X30310D01*
X28500D02*
X28790D01*
X28500Y24195D02*
X28760D01*
X30310Y24205D02*
Y26295D01*
X30040Y24205D02*
X30310D01*
X9103Y29234D02*
X9405D01*
X9103Y29107D02*
Y29234D01*
X10245Y29107D02*
Y29234D01*
X9943D02*
X10245D01*
X9569Y28722D02*
X9779D01*
X31621Y24095D02*
Y25867D01*
X30519Y24095D02*
Y25867D01*
X31513Y24095D02*
X31621D01*
X31513Y25867D02*
X31621D01*
X30519Y24095D02*
X30627D01*
X30519Y25867D02*
X30627D01*
X26114Y25842D02*
Y26397D01*
X24806Y25842D02*
Y26397D01*
X26114D01*
X24806Y24421D02*
X26114D01*
X24806D02*
Y24976D01*
X26114Y24421D02*
Y24976D01*
X27594Y25822D02*
Y26377D01*
X26286Y25822D02*
Y26377D01*
X27594D01*
X26286Y24401D02*
X27594D01*
X26286D02*
Y24956D01*
X27594Y24401D02*
Y24956D01*
D12*
X12239Y31170D02*
G03*
X12239Y31170I-49J0D01*
G01*
X31119Y23800D02*
G03*
X31119Y23800I-49J0D01*
G01*
D13*
X3791Y10753D02*
X4429D01*
X3791Y9407D02*
X4429D01*
X3791D02*
Y9765D01*
X4429Y9407D02*
Y9765D01*
Y10395D02*
Y10753D01*
X3791Y10395D02*
Y10753D01*
X3293Y6121D02*
Y6759D01*
X1947Y6121D02*
Y6759D01*
X3293D01*
X1947Y6121D02*
X3293D01*
X1783D02*
Y6759D01*
X437Y6121D02*
Y6759D01*
X795D01*
X437Y6121D02*
X795D01*
X1425D02*
X1783D01*
X1425Y6759D02*
X1783D01*
X2001Y10061D02*
X3348D01*
X2001Y10699D02*
X3348D01*
X2001Y10061D02*
Y10699D01*
X3348Y10061D02*
Y10699D01*
X1932Y8111D02*
X3279D01*
X1932Y8749D02*
X3279D01*
X1932Y8111D02*
Y8749D01*
X3279Y8111D02*
Y8749D01*
X20015Y19879D02*
X20373D01*
X20015Y19241D02*
X20373D01*
X19027D02*
X19385D01*
X19027Y19879D02*
X19385D01*
X19027Y19241D02*
Y19879D01*
X20373Y19241D02*
Y19879D01*
X20025Y18829D02*
X20383D01*
X20025Y18191D02*
X20383D01*
X19037D02*
X19395D01*
X19037Y18829D02*
X19395D01*
X19037Y18191D02*
Y18829D01*
X20383Y18191D02*
Y18829D01*
X12591Y31047D02*
X13229D01*
X12591Y32393D02*
X13229D01*
Y31047D02*
Y32393D01*
X12591Y31047D02*
Y32393D01*
X1480Y10699D02*
X1839D01*
X1480Y10061D02*
X1839D01*
X492D02*
X850D01*
X492Y10699D02*
X850D01*
X492Y10061D02*
Y10699D01*
X1839Y10061D02*
Y10699D01*
X1415Y8749D02*
X1773D01*
X1415Y8111D02*
X1773D01*
X427D02*
X785D01*
X427Y8749D02*
X785D01*
X427Y8111D02*
Y8749D01*
X1773Y8111D02*
Y8749D01*
X10391Y29340D02*
Y29698D01*
X11029Y29340D02*
Y29698D01*
Y28351D02*
Y28710D01*
X10391Y28351D02*
Y28710D01*
Y28351D02*
X11029D01*
X10391Y29698D02*
X11029D01*
D15*
X31860Y23919D02*
X32710D01*
X31860Y25269D02*
Y25939D01*
X32730Y23919D02*
Y25939D01*
X31860D02*
X32730D01*
X31860Y23919D02*
Y25269D01*
X3075Y9590D02*
Y9890D01*
X2925D01*
X2875Y9840D01*
Y9740D01*
X2925Y9690D01*
X3075D01*
X2975D02*
X2875Y9590D01*
X2775D02*
X2675D01*
X2725D01*
Y9890D01*
X2775Y9840D01*
X2525D02*
X2475Y9890D01*
X2375D01*
X2325Y9840D01*
Y9640D01*
X2375Y9590D01*
X2475D01*
X2525Y9640D01*
Y9840D01*
X2025Y9890D02*
X2225D01*
Y9740D01*
X2125Y9790D01*
X2075D01*
X2025Y9740D01*
Y9640D01*
X2075Y9590D01*
X2175D01*
X2225Y9640D01*
X3035Y7630D02*
Y7930D01*
X2885D01*
X2835Y7880D01*
Y7780D01*
X2885Y7730D01*
X3035D01*
X2935D02*
X2835Y7630D01*
X2735D02*
X2635D01*
X2685D01*
Y7930D01*
X2735Y7880D01*
X2485D02*
X2435Y7930D01*
X2335D01*
X2285Y7880D01*
Y7680D01*
X2335Y7630D01*
X2435D01*
X2485Y7680D01*
Y7880D01*
X2035Y7630D02*
Y7930D01*
X2185Y7780D01*
X1985D01*
X2885Y5690D02*
Y5990D01*
X2735D01*
X2685Y5940D01*
Y5840D01*
X2735Y5790D01*
X2885D01*
X2785D02*
X2685Y5690D01*
X2585D02*
X2485D01*
X2535D01*
Y5990D01*
X2585Y5940D01*
X2335D02*
X2285Y5990D01*
X2185D01*
X2135Y5940D01*
Y5740D01*
X2185Y5690D01*
X2285D01*
X2335Y5740D01*
Y5940D01*
X2035Y5690D02*
X1935D01*
X1985D01*
Y5990D01*
X2035Y5940D01*
X13230Y30865D02*
X12930D01*
Y30715D01*
X12980Y30665D01*
X13080D01*
X13130Y30715D01*
Y30865D01*
Y30765D02*
X13230Y30665D01*
Y30565D02*
Y30465D01*
Y30515D01*
X12930D01*
X12980Y30565D01*
Y30315D02*
X12930Y30265D01*
Y30165D01*
X12980Y30115D01*
X13180D01*
X13230Y30165D01*
Y30265D01*
X13180Y30315D01*
X12980D01*
Y30015D02*
X12930Y29965D01*
Y29865D01*
X12980Y29815D01*
X13180D01*
X13230Y29865D01*
Y29965D01*
X13180Y30015D01*
X12980D01*
X12180Y30625D02*
X11980D01*
X11930Y30675D01*
Y30775D01*
X11980Y30825D01*
X12180D01*
X12230Y30775D01*
Y30675D01*
X12130Y30725D02*
X12230Y30625D01*
Y30675D02*
X12180Y30625D01*
X12230Y30525D02*
Y30425D01*
Y30475D01*
X11930D01*
X11980Y30525D01*
Y30275D02*
X11930Y30225D01*
Y30125D01*
X11980Y30075D01*
X12180D01*
X12230Y30125D01*
Y30225D01*
X12180Y30275D01*
X11980D01*
Y29975D02*
X11930Y29925D01*
Y29825D01*
X11980Y29775D01*
X12180D01*
X12230Y29825D01*
Y29925D01*
X12180Y29975D01*
X11980D01*
X34900Y24190D02*
X35100D01*
Y24040D01*
X35000D01*
X35100D01*
Y23890D01*
X34800D02*
X34700D01*
X34750D01*
Y24190D01*
X34800Y24140D01*
X9860Y28115D02*
X10160D01*
Y27965D01*
X10110Y27915D01*
X9910D01*
X9860Y27965D01*
Y28115D01*
X10160Y27815D02*
Y27715D01*
Y27765D01*
X9860D01*
X9910Y27815D01*
Y27565D02*
X9860Y27515D01*
Y27415D01*
X9910Y27365D01*
X10110D01*
X10160Y27415D01*
Y27515D01*
X10110Y27565D01*
X9910D01*
X10160Y27265D02*
Y27165D01*
Y27215D01*
X9860D01*
X9910Y27265D01*
X13740Y30725D02*
X14040D01*
Y30575D01*
X13990Y30525D01*
X13790D01*
X13740Y30575D01*
Y30725D01*
X14040Y30425D02*
Y30325D01*
Y30375D01*
X13740D01*
X13790Y30425D01*
Y30175D02*
X13740Y30125D01*
Y30025D01*
X13790Y29975D01*
X13990D01*
X14040Y30025D01*
Y30125D01*
X13990Y30175D01*
X13790D01*
Y29875D02*
X13740Y29825D01*
Y29725D01*
X13790Y29675D01*
X13990D01*
X14040Y29725D01*
Y29825D01*
X13990Y29875D01*
X13790D01*
X31580Y26390D02*
Y26090D01*
X31430D01*
X31380Y26140D01*
Y26340D01*
X31430Y26390D01*
X31580D01*
X31280Y26340D02*
X31230Y26390D01*
X31130D01*
X31080Y26340D01*
Y26290D01*
X31130Y26240D01*
X31180D01*
X31130D01*
X31080Y26190D01*
Y26140D01*
X31130Y26090D01*
X31230D01*
X31280Y26140D01*
X32720Y23700D02*
Y23400D01*
X32570D01*
X32520Y23450D01*
Y23650D01*
X32570Y23700D01*
X32720D01*
X32220Y23400D02*
X32420D01*
X32220Y23600D01*
Y23650D01*
X32270Y23700D01*
X32370D01*
X32420Y23650D01*
X30430Y26860D02*
Y26560D01*
X30280D01*
X30230Y26610D01*
Y26810D01*
X30280Y26860D01*
X30430D01*
X30130Y26560D02*
X30030D01*
X30080D01*
Y26860D01*
X30130Y26810D01*
X18660Y19640D02*
X18710Y19690D01*
X18810D01*
X18860Y19640D01*
Y19440D01*
X18810Y19390D01*
X18710D01*
X18660Y19440D01*
X18560Y19390D02*
X18460D01*
X18510D01*
Y19690D01*
X18560Y19640D01*
X18310Y19390D02*
X18210D01*
X18260D01*
Y19690D01*
X18310Y19640D01*
X18060D02*
X18010Y19690D01*
X17910D01*
X17860Y19640D01*
Y19440D01*
X17910Y19390D01*
X18010D01*
X18060Y19440D01*
Y19640D01*
X18635Y18640D02*
X18685Y18690D01*
X18785D01*
X18835Y18640D01*
Y18440D01*
X18785Y18390D01*
X18685D01*
X18635Y18440D01*
X18535Y18390D02*
X18435D01*
X18485D01*
Y18690D01*
X18535Y18640D01*
X18285D02*
X18235Y18690D01*
X18135D01*
X18085Y18640D01*
Y18440D01*
X18135Y18390D01*
X18235D01*
X18285Y18440D01*
Y18640D01*
X17985Y18440D02*
X17935Y18390D01*
X17835D01*
X17785Y18440D01*
Y18640D01*
X17835Y18690D01*
X17935D01*
X17985Y18640D01*
Y18590D01*
X17935Y18540D01*
X17785D01*
X1375Y9850D02*
X1425Y9900D01*
X1525D01*
X1575Y9850D01*
Y9650D01*
X1525Y9600D01*
X1425D01*
X1375Y9650D01*
X1275Y9600D02*
X1175D01*
X1225D01*
Y9900D01*
X1275Y9850D01*
X1025D02*
X975Y9900D01*
X875D01*
X825Y9850D01*
Y9650D01*
X875Y9600D01*
X975D01*
X1025Y9650D01*
Y9850D01*
X725D02*
X675Y9900D01*
X575D01*
X525Y9850D01*
Y9800D01*
X575Y9750D01*
X525Y9700D01*
Y9650D01*
X575Y9600D01*
X675D01*
X725Y9650D01*
Y9700D01*
X675Y9750D01*
X725Y9800D01*
Y9850D01*
X675Y9750D02*
X575D01*
X1305Y7900D02*
X1355Y7950D01*
X1455D01*
X1505Y7900D01*
Y7700D01*
X1455Y7650D01*
X1355D01*
X1305Y7700D01*
X1205Y7650D02*
X1105D01*
X1155D01*
Y7950D01*
X1205Y7900D01*
X955D02*
X905Y7950D01*
X805D01*
X755Y7900D01*
Y7700D01*
X805Y7650D01*
X905D01*
X955Y7700D01*
Y7900D01*
X455Y7950D02*
X655D01*
Y7800D01*
X555Y7850D01*
X505D01*
X455Y7800D01*
Y7700D01*
X505Y7650D01*
X605D01*
X655Y7700D01*
X4615Y11190D02*
X4665Y11240D01*
X4765D01*
X4815Y11190D01*
Y10990D01*
X4765Y10940D01*
X4665D01*
X4615Y10990D01*
X4515Y10940D02*
X4415D01*
X4465D01*
Y11240D01*
X4515Y11190D01*
X4265D02*
X4215Y11240D01*
X4115D01*
X4065Y11190D01*
Y10990D01*
X4115Y10940D01*
X4215D01*
X4265Y10990D01*
Y11190D01*
X3815Y10940D02*
Y11240D01*
X3965Y11090D01*
X3765D01*
X1315Y5930D02*
X1365Y5980D01*
X1465D01*
X1515Y5930D01*
Y5730D01*
X1465Y5680D01*
X1365D01*
X1315Y5730D01*
X1215Y5680D02*
X1115D01*
X1165D01*
Y5980D01*
X1215Y5930D01*
X965D02*
X915Y5980D01*
X815D01*
X765Y5930D01*
Y5730D01*
X815Y5680D01*
X915D01*
X965Y5730D01*
Y5930D01*
X665D02*
X615Y5980D01*
X515D01*
X465Y5930D01*
Y5880D01*
X515Y5830D01*
X565D01*
X515D01*
X465Y5780D01*
Y5730D01*
X515Y5680D01*
X615D01*
X665Y5730D01*
X10760Y27995D02*
X10710Y28045D01*
Y28145D01*
X10760Y28195D01*
X10960D01*
X11010Y28145D01*
Y28045D01*
X10960Y27995D01*
X11010Y27895D02*
Y27795D01*
Y27845D01*
X10710D01*
X10760Y27895D01*
Y27645D02*
X10710Y27595D01*
Y27495D01*
X10760Y27445D01*
X10960D01*
X11010Y27495D01*
Y27595D01*
X10960Y27645D01*
X10760D01*
X11010Y27145D02*
Y27345D01*
X10810Y27145D01*
X10760D01*
X10710Y27195D01*
Y27295D01*
X10760Y27345D01*
X25890Y24220D02*
X25940Y24270D01*
X26040D01*
X26090Y24220D01*
Y24020D01*
X26040Y23970D01*
X25940D01*
X25890Y24020D01*
X25590Y23970D02*
X25790D01*
X25590Y24170D01*
Y24220D01*
X25640Y24270D01*
X25740D01*
X25790Y24220D01*
X27390Y24170D02*
X27440Y24220D01*
X27540D01*
X27590Y24170D01*
Y23970D01*
X27540Y23920D01*
X27440D01*
X27390Y23970D01*
X27290Y23920D02*
X27190D01*
X27240D01*
Y24220D01*
X27290Y24170D01*
D20*
X14134Y31169D02*
Y32351D01*
X13426Y31169D02*
Y32351D01*
Y31169D02*
X13509D01*
X14051D02*
X14134D01*
X14051Y32351D02*
X14134D01*
X13426D02*
X13509D01*
D21*
X33651Y24589D02*
Y26384D01*
X35089Y24640D02*
Y26333D01*
D23*
X13775Y31470D02*
D03*
D153*
X30111Y25836D02*
D03*
X28689D02*
D03*
M02*
