G04*
G04 #@! TF.GenerationSoftware,Altium Limited,Altium Designer,20.2.6 (244)*
G04*
G04 Layer_Color=2752767*
%FSLAX24Y24*%
%MOIN*%
G70*
G04*
G04 #@! TF.SameCoordinates,6B0B31F8-34BC-4807-AF79-D9433D138100*
G04*
G04*
G04 #@! TF.FilePolarity,Positive*
G04*
G01*
G75*
%ADD158C,0.0020*%
%ADD159C,0.0027*%
%ADD160C,0.0013*%
D158*
X34688Y32436D02*
Y32596D01*
X34848D01*
Y32436D01*
X34688D01*
X32893Y29448D02*
X32813Y29608D01*
X32973D01*
X32893Y29448D01*
X36693Y31248D02*
X36733Y31288D01*
X36773D01*
X36733Y31328D01*
X36773Y31368D01*
X36733D01*
X36693Y31408D01*
X36653Y31368D01*
X36613D01*
X36653Y31328D01*
X36613Y31288D01*
X36653D01*
X36693Y31248D01*
X32863D02*
X32903Y31328D01*
X32863Y31408D01*
X32943Y31368D01*
X33023Y31408D01*
X32983Y31328D01*
X33023Y31248D01*
X32943Y31288D01*
X32863Y31248D01*
X34728Y28677D02*
Y28637D01*
X34808D01*
Y28677D01*
X34848D01*
Y28757D01*
X34808D01*
Y28797D01*
X34728D01*
Y28757D01*
X34688D01*
Y28677D01*
X34728D01*
X37637Y2020D02*
X37677D01*
X37717Y2060D01*
X37757Y2020D01*
X37797D01*
Y2060D01*
X37757Y2100D01*
X37797Y2140D01*
Y2180D01*
X37757D01*
X37717Y2140D01*
X37677Y2180D01*
X37637D01*
Y2140D01*
X37677Y2100D01*
X37637Y2060D01*
Y2020D01*
X35637D02*
X35677D01*
X35717Y2060D01*
X35757Y2020D01*
X35797D01*
Y2060D01*
X35757Y2100D01*
X35797Y2140D01*
Y2180D01*
X35757D01*
X35717Y2140D01*
X35677Y2180D01*
X35637D01*
Y2140D01*
X35677Y2100D01*
X35637Y2060D01*
Y2020D01*
X19530Y4860D02*
X19610Y4940D01*
X19690Y4860D01*
X19610Y4780D01*
X19530Y4860D01*
Y7860D02*
X19610Y7940D01*
X19690Y7860D01*
X19610Y7780D01*
X19530Y7860D01*
Y11860D02*
X19610Y11940D01*
X19690Y11860D01*
X19610Y11780D01*
X19530Y11860D01*
X22530Y5860D02*
X22610Y5940D01*
X22690Y5860D01*
X22610Y5780D01*
X22530Y5860D01*
Y11860D02*
X22610Y11940D01*
X22690Y11860D01*
X22610Y11780D01*
X22530Y11860D01*
X39980Y2020D02*
X40020D01*
X40060Y2060D01*
X40100Y2020D01*
X40140D01*
Y2060D01*
X40100Y2100D01*
X40140Y2140D01*
Y2180D01*
X40100D01*
X40060Y2140D01*
X40020Y2180D01*
X39980D01*
Y2140D01*
X40020Y2100D01*
X39980Y2060D01*
Y2020D01*
X41980D02*
X42020D01*
X42060Y2060D01*
X42100Y2020D01*
X42140D01*
Y2060D01*
X42100Y2100D01*
X42140Y2140D01*
Y2180D01*
X42100D01*
X42060Y2140D01*
X42020Y2180D01*
X41980D01*
Y2140D01*
X42020Y2100D01*
X41980Y2060D01*
Y2020D01*
X31293D02*
X31333D01*
X31373Y2060D01*
X31413Y2020D01*
X31453D01*
Y2060D01*
X31413Y2100D01*
X31453Y2140D01*
Y2180D01*
X31413D01*
X31373Y2140D01*
X31333Y2180D01*
X31293D01*
Y2140D01*
X31333Y2100D01*
X31293Y2060D01*
Y2020D01*
X33293D02*
X33333D01*
X33373Y2060D01*
X33413Y2020D01*
X33453D01*
Y2060D01*
X33413Y2100D01*
X33453Y2140D01*
Y2180D01*
X33413D01*
X33373Y2140D01*
X33333Y2180D01*
X33293D01*
Y2140D01*
X33333Y2100D01*
X33293Y2060D01*
Y2020D01*
X18515Y2010D02*
X18555D01*
X18595Y2050D01*
X18635Y2010D01*
X18675D01*
Y2050D01*
X18635Y2090D01*
X18675Y2130D01*
Y2170D01*
X18635D01*
X18595Y2130D01*
X18555Y2170D01*
X18515D01*
Y2130D01*
X18555Y2090D01*
X18515Y2050D01*
Y2010D01*
X20515D02*
X20555D01*
X20595Y2050D01*
X20635Y2010D01*
X20675D01*
Y2050D01*
X20635Y2090D01*
X20675Y2130D01*
Y2170D01*
X20635D01*
X20595Y2130D01*
X20555Y2170D01*
X20515D01*
Y2130D01*
X20555Y2090D01*
X20515Y2050D01*
Y2010D01*
X5480D02*
X5520D01*
X5560Y2050D01*
X5600Y2010D01*
X5640D01*
Y2050D01*
X5600Y2090D01*
X5640Y2130D01*
Y2170D01*
X5600D01*
X5560Y2130D01*
X5520Y2170D01*
X5480D01*
Y2130D01*
X5520Y2090D01*
X5480Y2050D01*
Y2010D01*
X7480D02*
X7520D01*
X7560Y2050D01*
X7600Y2010D01*
X7640D01*
Y2050D01*
X7600Y2090D01*
X7640Y2130D01*
Y2170D01*
X7600D01*
X7560Y2130D01*
X7520Y2170D01*
X7480D01*
Y2130D01*
X7520Y2090D01*
X7480Y2050D01*
Y2010D01*
X11825D02*
X11865D01*
X11905Y2050D01*
X11945Y2010D01*
X11985D01*
Y2050D01*
X11945Y2090D01*
X11985Y2130D01*
Y2170D01*
X11945D01*
X11905Y2130D01*
X11865Y2170D01*
X11825D01*
Y2130D01*
X11865Y2090D01*
X11825Y2050D01*
Y2010D01*
X9825D02*
X9865D01*
X9905Y2050D01*
X9945Y2010D01*
X9985D01*
Y2050D01*
X9945Y2090D01*
X9985Y2130D01*
Y2170D01*
X9945D01*
X9905Y2130D01*
X9865Y2170D01*
X9825D01*
Y2130D01*
X9865Y2090D01*
X9825Y2050D01*
Y2010D01*
X16170D02*
X16210D01*
X16250Y2050D01*
X16290Y2010D01*
X16330D01*
Y2050D01*
X16290Y2090D01*
X16330Y2130D01*
Y2170D01*
X16290D01*
X16250Y2130D01*
X16210Y2170D01*
X16170D01*
Y2130D01*
X16210Y2090D01*
X16170Y2050D01*
Y2010D01*
X14170D02*
X14210D01*
X14250Y2050D01*
X14290Y2010D01*
X14330D01*
Y2050D01*
X14290Y2090D01*
X14330Y2130D01*
Y2170D01*
X14290D01*
X14250Y2130D01*
X14210Y2170D01*
X14170D01*
Y2130D01*
X14210Y2090D01*
X14170Y2050D01*
Y2010D01*
X22860D02*
X22900D01*
X22940Y2050D01*
X22980Y2010D01*
X23020D01*
Y2050D01*
X22980Y2090D01*
X23020Y2130D01*
Y2170D01*
X22980D01*
X22940Y2130D01*
X22900Y2170D01*
X22860D01*
Y2130D01*
X22900Y2090D01*
X22860Y2050D01*
Y2010D01*
X24860D02*
X24900D01*
X24940Y2050D01*
X24980Y2010D01*
X25020D01*
Y2050D01*
X24980Y2090D01*
X25020Y2130D01*
Y2170D01*
X24980D01*
X24940Y2130D01*
X24900Y2170D01*
X24860D01*
Y2130D01*
X24900Y2090D01*
X24860Y2050D01*
Y2010D01*
X46380Y1100D02*
Y1260D01*
X46540D01*
Y1100D01*
X46380D01*
X46420Y1140D02*
Y1220D01*
X46500D01*
Y1140D01*
X46420D01*
X1104Y1100D02*
Y1260D01*
X1264D01*
Y1100D01*
X1104D01*
X1144Y1140D02*
Y1220D01*
X1224D01*
Y1140D01*
X1144D01*
X21150Y19450D02*
X21070Y19610D01*
X21230D01*
X21150Y19450D01*
Y19490D02*
X21110Y19570D01*
X21190D01*
X21150Y19490D01*
Y18450D02*
X21070Y18610D01*
X21230D01*
X21150Y18450D01*
Y18490D02*
X21110Y18570D01*
X21190D01*
X21150Y18490D01*
X43232Y27060D02*
X43272Y27100D01*
X43312D01*
X43272Y27140D01*
X43312Y27180D01*
X43272D01*
X43232Y27220D01*
X43192Y27180D01*
X43152D01*
X43192Y27140D01*
X43152Y27100D01*
X43192D01*
X43232Y27060D01*
Y27100D02*
X43252Y27120D01*
X43272D01*
X43252Y27140D01*
X43272Y27160D01*
X43252D01*
X43232Y27180D01*
X43212Y27160D01*
X43192D01*
X43212Y27140D01*
X43192Y27120D01*
X43212D01*
X43232Y27100D01*
X42232Y27060D02*
X42272Y27100D01*
X42312D01*
X42272Y27140D01*
X42312Y27180D01*
X42272D01*
X42232Y27220D01*
X42192Y27180D01*
X42152D01*
X42192Y27140D01*
X42152Y27100D01*
X42192D01*
X42232Y27060D01*
Y27100D02*
X42252Y27120D01*
X42272D01*
X42252Y27140D01*
X42272Y27160D01*
X42252D01*
X42232Y27180D01*
X42212Y27160D01*
X42192D01*
X42212Y27140D01*
X42192Y27120D01*
X42212D01*
X42232Y27100D01*
X41232Y27060D02*
X41272Y27100D01*
X41312D01*
X41272Y27140D01*
X41312Y27180D01*
X41272D01*
X41232Y27220D01*
X41192Y27180D01*
X41152D01*
X41192Y27140D01*
X41152Y27100D01*
X41192D01*
X41232Y27060D01*
Y27100D02*
X41252Y27120D01*
X41272D01*
X41252Y27140D01*
X41272Y27160D01*
X41252D01*
X41232Y27180D01*
X41212Y27160D01*
X41192D01*
X41212Y27140D01*
X41192Y27120D01*
X41212D01*
X41232Y27100D01*
X40232Y27060D02*
X40272Y27100D01*
X40312D01*
X40272Y27140D01*
X40312Y27180D01*
X40272D01*
X40232Y27220D01*
X40192Y27180D01*
X40152D01*
X40192Y27140D01*
X40152Y27100D01*
X40192D01*
X40232Y27060D01*
Y27100D02*
X40252Y27120D01*
X40272D01*
X40252Y27140D01*
X40272Y27160D01*
X40252D01*
X40232Y27180D01*
X40212Y27160D01*
X40192D01*
X40212Y27140D01*
X40192Y27120D01*
X40212D01*
X40232Y27100D01*
X39732Y26060D02*
X39772Y26100D01*
X39812D01*
X39772Y26140D01*
X39812Y26180D01*
X39772D01*
X39732Y26220D01*
X39692Y26180D01*
X39652D01*
X39692Y26140D01*
X39652Y26100D01*
X39692D01*
X39732Y26060D01*
Y26100D02*
X39752Y26120D01*
X39772D01*
X39752Y26140D01*
X39772Y26160D01*
X39752D01*
X39732Y26180D01*
X39712Y26160D01*
X39692D01*
X39712Y26140D01*
X39692Y26120D01*
X39712D01*
X39732Y26100D01*
X40732Y26060D02*
X40772Y26100D01*
X40812D01*
X40772Y26140D01*
X40812Y26180D01*
X40772D01*
X40732Y26220D01*
X40692Y26180D01*
X40652D01*
X40692Y26140D01*
X40652Y26100D01*
X40692D01*
X40732Y26060D01*
Y26100D02*
X40752Y26120D01*
X40772D01*
X40752Y26140D01*
X40772Y26160D01*
X40752D01*
X40732Y26180D01*
X40712Y26160D01*
X40692D01*
X40712Y26140D01*
X40692Y26120D01*
X40712D01*
X40732Y26100D01*
X42732Y26060D02*
X42772Y26100D01*
X42812D01*
X42772Y26140D01*
X42812Y26180D01*
X42772D01*
X42732Y26220D01*
X42692Y26180D01*
X42652D01*
X42692Y26140D01*
X42652Y26100D01*
X42692D01*
X42732Y26060D01*
Y26100D02*
X42752Y26120D01*
X42772D01*
X42752Y26140D01*
X42772Y26160D01*
X42752D01*
X42732Y26180D01*
X42712Y26160D01*
X42692D01*
X42712Y26140D01*
X42692Y26120D01*
X42712D01*
X42732Y26100D01*
X41732Y26060D02*
X41772Y26100D01*
X41812D01*
X41772Y26140D01*
X41812Y26180D01*
X41772D01*
X41732Y26220D01*
X41692Y26180D01*
X41652D01*
X41692Y26140D01*
X41652Y26100D01*
X41692D01*
X41732Y26060D01*
Y26100D02*
X41752Y26120D01*
X41772D01*
X41752Y26140D01*
X41772Y26160D01*
X41752D01*
X41732Y26180D01*
X41712Y26160D01*
X41692D01*
X41712Y26140D01*
X41692Y26120D01*
X41712D01*
X41732Y26100D01*
X44008Y31489D02*
X44048Y31569D01*
X44008Y31649D01*
X44088Y31609D01*
X44168Y31649D01*
X44128Y31569D01*
X44168Y31489D01*
X44088Y31529D01*
X44008Y31489D01*
X44048Y31529D02*
X44068Y31569D01*
X44048Y31609D01*
X44088Y31589D01*
X44128Y31609D01*
X44108Y31569D01*
X44128Y31529D01*
X44088Y31549D01*
X44048Y31529D01*
X43008Y31489D02*
X43048Y31569D01*
X43008Y31649D01*
X43088Y31609D01*
X43168Y31649D01*
X43128Y31569D01*
X43168Y31489D01*
X43088Y31529D01*
X43008Y31489D01*
X43048Y31529D02*
X43068Y31569D01*
X43048Y31609D01*
X43088Y31589D01*
X43128Y31609D01*
X43108Y31569D01*
X43128Y31529D01*
X43088Y31549D01*
X43048Y31529D01*
X39792Y31489D02*
X39832Y31569D01*
X39792Y31649D01*
X39872Y31609D01*
X39952Y31649D01*
X39912Y31569D01*
X39952Y31489D01*
X39872Y31529D01*
X39792Y31489D01*
X39832Y31529D02*
X39852Y31569D01*
X39832Y31609D01*
X39872Y31589D01*
X39912Y31609D01*
X39892Y31569D01*
X39912Y31529D01*
X39872Y31549D01*
X39832Y31529D01*
X38792Y31489D02*
X38832Y31569D01*
X38792Y31649D01*
X38872Y31609D01*
X38952Y31649D01*
X38912Y31569D01*
X38952Y31489D01*
X38872Y31529D01*
X38792Y31489D01*
X38832Y31529D02*
X38852Y31569D01*
X38832Y31609D01*
X38872Y31589D01*
X38912Y31609D01*
X38892Y31569D01*
X38912Y31529D01*
X38872Y31549D01*
X38832Y31529D01*
X38391Y28399D02*
Y28359D01*
X38471D01*
Y28399D01*
X38511D01*
Y28479D01*
X38471D01*
Y28519D01*
X38391D01*
Y28479D01*
X38351D01*
Y28399D01*
X38391D01*
X38411Y28419D02*
Y28399D01*
X38451D01*
Y28419D01*
X38471D01*
Y28459D01*
X38451D01*
Y28479D01*
X38411D01*
Y28459D01*
X38391D01*
Y28419D01*
X38411D01*
X44489Y28399D02*
Y28359D01*
X44569D01*
Y28399D01*
X44609D01*
Y28479D01*
X44569D01*
Y28519D01*
X44489D01*
Y28479D01*
X44449D01*
Y28399D01*
X44489D01*
X44509Y28419D02*
Y28399D01*
X44549D01*
Y28419D01*
X44569D01*
Y28459D01*
X44549D01*
Y28479D01*
X44509D01*
Y28459D01*
X44489D01*
Y28419D01*
X44509D01*
X39150Y29560D02*
X39190D01*
X39230Y29600D01*
X39270Y29560D01*
X39310D01*
Y29600D01*
X39270Y29640D01*
X39310Y29680D01*
Y29720D01*
X39270D01*
X39230Y29680D01*
X39190Y29720D01*
X39150D01*
Y29680D01*
X39190Y29640D01*
X39150Y29600D01*
Y29560D01*
X39190Y29600D02*
X39210D01*
X39230Y29620D01*
X39250Y29600D01*
X39270D01*
Y29620D01*
X39250Y29640D01*
X39270Y29660D01*
Y29680D01*
X39250D01*
X39230Y29660D01*
X39210Y29680D01*
X39190D01*
Y29660D01*
X39210Y29640D01*
X39190Y29620D01*
Y29600D01*
X43650Y29560D02*
X43690D01*
X43730Y29600D01*
X43770Y29560D01*
X43810D01*
Y29600D01*
X43770Y29640D01*
X43810Y29680D01*
Y29720D01*
X43770D01*
X43730Y29680D01*
X43690Y29720D01*
X43650D01*
Y29680D01*
X43690Y29640D01*
X43650Y29600D01*
Y29560D01*
X43690Y29600D02*
X43710D01*
X43730Y29620D01*
X43750Y29600D01*
X43770D01*
Y29620D01*
X43750Y29640D01*
X43770Y29660D01*
Y29680D01*
X43750D01*
X43730Y29660D01*
X43710Y29680D01*
X43690D01*
Y29660D01*
X43710Y29640D01*
X43690Y29620D01*
Y29600D01*
X9030Y4860D02*
X9110Y4940D01*
X9190Y4860D01*
X9110Y4780D01*
X9030Y4860D01*
Y7860D02*
X9110Y7940D01*
X9190Y7860D01*
X9110Y7780D01*
X9030Y7860D01*
X12030Y5860D02*
X12110Y5940D01*
X12190Y5860D01*
X12110Y5780D01*
X12030Y5860D01*
Y11860D02*
X12110Y11940D01*
X12190Y11860D01*
X12110Y11780D01*
X12030Y11860D01*
X9030D02*
X9110Y11940D01*
X9190Y11860D01*
X9110Y11780D01*
X9030Y11860D01*
X17280D02*
X17360Y11940D01*
X17440Y11860D01*
X17360Y11780D01*
X17280Y11860D01*
Y5860D02*
X17360Y5940D01*
X17440Y5860D01*
X17360Y5780D01*
X17280Y5860D01*
X14280Y11860D02*
X14360Y11940D01*
X14440Y11860D01*
X14360Y11780D01*
X14280Y11860D01*
Y7860D02*
X14360Y7940D01*
X14440Y7860D01*
X14360Y7780D01*
X14280Y7860D01*
Y4860D02*
X14360Y4940D01*
X14440Y4860D01*
X14360Y4780D01*
X14280Y4860D01*
X27780Y11860D02*
X27860Y11940D01*
X27940Y11860D01*
X27860Y11780D01*
X27780Y11860D01*
Y5860D02*
X27860Y5940D01*
X27940Y5860D01*
X27860Y5780D01*
X27780Y5860D01*
X24780Y11860D02*
X24860Y11940D01*
X24940Y11860D01*
X24860Y11780D01*
X24780Y11860D01*
Y7860D02*
X24860Y7940D01*
X24940Y7860D01*
X24860Y7780D01*
X24780Y7860D01*
Y4860D02*
X24860Y4940D01*
X24940Y4860D01*
X24860Y4780D01*
X24780Y4860D01*
X30030D02*
X30110Y4940D01*
X30190Y4860D01*
X30110Y4780D01*
X30030Y4860D01*
Y7860D02*
X30110Y7940D01*
X30190Y7860D01*
X30110Y7780D01*
X30030Y7860D01*
Y11860D02*
X30110Y11940D01*
X30190Y11860D01*
X30110Y11780D01*
X30030Y11860D01*
X33030Y5860D02*
X33110Y5940D01*
X33190Y5860D01*
X33110Y5780D01*
X33030Y5860D01*
Y11860D02*
X33110Y11940D01*
X33190Y11860D01*
X33110Y11780D01*
X33030Y11860D01*
X44340Y6650D02*
Y6783D01*
X44407Y6850D01*
X44473Y6783D01*
Y6650D01*
Y6750D01*
X44340D01*
Y7650D02*
Y7783D01*
X44407Y7850D01*
X44473Y7783D01*
Y7650D01*
Y7750D01*
X44340D01*
Y9650D02*
Y9783D01*
X44407Y9850D01*
X44473Y9783D01*
Y9650D01*
Y9750D01*
X44340D01*
Y11650D02*
Y11783D01*
X44407Y11850D01*
X44473Y11783D01*
Y11650D01*
Y11750D01*
X44340D01*
X800Y28050D02*
Y27850D01*
X900D01*
X933Y27883D01*
Y27917D01*
X900Y27950D01*
X800D01*
X900D01*
X933Y27983D01*
Y28017D01*
X900Y28050D01*
X800D01*
Y29050D02*
Y28850D01*
X900D01*
X933Y28883D01*
Y28917D01*
X900Y28950D01*
X800D01*
X900D01*
X933Y28983D01*
Y29017D01*
X900Y29050D01*
X800D01*
Y30050D02*
Y29850D01*
X900D01*
X933Y29883D01*
Y29917D01*
X900Y29950D01*
X800D01*
X900D01*
X933Y29983D01*
Y30017D01*
X900Y30050D01*
X800D01*
Y19410D02*
Y19210D01*
X900D01*
X933Y19243D01*
Y19277D01*
X900Y19310D01*
X800D01*
X900D01*
X933Y19343D01*
Y19377D01*
X900Y19410D01*
X800D01*
Y18410D02*
Y18210D01*
X900D01*
X933Y18243D01*
Y18277D01*
X900Y18310D01*
X800D01*
X900D01*
X933Y18343D01*
Y18377D01*
X900Y18410D01*
X800D01*
Y17410D02*
Y17210D01*
X900D01*
X933Y17243D01*
Y17277D01*
X900Y17310D01*
X800D01*
X900D01*
X933Y17343D01*
Y17377D01*
X900Y17410D01*
X800D01*
Y16280D02*
Y16080D01*
X900D01*
X933Y16113D01*
Y16147D01*
X900Y16180D01*
X800D01*
X900D01*
X933Y16213D01*
Y16247D01*
X900Y16280D01*
X800D01*
Y15280D02*
Y15080D01*
X900D01*
X933Y15113D01*
Y15147D01*
X900Y15180D01*
X800D01*
X900D01*
X933Y15213D01*
Y15247D01*
X900Y15280D01*
X800D01*
Y14280D02*
Y14080D01*
X900D01*
X933Y14113D01*
Y14147D01*
X900Y14180D01*
X800D01*
X900D01*
X933Y14213D01*
Y14247D01*
X900Y14280D01*
X800D01*
X46391Y32610D02*
Y32770D01*
X46551D01*
Y32610D01*
X46391D01*
X46431Y32650D02*
Y32730D01*
X46511D01*
Y32650D01*
X46431D01*
X1104Y32596D02*
Y32756D01*
X1264D01*
Y32596D01*
X1104D01*
X1144Y32636D02*
Y32716D01*
X1224D01*
Y32636D01*
X1144D01*
X46380Y1100D02*
Y1260D01*
X46540D01*
Y1100D01*
X46380D01*
X46420Y1140D02*
Y1220D01*
X46500D01*
Y1140D01*
X46420D01*
X1104Y1100D02*
Y1260D01*
X1264D01*
Y1100D01*
X1104D01*
X1144Y1140D02*
Y1220D01*
X1224D01*
Y1140D01*
X1144D01*
X2043Y7217D02*
X2010Y7250D01*
X1943D01*
X1910Y7217D01*
Y7083D01*
X1943Y7050D01*
X2010D01*
X2043Y7083D01*
X27160Y31730D02*
Y31530D01*
X27260D01*
X27293Y31563D01*
Y31697D01*
X27260Y31730D01*
X27160D01*
X32160Y1730D02*
Y1530D01*
X32260D01*
X32293Y1563D01*
Y1697D01*
X32260Y1730D01*
X32160D01*
X31160Y26730D02*
Y26530D01*
X31260D01*
X31293Y26563D01*
Y26697D01*
X31260Y26730D01*
X31160D01*
X27160Y32730D02*
Y32530D01*
X27260D01*
X27293Y32563D01*
Y32697D01*
X27260Y32730D01*
X27160D01*
X26160D02*
Y32530D01*
X26260D01*
X26293Y32563D01*
Y32697D01*
X26260Y32730D01*
X26160D01*
X27160Y20730D02*
Y20530D01*
X27260D01*
X27293Y20563D01*
Y20697D01*
X27260Y20730D01*
X27160D01*
Y19730D02*
Y19530D01*
X27260D01*
X27293Y19563D01*
Y19697D01*
X27260Y19730D01*
X27160D01*
X9083Y13347D02*
X9050Y13380D01*
X8983D01*
X8950Y13347D01*
Y13213D01*
X8983Y13180D01*
X9050D01*
X9083Y13213D01*
X28783Y11657D02*
X28750Y11690D01*
X28683D01*
X28650Y11657D01*
Y11523D01*
X28683Y11490D01*
X28750D01*
X28783Y11523D01*
X35118Y11167D02*
X35085Y11200D01*
X35018D01*
X34985Y11167D01*
Y11033D01*
X35018Y11000D01*
X35085D01*
X35118Y11033D01*
X33913Y11117D02*
X33880Y11150D01*
X33813D01*
X33780Y11117D01*
Y10983D01*
X33813Y10950D01*
X33880D01*
X33913Y10983D01*
X35118Y10287D02*
X35085Y10320D01*
X35018D01*
X34985Y10287D01*
Y10153D01*
X35018Y10120D01*
X35085D01*
X35118Y10153D01*
X3528Y12728D02*
X3495Y12761D01*
X3428D01*
X3395Y12728D01*
Y12595D01*
X3428Y12561D01*
X3495D01*
X3528Y12595D01*
X4683Y11127D02*
X4650Y11160D01*
X4583D01*
X4550Y11127D01*
Y10993D01*
X4583Y10960D01*
X4650D01*
X4683Y10993D01*
X2973Y11047D02*
X2940Y11080D01*
X2873D01*
X2840Y11047D01*
Y10913D01*
X2873Y10880D01*
X2940D01*
X2973Y10913D01*
X4843Y9887D02*
X4810Y9920D01*
X4743D01*
X4710Y9887D01*
Y9753D01*
X4743Y9720D01*
X4810D01*
X4843Y9753D01*
X933Y11197D02*
X900Y11230D01*
X833D01*
X800Y11197D01*
Y11063D01*
X833Y11030D01*
X900D01*
X933Y11063D01*
X8133Y11987D02*
X8100Y12020D01*
X8033D01*
X8000Y11987D01*
Y11853D01*
X8033Y11820D01*
X8100D01*
X8133Y11853D01*
X18703Y13907D02*
X18670Y13940D01*
X18603D01*
X18570Y13907D01*
Y13773D01*
X18603Y13740D01*
X18670D01*
X18703Y13773D01*
X22163Y12727D02*
X22130Y12760D01*
X22063D01*
X22030Y12727D01*
Y12593D01*
X22063Y12560D01*
X22130D01*
X22163Y12593D01*
X14983Y13187D02*
X14950Y13220D01*
X14883D01*
X14850Y13187D01*
Y13053D01*
X14883Y13020D01*
X14950D01*
X14983Y13053D01*
X15663Y13192D02*
X15630Y13225D01*
X15563D01*
X15530Y13192D01*
Y13058D01*
X15563Y13025D01*
X15630D01*
X15663Y13058D01*
X7933Y12657D02*
X7900Y12690D01*
X7833D01*
X7800Y12657D01*
Y12523D01*
X7833Y12490D01*
X7900D01*
X7933Y12523D01*
X2143Y11707D02*
X2110Y11740D01*
X2043D01*
X2010Y11707D01*
Y11573D01*
X2043Y11540D01*
X2110D01*
X2143Y11573D01*
X1683Y11777D02*
X1650Y11810D01*
X1583D01*
X1550Y11777D01*
Y11643D01*
X1583Y11610D01*
X1650D01*
X1683Y11643D01*
X2008Y9147D02*
X1975Y9180D01*
X1908D01*
X1875Y9147D01*
Y9013D01*
X1908Y8980D01*
X1975D01*
X2008Y9013D01*
X3523Y11567D02*
X3490Y11600D01*
X3423D01*
X3390Y11567D01*
Y11433D01*
X3423Y11400D01*
X3490D01*
X3523Y11433D01*
X22910Y13730D02*
Y13530D01*
X23010D01*
X23043Y13563D01*
Y13697D01*
X23010Y13730D01*
X22910D01*
X20410Y27980D02*
Y27780D01*
X20510D01*
X20543Y27813D01*
Y27947D01*
X20510Y27980D01*
X20410D01*
X20160D02*
Y27780D01*
X20260D01*
X20293Y27813D01*
Y27947D01*
X20260Y27980D01*
X20160D01*
Y28230D02*
Y28030D01*
X20260D01*
X20293Y28063D01*
Y28197D01*
X20260Y28230D01*
X20160D01*
Y28480D02*
Y28280D01*
X20260D01*
X20293Y28313D01*
Y28447D01*
X20260Y28480D01*
X20160D01*
X26160Y31730D02*
Y31530D01*
X26260D01*
X26293Y31563D01*
Y31697D01*
X26260Y31730D01*
X26160D01*
X24160Y19730D02*
Y19530D01*
X24260D01*
X24293Y19563D01*
Y19697D01*
X24260Y19730D01*
X24160D01*
Y20730D02*
Y20530D01*
X24260D01*
X24293Y20563D01*
Y20697D01*
X24260Y20730D01*
X24160D01*
X22160Y13730D02*
Y13530D01*
X22260D01*
X22293Y13563D01*
Y13697D01*
X22260Y13730D01*
X22160D01*
X22660Y13480D02*
Y13280D01*
X22760D01*
X22793Y13313D01*
Y13447D01*
X22760Y13480D01*
X22660D01*
X22910D02*
Y13280D01*
X23010D01*
X23043Y13313D01*
Y13447D01*
X23010Y13480D01*
X22910D01*
X22660Y13730D02*
Y13530D01*
X22760D01*
X22793Y13563D01*
Y13697D01*
X22760Y13730D01*
X22660D01*
X4160Y2730D02*
Y2530D01*
X4260D01*
X4293Y2563D01*
Y2697D01*
X4260Y2730D01*
X4160D01*
X3160Y23730D02*
Y23530D01*
X3260D01*
X3293Y23563D01*
Y23697D01*
X3260Y23730D01*
X3160D01*
X4160Y4730D02*
Y4530D01*
X4260D01*
X4293Y4563D01*
Y4697D01*
X4260Y4730D01*
X4160D01*
Y3730D02*
Y3530D01*
X4260D01*
X4293Y3563D01*
Y3697D01*
X4260Y3730D01*
X4160D01*
Y730D02*
Y530D01*
X4260D01*
X4293Y563D01*
Y697D01*
X4260Y730D01*
X4160D01*
X3160Y24730D02*
Y24530D01*
X3260D01*
X3293Y24563D01*
Y24697D01*
X3260Y24730D01*
X3160D01*
Y32730D02*
Y32530D01*
X3260D01*
X3293Y32563D01*
Y32697D01*
X3260Y32730D01*
X3160D01*
Y31730D02*
Y31530D01*
X3260D01*
X3293Y31563D01*
Y31697D01*
X3260Y31730D01*
X3160D01*
Y22730D02*
Y22530D01*
X3260D01*
X3293Y22563D01*
Y22697D01*
X3260Y22730D01*
X3160D01*
X4160Y7730D02*
Y7530D01*
X4260D01*
X4293Y7563D01*
Y7697D01*
X4260Y7730D01*
X4160D01*
Y5730D02*
Y5530D01*
X4260D01*
X4293Y5563D01*
Y5697D01*
X4260Y5730D01*
X4160D01*
Y1730D02*
Y1530D01*
X4260D01*
X4293Y1563D01*
Y1697D01*
X4260Y1730D01*
X4160D01*
X37843Y6137D02*
X37810Y6170D01*
X37743D01*
X37710Y6137D01*
Y6003D01*
X37743Y5970D01*
X37810D01*
X37843Y6003D01*
X43160Y4730D02*
Y4530D01*
X43260D01*
X43293Y4563D01*
Y4697D01*
X43260Y4730D01*
X43160D01*
Y2730D02*
Y2530D01*
X43260D01*
X43293Y2563D01*
Y2697D01*
X43260Y2730D01*
X43160D01*
Y8730D02*
Y8530D01*
X43260D01*
X43293Y8563D01*
Y8697D01*
X43260Y8730D01*
X43160D01*
Y1730D02*
Y1530D01*
X43260D01*
X43293Y1563D01*
Y1697D01*
X43260Y1730D01*
X43160D01*
X42160Y13730D02*
Y13530D01*
X42260D01*
X42293Y13563D01*
Y13697D01*
X42260Y13730D01*
X42160D01*
Y12730D02*
Y12530D01*
X42260D01*
X42293Y12563D01*
Y12697D01*
X42260Y12730D01*
X42160D01*
Y8730D02*
Y8530D01*
X42260D01*
X42293Y8563D01*
Y8697D01*
X42260Y8730D01*
X42160D01*
X43160Y12730D02*
Y12530D01*
X43260D01*
X43293Y12563D01*
Y12697D01*
X43260Y12730D01*
X43160D01*
X42160Y4730D02*
Y4530D01*
X42260D01*
X42293Y4563D01*
Y4697D01*
X42260Y4730D01*
X42160D01*
X41160D02*
Y4530D01*
X41260D01*
X41293Y4563D01*
Y4697D01*
X41260Y4730D01*
X41160D01*
Y2730D02*
Y2530D01*
X41260D01*
X41293Y2563D01*
Y2697D01*
X41260Y2730D01*
X41160D01*
Y3730D02*
Y3530D01*
X41260D01*
X41293Y3563D01*
Y3697D01*
X41260Y3730D01*
X41160D01*
X43160D02*
Y3530D01*
X43260D01*
X43293Y3563D01*
Y3697D01*
X43260Y3730D01*
X43160D01*
X28660Y13730D02*
Y13530D01*
X28760D01*
X28793Y13563D01*
Y13697D01*
X28760Y13730D01*
X28660D01*
X29160D02*
Y13530D01*
X29260D01*
X29293Y13563D01*
Y13697D01*
X29260Y13730D01*
X29160D01*
X28910D02*
Y13530D01*
X29010D01*
X29043Y13563D01*
Y13697D01*
X29010Y13730D01*
X28910D01*
X45160D02*
Y13530D01*
X45260D01*
X45293Y13563D01*
Y13697D01*
X45260Y13730D01*
X45160D01*
Y6730D02*
Y6530D01*
X45260D01*
X45293Y6563D01*
Y6697D01*
X45260Y6730D01*
X45160D01*
Y3730D02*
Y3530D01*
X45260D01*
X45293Y3563D01*
Y3697D01*
X45260Y3730D01*
X45160D01*
Y7730D02*
Y7530D01*
X45260D01*
X45293Y7563D01*
Y7697D01*
X45260Y7730D01*
X45160D01*
Y26730D02*
Y26530D01*
X45260D01*
X45293Y26563D01*
Y26697D01*
X45260Y26730D01*
X45160D01*
X43160Y19730D02*
Y19530D01*
X43260D01*
X43293Y19563D01*
Y19697D01*
X43260Y19730D01*
X43160D01*
X45160Y11730D02*
Y11530D01*
X45260D01*
X45293Y11563D01*
Y11697D01*
X45260Y11730D01*
X45160D01*
X44160Y8730D02*
Y8530D01*
X44260D01*
X44293Y8563D01*
Y8697D01*
X44260Y8730D01*
X44160D01*
Y730D02*
Y530D01*
X44260D01*
X44293Y563D01*
Y697D01*
X44260Y730D01*
X44160D01*
Y12730D02*
Y12530D01*
X44260D01*
X44293Y12563D01*
Y12697D01*
X44260Y12730D01*
X44160D01*
X43160Y13730D02*
Y13530D01*
X43260D01*
X43293Y13563D01*
Y13697D01*
X43260Y13730D01*
X43160D01*
X45160Y4730D02*
Y4530D01*
X45260D01*
X45293Y4563D01*
Y4697D01*
X45260Y4730D01*
X45160D01*
Y8730D02*
Y8530D01*
X45260D01*
X45293Y8563D01*
Y8697D01*
X45260Y8730D01*
X45160D01*
Y12730D02*
Y12530D01*
X45260D01*
X45293Y12563D01*
Y12697D01*
X45260Y12730D01*
X45160D01*
X44160Y13730D02*
Y13530D01*
X44260D01*
X44293Y13563D01*
Y13697D01*
X44260Y13730D01*
X44160D01*
X45160Y2730D02*
Y2530D01*
X45260D01*
X45293Y2563D01*
Y2697D01*
X45260Y2730D01*
X45160D01*
Y25730D02*
Y25530D01*
X45260D01*
X45293Y25563D01*
Y25697D01*
X45260Y25730D01*
X45160D01*
X12103Y15917D02*
X12070Y15950D01*
X12003D01*
X11970Y15917D01*
Y15783D01*
X12003Y15750D01*
X12070D01*
X12103Y15783D01*
X15828Y16881D02*
X15795Y16915D01*
X15728D01*
X15695Y16881D01*
Y16748D01*
X15728Y16715D01*
X15795D01*
X15828Y16748D01*
X46160Y4730D02*
Y4530D01*
X46260D01*
X46293Y4563D01*
Y4697D01*
X46260Y4730D01*
X46160D01*
Y26730D02*
Y26530D01*
X46260D01*
X46293Y26563D01*
Y26697D01*
X46260Y26730D01*
X46160D01*
Y8730D02*
Y8530D01*
X46260D01*
X46293Y8563D01*
Y8697D01*
X46260Y8730D01*
X46160D01*
X45160Y27730D02*
Y27530D01*
X45260D01*
X45293Y27563D01*
Y27697D01*
X45260Y27730D01*
X45160D01*
X46160Y29730D02*
Y29530D01*
X46260D01*
X46293Y29563D01*
Y29697D01*
X46260Y29730D01*
X46160D01*
Y12730D02*
Y12530D01*
X46260D01*
X46293Y12563D01*
Y12697D01*
X46260Y12730D01*
X46160D01*
Y6730D02*
Y6530D01*
X46260D01*
X46293Y6563D01*
Y6697D01*
X46260Y6730D01*
X46160D01*
X45160Y29730D02*
Y29530D01*
X45260D01*
X45293Y29563D01*
Y29697D01*
X45260Y29730D01*
X45160D01*
X46160Y25730D02*
Y25530D01*
X46260D01*
X46293Y25563D01*
Y25697D01*
X46260Y25730D01*
X46160D01*
X15828Y16611D02*
X15795Y16645D01*
X15728D01*
X15695Y16611D01*
Y16478D01*
X15728Y16445D01*
X15795D01*
X15828Y16478D01*
X46160Y7730D02*
Y7530D01*
X46260D01*
X46293Y7563D01*
Y7697D01*
X46260Y7730D01*
X46160D01*
Y3730D02*
Y3530D01*
X46260D01*
X46293Y3563D01*
Y3697D01*
X46260Y3730D01*
X46160D01*
Y11730D02*
Y11530D01*
X46260D01*
X46293Y11563D01*
Y11697D01*
X46260Y11730D01*
X46160D01*
Y13730D02*
Y13530D01*
X46260D01*
X46293Y13563D01*
Y13697D01*
X46260Y13730D01*
X46160D01*
X38160Y12730D02*
Y12530D01*
X38260D01*
X38293Y12563D01*
Y12697D01*
X38260Y12730D01*
X38160D01*
X37160Y22730D02*
Y22530D01*
X37260D01*
X37293Y22563D01*
Y22697D01*
X37260Y22730D01*
X37160D01*
X38160Y7730D02*
Y7530D01*
X38260D01*
X38293Y7563D01*
Y7697D01*
X38260Y7730D01*
X38160D01*
X36160Y20730D02*
Y20530D01*
X36260D01*
X36293Y20563D01*
Y20697D01*
X36260Y20730D01*
X36160D01*
X37160Y21730D02*
Y21530D01*
X37260D01*
X37293Y21563D01*
Y21697D01*
X37260Y21730D01*
X37160D01*
X38160Y9730D02*
Y9530D01*
X38260D01*
X38293Y9563D01*
Y9697D01*
X38260Y9730D01*
X38160D01*
Y8730D02*
Y8530D01*
X38260D01*
X38293Y8563D01*
Y8697D01*
X38260Y8730D01*
X38160D01*
X37160D02*
Y8530D01*
X37260D01*
X37293Y8563D01*
Y8697D01*
X37260Y8730D01*
X37160D01*
X38160Y10730D02*
Y10530D01*
X38260D01*
X38293Y10563D01*
Y10697D01*
X38260Y10730D01*
X38160D01*
X37160Y28730D02*
Y28530D01*
X37260D01*
X37293Y28563D01*
Y28697D01*
X37260Y28730D01*
X37160D01*
Y19730D02*
Y19530D01*
X37260D01*
X37293Y19563D01*
Y19697D01*
X37260Y19730D01*
X37160D01*
Y9730D02*
Y9530D01*
X37260D01*
X37293Y9563D01*
Y9697D01*
X37260Y9730D01*
X37160D01*
Y7730D02*
Y7530D01*
X37260D01*
X37293Y7563D01*
Y7697D01*
X37260Y7730D01*
X37160D01*
Y20730D02*
Y20530D01*
X37260D01*
X37293Y20563D01*
Y20697D01*
X37260Y20730D01*
X37160D01*
Y24730D02*
Y24530D01*
X37260D01*
X37293Y24563D01*
Y24697D01*
X37260Y24730D01*
X37160D01*
X38160Y11730D02*
Y11530D01*
X38260D01*
X38293Y11563D01*
Y11697D01*
X38260Y11730D01*
X38160D01*
X160Y3730D02*
Y3530D01*
X260D01*
X293Y3563D01*
Y3697D01*
X260Y3730D01*
X160D01*
Y5730D02*
Y5530D01*
X260D01*
X293Y5563D01*
Y5697D01*
X260Y5730D01*
X160D01*
Y14730D02*
Y14530D01*
X260D01*
X293Y14563D01*
Y14697D01*
X260Y14730D01*
X160D01*
Y15730D02*
Y15530D01*
X260D01*
X293Y15563D01*
Y15697D01*
X260Y15730D01*
X160D01*
Y13730D02*
Y13530D01*
X260D01*
X293Y13563D01*
Y13697D01*
X260Y13730D01*
X160D01*
Y12730D02*
Y12530D01*
X260D01*
X293Y12563D01*
Y12697D01*
X260Y12730D01*
X160D01*
Y7730D02*
Y7530D01*
X260D01*
X293Y7563D01*
Y7697D01*
X260Y7730D01*
X160D01*
Y4730D02*
Y4530D01*
X260D01*
X293Y4563D01*
Y4697D01*
X260Y4730D01*
X160D01*
Y11730D02*
Y11530D01*
X260D01*
X293Y11563D01*
Y11697D01*
X260Y11730D01*
X160D01*
Y2730D02*
Y2530D01*
X260D01*
X293Y2563D01*
Y2697D01*
X260Y2730D01*
X160D01*
Y9730D02*
Y9530D01*
X260D01*
X293Y9563D01*
Y9697D01*
X260Y9730D01*
X160D01*
X38160Y31730D02*
Y31530D01*
X38260D01*
X38293Y31563D01*
Y31697D01*
X38260Y31730D01*
X38160D01*
X41160Y1730D02*
Y1530D01*
X41260D01*
X41293Y1563D01*
Y1697D01*
X41260Y1730D01*
X41160D01*
X40160Y7730D02*
Y7530D01*
X40260D01*
X40293Y7563D01*
Y7697D01*
X40260Y7730D01*
X40160D01*
X38160Y32730D02*
Y32530D01*
X38260D01*
X38293Y32563D01*
Y32697D01*
X38260Y32730D01*
X38160D01*
X39160Y11730D02*
Y11530D01*
X39260D01*
X39293Y11563D01*
Y11697D01*
X39260Y11730D01*
X39160D01*
Y3730D02*
Y3530D01*
X39260D01*
X39293Y3563D01*
Y3697D01*
X39260Y3730D01*
X39160D01*
X40160D02*
Y3530D01*
X40260D01*
X40293Y3563D01*
Y3697D01*
X40260Y3730D01*
X40160D01*
X39160Y12730D02*
Y12530D01*
X39260D01*
X39293Y12563D01*
Y12697D01*
X39260Y12730D01*
X39160D01*
Y8730D02*
Y8530D01*
X39260D01*
X39293Y8563D01*
Y8697D01*
X39260Y8730D01*
X39160D01*
Y1730D02*
Y1530D01*
X39260D01*
X39293Y1563D01*
Y1697D01*
X39260Y1730D01*
X39160D01*
Y10730D02*
Y10530D01*
X39260D01*
X39293Y10563D01*
Y10697D01*
X39260Y10730D01*
X39160D01*
Y2730D02*
Y2530D01*
X39260D01*
X39293Y2563D01*
Y2697D01*
X39260Y2730D01*
X39160D01*
X40160Y8730D02*
Y8530D01*
X40260D01*
X40293Y8563D01*
Y8697D01*
X40260Y8730D01*
X40160D01*
X39160Y9730D02*
Y9530D01*
X39260D01*
X39293Y9563D01*
Y9697D01*
X39260Y9730D01*
X39160D01*
Y7730D02*
Y7530D01*
X39260D01*
X39293Y7563D01*
Y7697D01*
X39260Y7730D01*
X39160D01*
X8660Y17480D02*
Y17280D01*
X8760D01*
X8793Y17313D01*
Y17447D01*
X8760Y17480D01*
X8660D01*
X19910Y28230D02*
Y28030D01*
X20010D01*
X20043Y28063D01*
Y28197D01*
X20010Y28230D01*
X19910D01*
X8910Y17480D02*
Y17280D01*
X9010D01*
X9043Y17313D01*
Y17447D01*
X9010Y17480D01*
X8910D01*
X8410D02*
Y17280D01*
X8510D01*
X8543Y17313D01*
Y17447D01*
X8510Y17480D01*
X8410D01*
X19910Y27980D02*
Y27780D01*
X20010D01*
X20043Y27813D01*
Y27947D01*
X20010Y27980D01*
X19910D01*
Y28480D02*
Y28280D01*
X20010D01*
X20043Y28313D01*
Y28447D01*
X20010Y28480D01*
X19910D01*
X8410Y17230D02*
Y17030D01*
X8510D01*
X8543Y17063D01*
Y17197D01*
X8510Y17230D01*
X8410D01*
X8660D02*
Y17030D01*
X8760D01*
X8793Y17063D01*
Y17197D01*
X8760Y17230D01*
X8660D01*
X8910D02*
Y17030D01*
X9010D01*
X9043Y17063D01*
Y17197D01*
X9010Y17230D01*
X8910D01*
X16098Y16611D02*
X16065Y16645D01*
X15998D01*
X15965Y16611D01*
Y16478D01*
X15998Y16445D01*
X16065D01*
X16098Y16478D01*
X32160Y2730D02*
Y2530D01*
X32260D01*
X32293Y2563D01*
Y2697D01*
X32260Y2730D01*
X32160D01*
X34160Y1730D02*
Y1530D01*
X34260D01*
X34293Y1563D01*
Y1697D01*
X34260Y1730D01*
X34160D01*
Y4730D02*
Y4530D01*
X34260D01*
X34293Y4563D01*
Y4697D01*
X34260Y4730D01*
X34160D01*
X36160Y3730D02*
Y3530D01*
X36260D01*
X36293Y3563D01*
Y3697D01*
X36260Y3730D01*
X36160D01*
X32160Y26730D02*
Y26530D01*
X32260D01*
X32293Y26563D01*
Y26697D01*
X32260Y26730D01*
X32160D01*
X33160Y3730D02*
Y3530D01*
X33260D01*
X33293Y3563D01*
Y3697D01*
X33260Y3730D01*
X33160D01*
X35160D02*
Y3530D01*
X35260D01*
X35293Y3563D01*
Y3697D01*
X35260Y3730D01*
X35160D01*
X16093Y16877D02*
X16060Y16910D01*
X15993D01*
X15960Y16877D01*
Y16743D01*
X15993Y16710D01*
X16060D01*
X16093Y16743D01*
X160Y28730D02*
Y28530D01*
X260D01*
X293Y28563D01*
Y28697D01*
X260Y28730D01*
X160D01*
Y19730D02*
Y19530D01*
X260D01*
X293Y19563D01*
Y19697D01*
X260Y19730D01*
X160D01*
Y16730D02*
Y16530D01*
X260D01*
X293Y16563D01*
Y16697D01*
X260Y16730D01*
X160D01*
Y17730D02*
Y17530D01*
X260D01*
X293Y17563D01*
Y17697D01*
X260Y17730D01*
X160D01*
Y29730D02*
Y29530D01*
X260D01*
X293Y29563D01*
Y29697D01*
X260Y29730D01*
X160D01*
Y27730D02*
Y27530D01*
X260D01*
X293Y27563D01*
Y27697D01*
X260Y27730D01*
X160D01*
Y18730D02*
Y18530D01*
X260D01*
X293Y18563D01*
Y18697D01*
X260Y18730D01*
X160D01*
X34910Y12480D02*
Y12280D01*
X35010D01*
X35043Y12313D01*
Y12447D01*
X35010Y12480D01*
X34910D01*
Y11730D02*
Y11530D01*
X35010D01*
X35043Y11563D01*
Y11697D01*
X35010Y11730D01*
X34910D01*
Y11980D02*
Y11780D01*
X35010D01*
X35043Y11813D01*
Y11947D01*
X35010Y11980D01*
X34910D01*
Y12230D02*
Y12030D01*
X35010D01*
X35043Y12063D01*
Y12197D01*
X35010Y12230D01*
X34910D01*
X20410Y28480D02*
Y28280D01*
X20510D01*
X20543Y28313D01*
Y28447D01*
X20510Y28480D01*
X20410D01*
Y28230D02*
Y28030D01*
X20510D01*
X20543Y28063D01*
Y28197D01*
X20510Y28230D01*
X20410D01*
X28410Y13730D02*
Y13530D01*
X28510D01*
X28543Y13563D01*
Y13697D01*
X28510Y13730D01*
X28410D01*
X3160Y1730D02*
Y1530D01*
X3260D01*
X3293Y1563D01*
Y1697D01*
X3260Y1730D01*
X3160D01*
X2160Y27730D02*
Y27530D01*
X2260D01*
X2293Y27563D01*
Y27697D01*
X2260Y27730D01*
X2160D01*
X3160Y5730D02*
Y5530D01*
X3260D01*
X3293Y5563D01*
Y5697D01*
X3260Y5730D01*
X3160D01*
Y3730D02*
Y3530D01*
X3260D01*
X3293Y3563D01*
Y3697D01*
X3260Y3730D01*
X3160D01*
Y7730D02*
Y7530D01*
X3260D01*
X3293Y7563D01*
Y7697D01*
X3260Y7730D01*
X3160D01*
X2160Y31730D02*
Y31530D01*
X2260D01*
X2293Y31563D01*
Y31697D01*
X2260Y31730D01*
X2160D01*
Y30730D02*
Y30530D01*
X2260D01*
X2293Y30563D01*
Y30697D01*
X2260Y30730D01*
X2160D01*
X3160Y4730D02*
Y4530D01*
X3260D01*
X3293Y4563D01*
Y4697D01*
X3260Y4730D01*
X3160D01*
Y21730D02*
Y21530D01*
X3260D01*
X3293Y21563D01*
Y21697D01*
X3260Y21730D01*
X3160D01*
Y730D02*
Y530D01*
X3260D01*
X3293Y563D01*
Y697D01*
X3260Y730D01*
X3160D01*
Y2730D02*
Y2530D01*
X3260D01*
X3293Y2563D01*
Y2697D01*
X3260Y2730D01*
X3160D01*
X5160Y21730D02*
Y21530D01*
X5260D01*
X5293Y21563D01*
Y21697D01*
X5260Y21730D01*
X5160D01*
X4160Y23730D02*
Y23530D01*
X4260D01*
X4293Y23563D01*
Y23697D01*
X4260Y23730D01*
X4160D01*
X6160Y30730D02*
Y30530D01*
X6260D01*
X6293Y30563D01*
Y30697D01*
X6260Y30730D01*
X6160D01*
X4160Y24730D02*
Y24530D01*
X4260D01*
X4293Y24563D01*
Y24697D01*
X4260Y24730D01*
X4160D01*
X5160Y29730D02*
Y29530D01*
X5260D01*
X5293Y29563D01*
Y29697D01*
X5260Y29730D01*
X5160D01*
X4160Y31730D02*
Y31530D01*
X4260D01*
X4293Y31563D01*
Y31697D01*
X4260Y31730D01*
X4160D01*
Y21730D02*
Y21530D01*
X4260D01*
X4293Y21563D01*
Y21697D01*
X4260Y21730D01*
X4160D01*
X6160Y29730D02*
Y29530D01*
X6260D01*
X6293Y29563D01*
Y29697D01*
X6260Y29730D01*
X6160D01*
X5160Y24730D02*
Y24530D01*
X5260D01*
X5293Y24563D01*
Y24697D01*
X5260Y24730D01*
X5160D01*
X6160D02*
Y24530D01*
X6260D01*
X6293Y24563D01*
Y24697D01*
X6260Y24730D01*
X6160D01*
X4160Y8730D02*
Y8530D01*
X4260D01*
X4293Y8563D01*
Y8697D01*
X4260Y8730D01*
X4160D01*
X5160Y31730D02*
Y31530D01*
X5260D01*
X5293Y31563D01*
Y31697D01*
X5260Y31730D01*
X5160D01*
X4160Y22730D02*
Y22530D01*
X4260D01*
X4293Y22563D01*
Y22697D01*
X4260Y22730D01*
X4160D01*
X5160Y32730D02*
Y32530D01*
X5260D01*
X5293Y32563D01*
Y32697D01*
X5260Y32730D01*
X5160D01*
X4160D02*
Y32530D01*
X4260D01*
X4293Y32563D01*
Y32697D01*
X4260Y32730D01*
X4160D01*
X6160Y28730D02*
Y28530D01*
X6260D01*
X6293Y28563D01*
Y28697D01*
X6260Y28730D01*
X6160D01*
Y32730D02*
Y32530D01*
X6260D01*
X6293Y32563D01*
Y32697D01*
X6260Y32730D01*
X6160D01*
X9160D02*
Y32530D01*
X9260D01*
X9293Y32563D01*
Y32697D01*
X9260Y32730D01*
X9160D01*
X8160D02*
Y32530D01*
X8260D01*
X8293Y32563D01*
Y32697D01*
X8260Y32730D01*
X8160D01*
X14160Y24730D02*
Y24530D01*
X14260D01*
X14293Y24563D01*
Y24697D01*
X14260Y24730D01*
X14160D01*
X9160Y14730D02*
Y14530D01*
X9260D01*
X9293Y14563D01*
Y14697D01*
X9260Y14730D01*
X9160D01*
X18160Y23730D02*
Y23530D01*
X18260D01*
X18293Y23563D01*
Y23697D01*
X18260Y23730D01*
X18160D01*
X12160Y30730D02*
Y30530D01*
X12260D01*
X12293Y30563D01*
Y30697D01*
X12260Y30730D01*
X12160D01*
X6160Y31730D02*
Y31530D01*
X6260D01*
X6293Y31563D01*
Y31697D01*
X6260Y31730D01*
X6160D01*
X10160Y32730D02*
Y32530D01*
X10260D01*
X10293Y32563D01*
Y32697D01*
X10260Y32730D01*
X10160D01*
X8160Y31730D02*
Y31530D01*
X8260D01*
X8293Y31563D01*
Y31697D01*
X8260Y31730D01*
X8160D01*
Y24730D02*
Y24530D01*
X8260D01*
X8293Y24563D01*
Y24697D01*
X8260Y24730D01*
X8160D01*
X18160Y18730D02*
Y18530D01*
X18260D01*
X18293Y18563D01*
Y18697D01*
X18260Y18730D01*
X18160D01*
X7160Y24730D02*
Y24530D01*
X7260D01*
X7293Y24563D01*
Y24697D01*
X7260Y24730D01*
X7160D01*
Y23730D02*
Y23530D01*
X7260D01*
X7293Y23563D01*
Y23697D01*
X7260Y23730D01*
X7160D01*
X8160Y14730D02*
Y14530D01*
X8260D01*
X8293Y14563D01*
Y14697D01*
X8260Y14730D01*
X8160D01*
X2160Y2730D02*
Y2530D01*
X2260D01*
X2293Y2563D01*
Y2697D01*
X2260Y2730D01*
X2160D01*
X1160Y4730D02*
Y4530D01*
X1260D01*
X1293Y4563D01*
Y4697D01*
X1260Y4730D01*
X1160D01*
X2160Y5730D02*
Y5530D01*
X2260D01*
X2293Y5563D01*
Y5697D01*
X2260Y5730D01*
X2160D01*
X1160Y30730D02*
Y30530D01*
X1260D01*
X1293Y30563D01*
Y30697D01*
X1260Y30730D01*
X1160D01*
Y3730D02*
Y3530D01*
X1260D01*
X1293Y3563D01*
Y3697D01*
X1260Y3730D01*
X1160D01*
Y16730D02*
Y16530D01*
X1260D01*
X1293Y16563D01*
Y16697D01*
X1260Y16730D01*
X1160D01*
Y12730D02*
Y12530D01*
X1260D01*
X1293Y12563D01*
Y12697D01*
X1260Y12730D01*
X1160D01*
Y5730D02*
Y5530D01*
X1260D01*
X1293Y5563D01*
Y5697D01*
X1260Y5730D01*
X1160D01*
X2160Y3730D02*
Y3530D01*
X2260D01*
X2293Y3563D01*
Y3697D01*
X2260Y3730D01*
X2160D01*
X160Y31730D02*
Y31530D01*
X260D01*
X293Y31563D01*
Y31697D01*
X260Y31730D01*
X160D01*
X2160Y7730D02*
Y7530D01*
X2260D01*
X2293Y7563D01*
Y7697D01*
X2260Y7730D01*
X2160D01*
X160Y30730D02*
Y30530D01*
X260D01*
X293Y30563D01*
Y30697D01*
X260Y30730D01*
X160D01*
X2160Y4730D02*
Y4530D01*
X2260D01*
X2293Y4563D01*
Y4697D01*
X2260Y4730D01*
X2160D01*
X22410Y13480D02*
Y13280D01*
X22510D01*
X22543Y13313D01*
Y13447D01*
X22510Y13480D01*
X22410D01*
Y13730D02*
Y13530D01*
X22510D01*
X22543Y13563D01*
Y13697D01*
X22510Y13730D01*
X22410D01*
X38843Y25017D02*
X38810Y25050D01*
X38743D01*
X38710Y25017D01*
Y24883D01*
X38743Y24850D01*
X38810D01*
X38843Y24883D01*
X13133Y32976D02*
X13100Y33009D01*
X13033D01*
X13000Y32976D01*
Y32843D01*
X13033Y32809D01*
X13100D01*
X13133Y32843D01*
X12942Y21798D02*
X12909Y21831D01*
X12842D01*
X12809Y21798D01*
Y21664D01*
X12842Y21631D01*
X12909D01*
X12942Y21664D01*
X13951Y18520D02*
X13918Y18553D01*
X13851D01*
X13818Y18520D01*
Y18386D01*
X13851Y18353D01*
X13918D01*
X13951Y18386D01*
X13993Y17687D02*
X13960Y17720D01*
X13893D01*
X13860Y17687D01*
Y17553D01*
X13893Y17520D01*
X13960D01*
X13993Y17553D01*
X23353Y24697D02*
X23320Y24730D01*
X23253D01*
X23220Y24697D01*
Y24563D01*
X23253Y24530D01*
X23320D01*
X23353Y24563D01*
X23063Y24697D02*
X23030Y24730D01*
X22963D01*
X22930Y24697D01*
Y24563D01*
X22963Y24530D01*
X23030D01*
X23063Y24563D01*
X37063Y24287D02*
X37030Y24320D01*
X36963D01*
X36930Y24287D01*
Y24153D01*
X36963Y24120D01*
X37030D01*
X37063Y24153D01*
X39503Y19457D02*
X39470Y19490D01*
X39403D01*
X39370Y19457D01*
Y19323D01*
X39403Y19290D01*
X39470D01*
X39503Y19323D01*
X39843Y21367D02*
X39810Y21400D01*
X39743D01*
X39710Y21367D01*
Y21233D01*
X39743Y21200D01*
X39810D01*
X39843Y21233D01*
X45343Y21747D02*
X45310Y21780D01*
X45243D01*
X45210Y21747D01*
Y21613D01*
X45243Y21580D01*
X45310D01*
X45343Y21613D01*
X45083Y21747D02*
X45050Y21780D01*
X44983D01*
X44950Y21747D01*
Y21613D01*
X44983Y21580D01*
X45050D01*
X45083Y21613D01*
X46968Y23157D02*
X46935Y23190D01*
X46868D01*
X46835Y23157D01*
Y23023D01*
X46868Y22990D01*
X46935D01*
X46968Y23023D01*
X47453Y20777D02*
X47420Y20810D01*
X47353D01*
X47320Y20777D01*
Y20643D01*
X47353Y20610D01*
X47420D01*
X47453Y20643D01*
X46393Y15167D02*
X46360Y15200D01*
X46293D01*
X46260Y15167D01*
Y15033D01*
X46293Y15000D01*
X46360D01*
X46393Y15033D01*
X45703Y17107D02*
X45670Y17140D01*
X45604D01*
X45570Y17107D01*
Y16974D01*
X45604Y16940D01*
X45670D01*
X45703Y16974D01*
X32893Y15927D02*
X32860Y15960D01*
X32793D01*
X32760Y15927D01*
Y15793D01*
X32793Y15760D01*
X32860D01*
X32893Y15793D01*
X19453Y15957D02*
X19420Y15990D01*
X19353D01*
X19320Y15957D01*
Y15823D01*
X19353Y15790D01*
X19420D01*
X19453Y15823D01*
X25913Y15927D02*
X25880Y15960D01*
X25813D01*
X25780Y15927D01*
Y15793D01*
X25813Y15760D01*
X25880D01*
X25913Y15793D01*
X7003Y32527D02*
X6970Y32560D01*
X6903D01*
X6870Y32527D01*
Y32393D01*
X6903Y32360D01*
X6970D01*
X7003Y32393D01*
X12703Y18877D02*
X12670Y18910D01*
X12603D01*
X12570Y18877D01*
Y18743D01*
X12603Y18710D01*
X12670D01*
X12703Y18743D01*
X13043Y20267D02*
X13010Y20300D01*
X12943D01*
X12910Y20267D01*
Y20133D01*
X12943Y20100D01*
X13010D01*
X13043Y20133D01*
X1973Y18317D02*
X1940Y18350D01*
X1873D01*
X1840Y18317D01*
Y18183D01*
X1873Y18150D01*
X1940D01*
X1973Y18183D01*
X22573Y33327D02*
X22540Y33360D01*
X22473D01*
X22440Y33327D01*
Y33193D01*
X22473Y33160D01*
X22540D01*
X22573Y33193D01*
X37133Y24997D02*
X37100Y25030D01*
X37033D01*
X37000Y24997D01*
Y24863D01*
X37033Y24830D01*
X37100D01*
X37133Y24863D01*
X14353Y15767D02*
X14320Y15800D01*
X14253D01*
X14220Y15767D01*
Y15633D01*
X14253Y15600D01*
X14320D01*
X14353Y15633D01*
X24273Y16667D02*
X24240Y16700D01*
X24173D01*
X24140Y16667D01*
Y16533D01*
X24173Y16500D01*
X24240D01*
X24273Y16533D01*
X45743Y18577D02*
X45710Y18610D01*
X45643D01*
X45610Y18577D01*
Y18443D01*
X45643Y18410D01*
X45710D01*
X45743Y18443D01*
X45951Y19857D02*
X45918Y19890D01*
X45851D01*
X45818Y19857D01*
Y19723D01*
X45851Y19690D01*
X45918D01*
X45951Y19723D01*
X15410Y29230D02*
Y29030D01*
X15510D01*
X15543Y29063D01*
Y29197D01*
X15510Y29230D01*
X15410D01*
X15160D02*
Y29030D01*
X15260D01*
X15293Y29063D01*
Y29197D01*
X15260Y29230D01*
X15160D01*
X14910D02*
Y29030D01*
X15010D01*
X15043Y29063D01*
Y29197D01*
X15010Y29230D01*
X14910D01*
X14660D02*
Y29030D01*
X14760D01*
X14793Y29063D01*
Y29197D01*
X14760Y29230D01*
X14660D01*
X12410Y27480D02*
Y27280D01*
X12510D01*
X12543Y27313D01*
Y27447D01*
X12510Y27480D01*
X12410D01*
X12160D02*
Y27280D01*
X12260D01*
X12293Y27313D01*
Y27447D01*
X12260Y27480D01*
X12160D01*
X11910D02*
Y27280D01*
X12010D01*
X12043Y27313D01*
Y27447D01*
X12010Y27480D01*
X11910D01*
X12410Y25730D02*
Y25530D01*
X12510D01*
X12543Y25563D01*
Y25697D01*
X12510Y25730D01*
X12410D01*
X12160D02*
Y25530D01*
X12260D01*
X12293Y25563D01*
Y25697D01*
X12260Y25730D01*
X12160D01*
X11663Y25797D02*
X11630Y25830D01*
X11563D01*
X11530Y25797D01*
Y25663D01*
X11563Y25630D01*
X11630D01*
X11663Y25663D01*
Y27457D02*
X11630Y27490D01*
X11563D01*
X11530Y27457D01*
Y27323D01*
X11563Y27290D01*
X11630D01*
X11663Y27323D01*
X19923Y21627D02*
X19890Y21660D01*
X19823D01*
X19790Y21627D01*
Y21494D01*
X19823Y21460D01*
X19890D01*
X19923Y21494D01*
X19418Y22077D02*
X19385Y22110D01*
X19318D01*
X19285Y22077D01*
Y21943D01*
X19318Y21910D01*
X19385D01*
X19418Y21943D01*
X11893Y15287D02*
X11860Y15320D01*
X11793D01*
X11760Y15287D01*
Y15153D01*
X11793Y15120D01*
X11860D01*
X11893Y15153D01*
X4173Y16221D02*
X4140Y16254D01*
X4073D01*
X4040Y16221D01*
Y16087D01*
X4073Y16054D01*
X4140D01*
X4173Y16087D01*
X27103Y24397D02*
X27070Y24430D01*
X27003D01*
X26970Y24397D01*
Y24263D01*
X27003Y24230D01*
X27070D01*
X27103Y24263D01*
X39833Y20667D02*
X39800Y20700D01*
X39733D01*
X39700Y20667D01*
Y20533D01*
X39733Y20500D01*
X39800D01*
X39833Y20533D01*
X42108Y19687D02*
X42075Y19720D01*
X42008D01*
X41975Y19687D01*
Y19553D01*
X42008Y19520D01*
X42075D01*
X42108Y19553D01*
X14253Y25907D02*
X14220Y25940D01*
X14153D01*
X14120Y25907D01*
Y25773D01*
X14153Y25740D01*
X14220D01*
X14253Y25773D01*
X6929Y16017D02*
X6895Y16050D01*
X6829D01*
X6795Y16017D01*
Y15883D01*
X6829Y15850D01*
X6895D01*
X6929Y15883D01*
X41033Y22057D02*
X41000Y22090D01*
X40933D01*
X40900Y22057D01*
Y21923D01*
X40933Y21890D01*
X41000D01*
X41033Y21923D01*
X39833Y20647D02*
X39800Y20680D01*
X39733D01*
X39700Y20647D01*
Y20513D01*
X39733Y20480D01*
X39800D01*
X39833Y20513D01*
X43213Y21777D02*
X43180Y21810D01*
X43113D01*
X43080Y21777D01*
Y21643D01*
X43113Y21610D01*
X43180D01*
X43213Y21643D01*
X41823Y21577D02*
X41790Y21610D01*
X41723D01*
X41690Y21577D01*
Y21443D01*
X41723Y21410D01*
X41790D01*
X41823Y21443D01*
X44813Y21749D02*
X44780Y21783D01*
X44713D01*
X44680Y21749D01*
Y21616D01*
X44713Y21583D01*
X44780D01*
X44813Y21616D01*
X46363Y27922D02*
X46330Y27955D01*
X46263D01*
X46230Y27922D01*
Y27789D01*
X46263Y27755D01*
X46330D01*
X46363Y27789D01*
X32433Y27037D02*
X32400Y27070D01*
X32333D01*
X32300Y27037D01*
Y26903D01*
X32333Y26870D01*
X32400D01*
X32433Y26903D01*
X26459Y22451D02*
X26426Y22484D01*
X26359D01*
X26326Y22451D01*
Y22318D01*
X26359Y22284D01*
X26426D01*
X26459Y22318D01*
X26163Y24282D02*
X26130Y24315D01*
X26063D01*
X26030Y24282D01*
Y24149D01*
X26063Y24115D01*
X26130D01*
X26163Y24149D01*
X11203Y28987D02*
X11170Y29020D01*
X11103D01*
X11070Y28987D01*
Y28853D01*
X11103Y28820D01*
X11170D01*
X11203Y28853D01*
X11299Y31797D02*
X11266Y31830D01*
X11199D01*
X11166Y31797D01*
Y31663D01*
X11199Y31630D01*
X11266D01*
X11299Y31663D01*
X9693Y21127D02*
X9660Y21160D01*
X9593D01*
X9560Y21127D01*
Y20993D01*
X9593Y20960D01*
X9660D01*
X9693Y20993D01*
X18253Y23277D02*
X18220Y23310D01*
X18153D01*
X18120Y23277D01*
Y23143D01*
X18153Y23110D01*
X18220D01*
X18253Y23143D01*
X16233Y25967D02*
X16200Y26000D01*
X16133D01*
X16100Y25967D01*
Y25833D01*
X16133Y25800D01*
X16200D01*
X16233Y25833D01*
X13913Y30187D02*
X13880Y30220D01*
X13813D01*
X13780Y30187D01*
Y30053D01*
X13813Y30020D01*
X13880D01*
X13913Y30053D01*
X9073Y25987D02*
X9040Y26020D01*
X8973D01*
X8940Y25987D01*
Y25853D01*
X8973Y25820D01*
X9040D01*
X9073Y25853D01*
X6058Y19571D02*
X6025Y19605D01*
X5959D01*
X5925Y19571D01*
Y19438D01*
X5959Y19405D01*
X6025D01*
X6058Y19438D01*
X4253Y18907D02*
X4220Y18940D01*
X4153D01*
X4120Y18907D01*
Y18773D01*
X4153Y18740D01*
X4220D01*
X4253Y18773D01*
X4043Y20777D02*
X4010Y20810D01*
X3943D01*
X3910Y20777D01*
Y20643D01*
X3943Y20610D01*
X4010D01*
X4043Y20643D01*
X19563Y22407D02*
X19530Y22440D01*
X19463D01*
X19430Y22407D01*
Y22273D01*
X19463Y22240D01*
X19530D01*
X19563Y22273D01*
X10883Y26907D02*
X10850Y26940D01*
X10783D01*
X10750Y26907D01*
Y26773D01*
X10783Y26740D01*
X10850D01*
X10883Y26773D01*
X10893Y25037D02*
X10860Y25070D01*
X10793D01*
X10760Y25037D01*
Y24903D01*
X10793Y24870D01*
X10860D01*
X10893Y24903D01*
X11203Y13787D02*
X11170Y13820D01*
X11103D01*
X11070Y13787D01*
Y13653D01*
X11103Y13620D01*
X11170D01*
X11203Y13653D01*
X28613Y13177D02*
X28580Y13210D01*
X28513D01*
X28480Y13177D01*
Y13043D01*
X28513Y13010D01*
X28580D01*
X28613Y13043D01*
X6043Y16337D02*
X6010Y16370D01*
X5943D01*
X5910Y16337D01*
Y16203D01*
X5943Y16170D01*
X6010D01*
X6043Y16203D01*
X18003Y25497D02*
X17970Y25530D01*
X17903D01*
X17870Y25497D01*
Y25363D01*
X17903Y25330D01*
X17970D01*
X18003Y25363D01*
X17703Y25107D02*
X17670Y25140D01*
X17603D01*
X17570Y25107D01*
Y24973D01*
X17603Y24940D01*
X17670D01*
X17703Y24973D01*
X24223Y22397D02*
X24190Y22430D01*
X24123D01*
X24090Y22397D01*
Y22263D01*
X24123Y22230D01*
X24190D01*
X24223Y22263D01*
X16653Y25897D02*
X16620Y25930D01*
X16553D01*
X16520Y25897D01*
Y25763D01*
X16553Y25730D01*
X16620D01*
X16653Y25763D01*
X18733Y20187D02*
X18700Y20220D01*
X18633D01*
X18600Y20187D01*
Y20053D01*
X18633Y20020D01*
X18700D01*
X18733Y20053D01*
X42660Y9730D02*
Y9530D01*
X42760D01*
X42793Y9563D01*
Y9697D01*
X42760Y9730D01*
X42660D01*
Y9480D02*
Y9280D01*
X42760D01*
X42793Y9313D01*
Y9447D01*
X42760Y9480D01*
X42660D01*
X42410Y9730D02*
Y9530D01*
X42510D01*
X42543Y9563D01*
Y9697D01*
X42510Y9730D01*
X42410D01*
Y9480D02*
Y9280D01*
X42510D01*
X42543Y9313D01*
Y9447D01*
X42510Y9480D01*
X42410D01*
X42160Y9730D02*
Y9530D01*
X42260D01*
X42293Y9563D01*
Y9697D01*
X42260Y9730D01*
X42160D01*
Y9480D02*
Y9280D01*
X42260D01*
X42293Y9313D01*
Y9447D01*
X42260Y9480D01*
X42160D01*
X41910Y9730D02*
Y9530D01*
X42010D01*
X42043Y9563D01*
Y9697D01*
X42010Y9730D01*
X41910D01*
Y9480D02*
Y9280D01*
X42010D01*
X42043Y9313D01*
Y9447D01*
X42010Y9480D01*
X41910D01*
X41660Y9730D02*
Y9530D01*
X41760D01*
X41793Y9563D01*
Y9697D01*
X41760Y9730D01*
X41660D01*
Y9480D02*
Y9280D01*
X41760D01*
X41793Y9313D01*
Y9447D01*
X41760Y9480D01*
X41660D01*
X30923Y16767D02*
X30890Y16800D01*
X30823D01*
X30790Y16767D01*
Y16633D01*
X30823Y16600D01*
X30890D01*
X30923Y16633D01*
X37283Y16687D02*
X37250Y16720D01*
X37183D01*
X37150Y16687D01*
Y16553D01*
X37183Y16520D01*
X37250D01*
X37283Y16553D01*
X23553Y31917D02*
X23520Y31950D01*
X23453D01*
X23420Y31917D01*
Y31783D01*
X23453Y31750D01*
X23520D01*
X23553Y31783D01*
X45913Y21327D02*
X45880Y21360D01*
X45813D01*
X45780Y21327D01*
Y21193D01*
X45813Y21160D01*
X45880D01*
X45913Y21193D01*
X39043Y20967D02*
X39010Y21000D01*
X38943D01*
X38910Y20967D01*
Y20833D01*
X38943Y20800D01*
X39010D01*
X39043Y20833D01*
X39063Y19247D02*
X39030Y19280D01*
X38963D01*
X38930Y19247D01*
Y19113D01*
X38963Y19080D01*
X39030D01*
X39063Y19113D01*
X42895Y21289D02*
X42862Y21322D01*
X42795D01*
X42762Y21289D01*
Y21155D01*
X42795Y21122D01*
X42862D01*
X42895Y21155D01*
X24043Y25697D02*
X24010Y25730D01*
X23943D01*
X23910Y25697D01*
Y25563D01*
X23943Y25530D01*
X24010D01*
X24043Y25563D01*
X23793Y25697D02*
X23760Y25730D01*
X23693D01*
X23660Y25697D01*
Y25563D01*
X23693Y25530D01*
X23760D01*
X23793Y25563D01*
X23543Y25697D02*
X23510Y25730D01*
X23443D01*
X23410Y25697D01*
Y25563D01*
X23443Y25530D01*
X23510D01*
X23543Y25563D01*
X23293Y25697D02*
X23260Y25730D01*
X23193D01*
X23160Y25697D01*
Y25563D01*
X23193Y25530D01*
X23260D01*
X23293Y25563D01*
X23043Y25697D02*
X23010Y25730D01*
X22943D01*
X22910Y25697D01*
Y25563D01*
X22943Y25530D01*
X23010D01*
X23043Y25563D01*
X12963Y30887D02*
X12930Y30920D01*
X12863D01*
X12830Y30887D01*
Y30753D01*
X12863Y30720D01*
X12930D01*
X12963Y30753D01*
X3684Y16648D02*
X3651Y16681D01*
X3584D01*
X3551Y16648D01*
Y16514D01*
X3584Y16481D01*
X3651D01*
X3684Y16514D01*
X4173Y17747D02*
X4140Y17780D01*
X4073D01*
X4040Y17747D01*
Y17613D01*
X4073Y17580D01*
X4140D01*
X4173Y17613D01*
X3693Y18042D02*
X3660Y18075D01*
X3593D01*
X3560Y18042D01*
Y17908D01*
X3593Y17875D01*
X3660D01*
X3693Y17908D01*
X45543Y25207D02*
X45510Y25240D01*
X45443D01*
X45410Y25207D01*
Y25073D01*
X45443Y25040D01*
X45510D01*
X45543Y25073D01*
X45563Y22367D02*
X45530Y22400D01*
X45463D01*
X45430Y22367D01*
Y22233D01*
X45463Y22200D01*
X45530D01*
X45563Y22233D01*
X42763Y24927D02*
X42730Y24960D01*
X42663D01*
X42630Y24927D01*
Y24793D01*
X42663Y24760D01*
X42730D01*
X42763Y24793D01*
X40063Y25067D02*
X40030Y25100D01*
X39963D01*
X39930Y25067D01*
Y24933D01*
X39963Y24900D01*
X40030D01*
X40063Y24933D01*
X41993Y24882D02*
X41960Y24915D01*
X41893D01*
X41860Y24882D01*
Y24748D01*
X41893Y24715D01*
X41960D01*
X41993Y24748D01*
X44585Y23103D02*
X44551Y23136D01*
X44485D01*
X44451Y23103D01*
Y22969D01*
X44485Y22936D01*
X44551D01*
X44585Y22969D01*
X39403Y23087D02*
X39370Y23120D01*
X39303D01*
X39270Y23087D01*
Y22953D01*
X39303Y22920D01*
X39370D01*
X39403Y22953D01*
X42505Y23099D02*
X42472Y23132D01*
X42405D01*
X42372Y23099D01*
Y22965D01*
X42405Y22932D01*
X42472D01*
X42505Y22965D01*
X44963Y18747D02*
X44930Y18780D01*
X44863D01*
X44830Y18747D01*
Y18613D01*
X44863Y18580D01*
X44930D01*
X44963Y18613D01*
X44993Y19267D02*
X44960Y19300D01*
X44893D01*
X44860Y19267D01*
Y19133D01*
X44893Y19100D01*
X44960D01*
X44993Y19133D01*
X44513Y18217D02*
X44480Y18250D01*
X44413D01*
X44380Y18217D01*
Y18083D01*
X44413Y18050D01*
X44480D01*
X44513Y18083D01*
X44263Y17877D02*
X44230Y17910D01*
X44163D01*
X44130Y17877D01*
Y17743D01*
X44163Y17710D01*
X44230D01*
X44263Y17743D01*
X13097Y28317D02*
X13064Y28350D01*
X12997D01*
X12964Y28317D01*
Y28183D01*
X12997Y28150D01*
X13064D01*
X13097Y28183D01*
X13093Y27477D02*
X13060Y27510D01*
X12993D01*
X12960Y27477D01*
Y27343D01*
X12993Y27310D01*
X13060D01*
X13093Y27343D01*
X17183Y24427D02*
X17150Y24460D01*
X17083D01*
X17050Y24427D01*
Y24293D01*
X17083Y24260D01*
X17150D01*
X17183Y24293D01*
X43603Y17167D02*
X43570Y17200D01*
X43503D01*
X43470Y17167D01*
Y17033D01*
X43503Y17000D01*
X43570D01*
X43603Y17033D01*
X44653Y17477D02*
X44620Y17510D01*
X44553D01*
X44520Y17477D01*
Y17343D01*
X44553Y17310D01*
X44620D01*
X44653Y17343D01*
X9113Y28747D02*
X9080Y28780D01*
X9013D01*
X8980Y28747D01*
Y28613D01*
X9013Y28580D01*
X9080D01*
X9113Y28613D01*
X41963Y23077D02*
X41930Y23110D01*
X41863D01*
X41830Y23077D01*
Y22943D01*
X41863Y22910D01*
X41930D01*
X41963Y22943D01*
X42963Y23057D02*
X42930Y23090D01*
X42863D01*
X42830Y23057D01*
Y22923D01*
X42863Y22890D01*
X42930D01*
X42963Y22923D01*
X7845Y30790D02*
X7925Y30870D01*
X8005Y30790D01*
X7925Y30710D01*
X7845Y30790D01*
X4892Y30710D02*
X4932Y30790D01*
X4892Y30870D01*
X4972Y30830D01*
X5052Y30870D01*
X5012Y30790D01*
X5052Y30710D01*
X4972Y30750D01*
X4892Y30710D01*
X4932Y30750D02*
X4952Y30790D01*
X4932Y30830D01*
X4972Y30810D01*
X5012Y30830D01*
X4992Y30790D01*
X5012Y30750D01*
X4972Y30770D01*
X4932Y30750D01*
D159*
X34830Y31200D02*
G03*
X34830Y31200I-80J0D01*
G01*
X36723Y29528D02*
G03*
X36723Y29528I-80J0D01*
G01*
X26930Y30050D02*
G03*
X26930Y30050I-80J0D01*
G01*
X29930D02*
G03*
X29930Y30050I-80J0D01*
G01*
D160*
X26890D02*
G03*
X26890Y30050I-40J0D01*
G01*
X29890D02*
G03*
X29890Y30050I-40J0D01*
G01*
M02*
