M48
;Layer_Color=9474304
;FILE_FORMAT=2:4
INCH,TZ
;TYPE=PLATED
T1F00S00C0.0100
T2F00S00C0.0150
T3F00S00C0.0280
T4F00S00C0.0315
T6F00S00C0.0354
T7F00S00C0.0394
T9F00S00C0.0433
T10F00S00C0.0500
T11F00S00C0.0512
T12F00S00C0.0551
T13F00S00C0.0669
T14F00S00C0.0950
T15F00S00C0.1181
;TYPE=NON_PLATED
T16F00S00C0.1299
%
T01
X160Y2530
Y3530
Y4530
Y5530
X1160
Y4530
Y3530
X2160
X3160
X4160
Y2530
Y1530
Y530
X3160
Y1530
Y2530
X2160
Y4530
X3160
X4160
Y5530
X3160
X2160
Y7530
X3160
X4160
Y8530
X160Y7530
Y9530
Y11530
X34910
Y11780
Y12030
Y12280
X37160Y9530
Y8530
Y7530
X36160Y3530
X35160
X34160Y4530
X33160Y3530
X32160Y2530
Y1530
X34160
X39160
Y2530
Y3530
X40160
X41160
Y4530
X42160
X43160
Y3530
Y2530
Y1530
X44160Y530
X45160Y2530
Y3530
Y4530
X46160
Y3530
Y6530
X45160
Y7530
Y8530
X44160
X43160
X42160
Y9280
X42410
X42660
Y9530
X42410
X42160
X41910
Y9280
X41660
Y9530
X40160Y8530
Y7530
X39160
X38160
Y8530
Y9530
Y10530
Y11530
X39160
Y10530
Y9530
Y8530
X46160
Y7530
Y11530
X45160
X41160Y2530
Y1530
X42160Y12530
Y13530
X43160
Y12530
X44160
X45160
Y13530
X44160
X46160
Y12530
X39160
X38160
X43160Y19530
X45160Y25530
Y26530
X46160
Y25530
X45160Y27530
X37160Y24530
Y22530
Y21530
Y20530
X36160
X37160Y19530
X27160
Y20530
X24160
Y19530
X22910Y13530
Y13280
X22660
Y13530
X22410
X22160
X22410Y13280
X28410Y13530
X28660
X28910
X29160
X31160Y26530
X32160
X20410Y27780
X20160
X19910
X18160Y23530
X14160Y24530
X12410Y25530
X12160
Y27280
X12410
X11910
X8160Y24530
X7160
X6160
X7160Y23530
X8410Y17280
X8660
X8910
Y17030
X8660
X8410
X8160Y14530
X9160
X18160Y18530
X5160Y21530
X4160
X3160
Y22530
Y23530
Y24530
X4160
Y23530
Y22530
X5160Y24530
X2160Y27530
X160
Y19530
Y18530
Y17530
Y16530
Y15530
Y14530
Y13530
Y12530
X1160
Y16530
X160Y28530
Y29530
Y30530
X1160
X2160
Y31530
X3160
Y32530
X4160
Y31530
X5160
Y32530
Y29530
X160Y31530
X6160
Y30530
Y29530
Y28530
Y32530
X8160
X9160
X10160
X8160Y31530
X12160Y30530
X14660Y29030
X14910
X15160
X15410
X19910Y28280
X20160
Y28030
X19910
X20410
Y28280
X26160Y31530
X27160
Y32530
X26160
X37160Y28530
X38160Y31530
Y32530
X45160Y29530
X46160
T02
X1910Y7050
X1875Y8980
X2010Y11540
X1550Y11610
X800Y11030
X2840Y10880
X3390Y11400
X4550Y10960
X4710Y9720
X8000Y11820
X28650Y11490
X33780Y10950
X34985Y11000
Y10120
X37710Y5970
X38930Y19080
X39370Y19290
X39700Y20480
Y20500
X39710Y21200
X38910Y20800
X39270Y22920
X38710Y24850
X39930Y24900
X41860Y24715
X42630Y24760
X42830Y22890
X42372Y22932
X41830Y22910
X41690Y21410
X40900Y21890
X43080Y21610
X42762Y21122
X44680Y21583
X44950Y21580
X45210
X45430Y22200
X45780Y21160
X45818Y19690
X45610Y18410
X44830Y18580
X44860Y19100
X44380Y18050
X44130Y17710
X44520Y17310
X43470Y17000
X45570Y16940
X46260Y15000
X47320Y20610
X46835Y22990
X44451Y22936
X45410Y25040
X46230Y27755
X41975Y19520
X37150Y16520
X32760Y15760
X30790Y16600
X25780Y15760
X24140Y16500
X24090Y22230
X26326Y22284
X26030Y24115
X26970Y24230
X23220Y24530
X22930
X22910Y25530
X23160
X23410
X23660
X23910
X32300Y26870
X37000Y24830
X36930Y24120
X28480Y13010
X22030Y12560
X18570Y13740
X19320Y15790
X15965Y16445
X15695
Y16715
X15960Y16710
X14220Y15600
X13860Y17520
X13818Y18353
X12570Y18710
X12910Y20100
X12809Y21631
X9560Y20960
X10760Y24870
X11530Y25630
Y27290
X10750Y26740
X8940Y25820
X14120Y25740
X16100Y25800
X16520Y25730
X17870Y25330
X17570Y24940
X17050Y24260
X18120Y23110
X19430Y22240
X19285Y21910
X19790Y21460
X18600Y20020
X15530Y13025
X14850Y13020
X11070Y13620
X11760Y15120
X11970Y15750
X6795Y15850
X7800Y12490
X8950Y13180
X12960Y27310
X5925Y19405
X4120Y18740
X4040Y17580
X3560Y17875
X3551Y16481
X4040Y16054
X5910Y16170
X1840Y18150
X3910Y20610
X3395Y12561
X8980Y28580
X11070Y28820
X12964Y28150
X13780Y30020
X12830Y30720
X13000Y32809
X11166Y31630
X6870Y32360
X22440Y33160
X23420Y31750
T03
X21150Y18530
Y19530
T04
X44340Y6650
Y7650
Y9650
Y11650
T06
X800Y14080
Y15080
Y16080
Y17210
Y18210
Y19210
Y27850
Y28850
Y29850
T07
X39732Y26140
X40732
X41732
X42732
X43232Y27140
X42232
X41232
X40232
T09
X4972Y30790
X38872Y31569
X39872
X43088
X44088
T10
X5560Y2090
X7560
X9905
X11905
X14250
X16250
X18595
X20595
X22940
X24940
X31373Y2100
X33373
X35717
X37717
X40060
X42060
T11
X9110Y4860
Y7860
Y11860
X12110
X14360
X17360
X19610
Y7860
Y4860
X17360Y5860
X14360Y4860
Y7860
X12110Y5860
X22610
X24860Y4860
Y7860
Y11860
X22610
X27860
X30110
X33110
Y5860
X30110Y4860
Y7860
X27860Y5860
X7925Y30790
T12
X34768Y28717
T13
X34768Y32516
T14
X26850Y30050
X29850
T15
X1184Y1180
X46460
X1184Y32676
X46471Y32690
T16
X39230Y29640
X43730
M30
