G04*
G04 #@! TF.GenerationSoftware,Altium Limited,Altium Designer,20.2.6 (244)*
G04*
G04 Layer_Color=16711935*
%FSLAX24Y24*%
%MOIN*%
G70*
G04*
G04 #@! TF.SameCoordinates,6B0B31F8-34BC-4807-AF79-D9433D138100*
G04*
G04*
G04 #@! TF.FilePolarity,Positive*
G04*
G01*
G75*
%ADD11C,0.0079*%
G36*
X21135Y8927D02*
X21181D01*
Y8903D01*
X21135D01*
Y8820D01*
X21113D01*
X20989Y8908D01*
Y8927D01*
X21113D01*
Y8953D01*
X21135D01*
Y8927D01*
D02*
G37*
G36*
X21095Y8804D02*
X21098D01*
X21102Y8804D01*
X21106Y8803D01*
X21115Y8803D01*
X21124Y8801D01*
X21133Y8800D01*
X21137Y8798D01*
X21141Y8797D01*
X21141D01*
X21142Y8797D01*
X21143Y8796D01*
X21144Y8796D01*
X21146Y8795D01*
X21148Y8794D01*
X21153Y8792D01*
X21158Y8789D01*
X21163Y8785D01*
X21168Y8781D01*
X21173Y8776D01*
Y8776D01*
X21174Y8776D01*
X21174Y8775D01*
X21175Y8774D01*
X21176Y8772D01*
X21177Y8771D01*
X21179Y8767D01*
X21181Y8762D01*
X21182Y8756D01*
X21184Y8749D01*
X21184Y8742D01*
Y8739D01*
X21184Y8737D01*
X21184Y8735D01*
X21183Y8732D01*
X21182Y8729D01*
X21182Y8726D01*
X21181Y8722D01*
X21179Y8719D01*
X21178Y8715D01*
X21176Y8712D01*
X21174Y8708D01*
X21171Y8704D01*
X21168Y8701D01*
X21164Y8698D01*
X21164Y8698D01*
X21163Y8697D01*
X21162Y8696D01*
X21160Y8695D01*
X21157Y8694D01*
X21154Y8692D01*
X21150Y8690D01*
X21146Y8689D01*
X21141Y8687D01*
X21135Y8685D01*
X21128Y8684D01*
X21121Y8682D01*
X21113Y8681D01*
X21105Y8680D01*
X21096Y8679D01*
X21086Y8679D01*
X21086D01*
X21085D01*
X21083D01*
X21081D01*
X21078Y8679D01*
X21074D01*
X21071Y8680D01*
X21067Y8680D01*
X21058Y8681D01*
X21049Y8682D01*
X21040Y8684D01*
X21036Y8685D01*
X21031Y8686D01*
X21031D01*
X21031Y8686D01*
X21030Y8687D01*
X21028Y8687D01*
X21026Y8688D01*
X21024Y8689D01*
X21020Y8691D01*
X21015Y8694D01*
X21009Y8698D01*
X21004Y8702D01*
X21000Y8707D01*
Y8707D01*
X20999Y8707D01*
X20999Y8708D01*
X20998Y8709D01*
X20997Y8711D01*
X20996Y8712D01*
X20994Y8716D01*
X20992Y8721D01*
X20990Y8727D01*
X20989Y8734D01*
X20988Y8742D01*
Y8744D01*
X20989Y8747D01*
X20989Y8751D01*
X20990Y8755D01*
X20991Y8759D01*
X20992Y8764D01*
X20995Y8769D01*
Y8769D01*
X20995Y8769D01*
X20996Y8771D01*
X20997Y8773D01*
X20999Y8776D01*
X21002Y8779D01*
X21005Y8782D01*
X21008Y8785D01*
X21013Y8788D01*
X21013Y8788D01*
X21015Y8789D01*
X21017Y8790D01*
X21021Y8792D01*
X21025Y8794D01*
X21030Y8796D01*
X21035Y8798D01*
X21041Y8800D01*
X21041D01*
X21042Y8800D01*
X21043Y8800D01*
X21044Y8801D01*
X21046Y8801D01*
X21048Y8801D01*
X21050Y8802D01*
X21053Y8802D01*
X21056Y8803D01*
X21059Y8803D01*
X21063Y8803D01*
X21067Y8804D01*
X21072Y8804D01*
X21076D01*
X21081Y8804D01*
X21086D01*
X21087D01*
X21088D01*
X21090D01*
X21092D01*
X21095Y8804D01*
D02*
G37*
G36*
X21181Y8527D02*
X21181D01*
X21179D01*
X21178D01*
X21176Y8527D01*
X21173Y8527D01*
X21170Y8528D01*
X21167Y8528D01*
X21164Y8530D01*
X21164D01*
X21164Y8530D01*
X21162Y8530D01*
X21160Y8531D01*
X21156Y8533D01*
X21153Y8535D01*
X21148Y8538D01*
X21144Y8541D01*
X21139Y8545D01*
X21139D01*
X21138Y8546D01*
X21137Y8547D01*
X21134Y8549D01*
X21131Y8553D01*
X21126Y8557D01*
X21122Y8562D01*
X21116Y8569D01*
X21110Y8576D01*
X21110Y8576D01*
X21109Y8577D01*
X21108Y8579D01*
X21106Y8581D01*
X21104Y8583D01*
X21101Y8586D01*
X21099Y8589D01*
X21095Y8593D01*
X21089Y8600D01*
X21082Y8607D01*
X21079Y8610D01*
X21076Y8613D01*
X21072Y8616D01*
X21069Y8618D01*
X21069D01*
X21069Y8619D01*
X21068Y8619D01*
X21067Y8620D01*
X21064Y8622D01*
X21060Y8624D01*
X21056Y8626D01*
X21051Y8628D01*
X21046Y8629D01*
X21041Y8630D01*
X21041D01*
X21040D01*
X21039Y8629D01*
X21036Y8629D01*
X21033Y8628D01*
X21029Y8627D01*
X21025Y8625D01*
X21021Y8623D01*
X21017Y8619D01*
X21017Y8619D01*
X21016Y8617D01*
X21014Y8615D01*
X21012Y8612D01*
X21011Y8608D01*
X21009Y8604D01*
X21008Y8599D01*
X21008Y8593D01*
Y8591D01*
X21008Y8590D01*
X21008Y8587D01*
X21009Y8583D01*
X21010Y8579D01*
X21012Y8574D01*
X21015Y8570D01*
X21018Y8566D01*
X21018Y8565D01*
X21020Y8564D01*
X21022Y8562D01*
X21025Y8561D01*
X21029Y8559D01*
X21034Y8557D01*
X21040Y8556D01*
X21046Y8555D01*
X21044Y8531D01*
X21043D01*
X21043Y8531D01*
X21041D01*
X21039Y8532D01*
X21037Y8532D01*
X21035Y8533D01*
X21031Y8534D01*
X21028Y8535D01*
X21022Y8537D01*
X21015Y8540D01*
X21012Y8542D01*
X21008Y8544D01*
X21005Y8547D01*
X21003Y8550D01*
X21002Y8550D01*
X21002Y8551D01*
X21001Y8551D01*
X21000Y8553D01*
X20999Y8554D01*
X20998Y8556D01*
X20997Y8559D01*
X20995Y8561D01*
X20994Y8564D01*
X20993Y8568D01*
X20992Y8571D01*
X20990Y8575D01*
X20990Y8579D01*
X20989Y8584D01*
X20989Y8589D01*
X20988Y8594D01*
Y8596D01*
X20989Y8598D01*
X20989Y8600D01*
X20989Y8603D01*
X20990Y8606D01*
X20990Y8609D01*
X20992Y8616D01*
X20995Y8624D01*
X20997Y8627D01*
X20999Y8631D01*
X21001Y8634D01*
X21004Y8637D01*
X21004Y8638D01*
X21004Y8638D01*
X21005Y8639D01*
X21007Y8640D01*
X21008Y8641D01*
X21010Y8643D01*
X21012Y8644D01*
X21014Y8646D01*
X21020Y8648D01*
X21026Y8651D01*
X21030Y8652D01*
X21033Y8653D01*
X21037Y8653D01*
X21041Y8654D01*
X21042D01*
X21043D01*
X21046Y8653D01*
X21049Y8653D01*
X21052Y8653D01*
X21056Y8651D01*
X21060Y8650D01*
X21064Y8649D01*
X21065Y8648D01*
X21066Y8648D01*
X21068Y8647D01*
X21071Y8645D01*
X21075Y8643D01*
X21079Y8640D01*
X21083Y8637D01*
X21088Y8633D01*
X21088Y8632D01*
X21090Y8631D01*
X21091Y8630D01*
X21093Y8628D01*
X21094Y8626D01*
X21097Y8624D01*
X21099Y8622D01*
X21101Y8619D01*
X21104Y8616D01*
X21107Y8613D01*
X21110Y8610D01*
X21114Y8606D01*
X21117Y8601D01*
X21121Y8597D01*
X21122Y8597D01*
X21122Y8596D01*
X21123Y8595D01*
X21124Y8594D01*
X21126Y8592D01*
X21127Y8590D01*
X21131Y8585D01*
X21135Y8581D01*
X21139Y8576D01*
X21143Y8572D01*
X21144Y8571D01*
X21146Y8569D01*
X21146Y8569D01*
X21147Y8568D01*
X21148Y8567D01*
X21149Y8566D01*
X21151Y8564D01*
X21153Y8563D01*
X21158Y8559D01*
Y8654D01*
X21181D01*
Y8527D01*
D02*
G37*
G36*
Y8485D02*
X21084Y8417D01*
X21114Y8385D01*
X21181D01*
Y8360D01*
X20989D01*
Y8385D01*
X21084D01*
X20989Y8480D01*
Y8515D01*
X21067Y8435D01*
X21181Y8518D01*
Y8485D01*
D02*
G37*
G36*
X10681Y8893D02*
X10531D01*
X10531Y8893D01*
X10532Y8892D01*
X10534Y8890D01*
X10536Y8887D01*
X10538Y8884D01*
X10541Y8880D01*
X10544Y8876D01*
X10547Y8871D01*
Y8871D01*
X10548Y8870D01*
X10549Y8869D01*
X10550Y8866D01*
X10552Y8862D01*
X10554Y8859D01*
X10556Y8854D01*
X10558Y8850D01*
X10559Y8846D01*
X10536D01*
Y8846D01*
X10536Y8847D01*
X10536Y8848D01*
X10535Y8849D01*
X10534Y8851D01*
X10533Y8853D01*
X10530Y8858D01*
X10527Y8863D01*
X10523Y8869D01*
X10519Y8875D01*
X10514Y8880D01*
X10514Y8881D01*
X10513Y8881D01*
X10513Y8882D01*
X10512Y8883D01*
X10509Y8885D01*
X10506Y8889D01*
X10502Y8892D01*
X10497Y8896D01*
X10493Y8899D01*
X10488Y8902D01*
Y8917D01*
X10681D01*
Y8893D01*
D02*
G37*
G36*
X10595Y8804D02*
X10598D01*
X10602Y8804D01*
X10606Y8803D01*
X10615Y8803D01*
X10624Y8801D01*
X10633Y8800D01*
X10637Y8798D01*
X10641Y8797D01*
X10641D01*
X10642Y8797D01*
X10643Y8796D01*
X10644Y8796D01*
X10646Y8795D01*
X10648Y8794D01*
X10653Y8792D01*
X10658Y8789D01*
X10663Y8785D01*
X10668Y8781D01*
X10673Y8776D01*
Y8776D01*
X10674Y8776D01*
X10674Y8775D01*
X10675Y8774D01*
X10676Y8772D01*
X10677Y8771D01*
X10679Y8767D01*
X10681Y8762D01*
X10682Y8756D01*
X10684Y8749D01*
X10684Y8742D01*
Y8739D01*
X10684Y8737D01*
X10684Y8735D01*
X10683Y8732D01*
X10682Y8729D01*
X10682Y8726D01*
X10681Y8722D01*
X10679Y8719D01*
X10678Y8715D01*
X10676Y8712D01*
X10674Y8708D01*
X10671Y8704D01*
X10668Y8701D01*
X10664Y8698D01*
X10664Y8698D01*
X10663Y8697D01*
X10662Y8696D01*
X10660Y8695D01*
X10657Y8694D01*
X10654Y8692D01*
X10650Y8690D01*
X10646Y8689D01*
X10641Y8687D01*
X10635Y8685D01*
X10628Y8684D01*
X10621Y8682D01*
X10613Y8681D01*
X10605Y8680D01*
X10596Y8679D01*
X10586Y8679D01*
X10586D01*
X10585D01*
X10583D01*
X10581D01*
X10578Y8679D01*
X10574D01*
X10571Y8680D01*
X10567Y8680D01*
X10558Y8681D01*
X10549Y8682D01*
X10540Y8684D01*
X10536Y8685D01*
X10531Y8686D01*
X10531D01*
X10531Y8686D01*
X10530Y8687D01*
X10528Y8687D01*
X10526Y8688D01*
X10524Y8689D01*
X10520Y8691D01*
X10515Y8694D01*
X10509Y8698D01*
X10504Y8702D01*
X10500Y8707D01*
Y8707D01*
X10499Y8707D01*
X10499Y8708D01*
X10498Y8709D01*
X10497Y8711D01*
X10496Y8712D01*
X10494Y8716D01*
X10492Y8721D01*
X10490Y8727D01*
X10489Y8734D01*
X10488Y8742D01*
Y8744D01*
X10489Y8747D01*
X10489Y8751D01*
X10490Y8755D01*
X10491Y8759D01*
X10492Y8764D01*
X10495Y8769D01*
Y8769D01*
X10495Y8769D01*
X10496Y8771D01*
X10497Y8773D01*
X10499Y8776D01*
X10502Y8779D01*
X10505Y8782D01*
X10508Y8785D01*
X10513Y8788D01*
X10513Y8788D01*
X10515Y8789D01*
X10517Y8790D01*
X10521Y8792D01*
X10525Y8794D01*
X10530Y8796D01*
X10535Y8798D01*
X10541Y8800D01*
X10541D01*
X10542Y8800D01*
X10543Y8800D01*
X10544Y8801D01*
X10546Y8801D01*
X10548Y8801D01*
X10550Y8802D01*
X10553Y8802D01*
X10556Y8803D01*
X10559Y8803D01*
X10563Y8803D01*
X10567Y8804D01*
X10572Y8804D01*
X10576D01*
X10581Y8804D01*
X10586D01*
X10587D01*
X10588D01*
X10590D01*
X10592D01*
X10595Y8804D01*
D02*
G37*
G36*
X10681Y8527D02*
X10681D01*
X10679D01*
X10678D01*
X10676Y8527D01*
X10673Y8527D01*
X10670Y8528D01*
X10667Y8528D01*
X10664Y8530D01*
X10664D01*
X10664Y8530D01*
X10662Y8530D01*
X10660Y8531D01*
X10656Y8533D01*
X10653Y8535D01*
X10648Y8538D01*
X10644Y8541D01*
X10639Y8545D01*
X10639D01*
X10638Y8546D01*
X10637Y8547D01*
X10634Y8549D01*
X10631Y8553D01*
X10626Y8557D01*
X10622Y8562D01*
X10616Y8569D01*
X10610Y8576D01*
X10610Y8576D01*
X10609Y8577D01*
X10608Y8579D01*
X10606Y8581D01*
X10604Y8583D01*
X10601Y8586D01*
X10599Y8589D01*
X10595Y8593D01*
X10589Y8600D01*
X10582Y8607D01*
X10579Y8610D01*
X10576Y8613D01*
X10572Y8616D01*
X10569Y8618D01*
X10569D01*
X10569Y8619D01*
X10568Y8619D01*
X10567Y8620D01*
X10564Y8622D01*
X10560Y8624D01*
X10556Y8626D01*
X10551Y8628D01*
X10546Y8629D01*
X10541Y8630D01*
X10541D01*
X10540D01*
X10539Y8629D01*
X10536Y8629D01*
X10533Y8628D01*
X10529Y8627D01*
X10525Y8625D01*
X10521Y8623D01*
X10517Y8619D01*
X10517Y8619D01*
X10516Y8617D01*
X10514Y8615D01*
X10512Y8612D01*
X10511Y8608D01*
X10509Y8604D01*
X10508Y8599D01*
X10508Y8593D01*
Y8591D01*
X10508Y8590D01*
X10508Y8587D01*
X10509Y8583D01*
X10510Y8579D01*
X10512Y8574D01*
X10515Y8570D01*
X10518Y8566D01*
X10518Y8565D01*
X10520Y8564D01*
X10522Y8562D01*
X10525Y8561D01*
X10529Y8559D01*
X10534Y8557D01*
X10540Y8556D01*
X10546Y8555D01*
X10544Y8531D01*
X10543D01*
X10543Y8531D01*
X10541D01*
X10539Y8532D01*
X10537Y8532D01*
X10535Y8533D01*
X10531Y8534D01*
X10528Y8535D01*
X10522Y8537D01*
X10515Y8540D01*
X10512Y8542D01*
X10508Y8544D01*
X10505Y8547D01*
X10503Y8550D01*
X10502Y8550D01*
X10502Y8551D01*
X10501Y8551D01*
X10500Y8553D01*
X10499Y8554D01*
X10498Y8556D01*
X10497Y8559D01*
X10495Y8561D01*
X10494Y8564D01*
X10493Y8568D01*
X10492Y8571D01*
X10490Y8575D01*
X10490Y8579D01*
X10489Y8584D01*
X10489Y8589D01*
X10488Y8594D01*
Y8596D01*
X10489Y8598D01*
X10489Y8600D01*
X10489Y8603D01*
X10490Y8606D01*
X10490Y8609D01*
X10492Y8616D01*
X10495Y8624D01*
X10497Y8627D01*
X10499Y8631D01*
X10501Y8634D01*
X10504Y8637D01*
X10504Y8638D01*
X10504Y8638D01*
X10505Y8639D01*
X10507Y8640D01*
X10508Y8641D01*
X10510Y8643D01*
X10512Y8644D01*
X10514Y8646D01*
X10520Y8648D01*
X10526Y8651D01*
X10530Y8652D01*
X10533Y8653D01*
X10537Y8653D01*
X10541Y8654D01*
X10542D01*
X10543D01*
X10546Y8653D01*
X10549Y8653D01*
X10552Y8653D01*
X10556Y8651D01*
X10560Y8650D01*
X10564Y8649D01*
X10565Y8648D01*
X10566Y8648D01*
X10568Y8647D01*
X10571Y8645D01*
X10575Y8643D01*
X10579Y8640D01*
X10583Y8637D01*
X10588Y8633D01*
X10588Y8632D01*
X10590Y8631D01*
X10591Y8630D01*
X10593Y8628D01*
X10594Y8626D01*
X10597Y8624D01*
X10599Y8622D01*
X10601Y8619D01*
X10604Y8616D01*
X10607Y8613D01*
X10610Y8610D01*
X10614Y8606D01*
X10617Y8601D01*
X10621Y8597D01*
X10622Y8597D01*
X10622Y8596D01*
X10623Y8595D01*
X10624Y8594D01*
X10626Y8592D01*
X10627Y8590D01*
X10631Y8585D01*
X10635Y8581D01*
X10639Y8576D01*
X10643Y8572D01*
X10644Y8571D01*
X10646Y8569D01*
X10646Y8569D01*
X10647Y8568D01*
X10648Y8567D01*
X10649Y8566D01*
X10651Y8564D01*
X10653Y8563D01*
X10658Y8559D01*
Y8654D01*
X10681D01*
Y8527D01*
D02*
G37*
G36*
Y8485D02*
X10584Y8417D01*
X10614Y8385D01*
X10681D01*
Y8360D01*
X10489D01*
Y8385D01*
X10584D01*
X10489Y8480D01*
Y8515D01*
X10567Y8435D01*
X10681Y8518D01*
Y8485D01*
D02*
G37*
G36*
X15931Y8825D02*
X15931D01*
X15929D01*
X15928D01*
X15926Y8825D01*
X15923Y8825D01*
X15920Y8826D01*
X15917Y8826D01*
X15914Y8828D01*
X15914D01*
X15914Y8828D01*
X15912Y8828D01*
X15910Y8830D01*
X15906Y8831D01*
X15903Y8833D01*
X15898Y8836D01*
X15894Y8839D01*
X15889Y8843D01*
X15889D01*
X15888Y8844D01*
X15887Y8845D01*
X15884Y8848D01*
X15881Y8851D01*
X15876Y8855D01*
X15872Y8861D01*
X15866Y8867D01*
X15860Y8874D01*
X15860Y8874D01*
X15859Y8875D01*
X15858Y8877D01*
X15856Y8879D01*
X15854Y8881D01*
X15851Y8884D01*
X15849Y8887D01*
X15845Y8891D01*
X15839Y8898D01*
X15832Y8905D01*
X15829Y8908D01*
X15826Y8911D01*
X15822Y8914D01*
X15819Y8916D01*
X15819D01*
X15819Y8917D01*
X15818Y8917D01*
X15817Y8918D01*
X15814Y8920D01*
X15810Y8922D01*
X15806Y8924D01*
X15801Y8926D01*
X15796Y8927D01*
X15791Y8928D01*
X15791D01*
X15790D01*
X15789Y8927D01*
X15786Y8927D01*
X15783Y8926D01*
X15779Y8925D01*
X15775Y8923D01*
X15771Y8921D01*
X15767Y8917D01*
X15767Y8917D01*
X15766Y8915D01*
X15764Y8913D01*
X15762Y8910D01*
X15761Y8907D01*
X15759Y8902D01*
X15758Y8897D01*
X15758Y8891D01*
Y8889D01*
X15758Y8888D01*
X15758Y8885D01*
X15759Y8881D01*
X15760Y8877D01*
X15762Y8872D01*
X15765Y8868D01*
X15768Y8864D01*
X15768Y8863D01*
X15770Y8862D01*
X15772Y8860D01*
X15775Y8859D01*
X15779Y8857D01*
X15784Y8855D01*
X15790Y8854D01*
X15796Y8853D01*
X15794Y8829D01*
X15793D01*
X15793Y8830D01*
X15791D01*
X15789Y8830D01*
X15787Y8830D01*
X15785Y8831D01*
X15781Y8832D01*
X15778Y8833D01*
X15772Y8835D01*
X15765Y8838D01*
X15762Y8840D01*
X15758Y8843D01*
X15755Y8845D01*
X15753Y8848D01*
X15752Y8848D01*
X15752Y8849D01*
X15751Y8849D01*
X15750Y8851D01*
X15749Y8853D01*
X15748Y8854D01*
X15747Y8857D01*
X15745Y8859D01*
X15744Y8862D01*
X15743Y8866D01*
X15742Y8869D01*
X15740Y8873D01*
X15740Y8877D01*
X15739Y8882D01*
X15739Y8887D01*
X15738Y8892D01*
Y8894D01*
X15739Y8896D01*
X15739Y8898D01*
X15739Y8901D01*
X15740Y8904D01*
X15740Y8907D01*
X15742Y8915D01*
X15745Y8922D01*
X15747Y8925D01*
X15749Y8929D01*
X15751Y8932D01*
X15754Y8935D01*
X15754Y8936D01*
X15754Y8936D01*
X15755Y8937D01*
X15757Y8938D01*
X15758Y8939D01*
X15760Y8941D01*
X15762Y8942D01*
X15764Y8944D01*
X15770Y8946D01*
X15776Y8949D01*
X15780Y8950D01*
X15783Y8951D01*
X15787Y8951D01*
X15791Y8952D01*
X15792D01*
X15793D01*
X15796Y8951D01*
X15799Y8951D01*
X15802Y8951D01*
X15806Y8949D01*
X15810Y8948D01*
X15814Y8947D01*
X15815Y8946D01*
X15816Y8946D01*
X15818Y8945D01*
X15821Y8943D01*
X15825Y8941D01*
X15829Y8938D01*
X15833Y8935D01*
X15838Y8931D01*
X15838Y8930D01*
X15840Y8929D01*
X15841Y8928D01*
X15843Y8926D01*
X15844Y8925D01*
X15847Y8922D01*
X15849Y8920D01*
X15851Y8917D01*
X15854Y8915D01*
X15857Y8911D01*
X15860Y8908D01*
X15864Y8904D01*
X15867Y8899D01*
X15871Y8895D01*
X15872Y8895D01*
X15872Y8894D01*
X15873Y8893D01*
X15874Y8892D01*
X15876Y8890D01*
X15877Y8888D01*
X15881Y8884D01*
X15885Y8879D01*
X15889Y8874D01*
X15893Y8871D01*
X15894Y8869D01*
X15896Y8867D01*
X15896Y8867D01*
X15897Y8866D01*
X15898Y8865D01*
X15899Y8864D01*
X15901Y8862D01*
X15903Y8861D01*
X15908Y8857D01*
Y8952D01*
X15931D01*
Y8825D01*
D02*
G37*
G36*
X15845Y8804D02*
X15848D01*
X15852Y8804D01*
X15856Y8803D01*
X15865Y8803D01*
X15874Y8801D01*
X15883Y8800D01*
X15887Y8798D01*
X15891Y8797D01*
X15891D01*
X15892Y8797D01*
X15893Y8796D01*
X15894Y8796D01*
X15896Y8795D01*
X15898Y8794D01*
X15903Y8792D01*
X15908Y8789D01*
X15913Y8785D01*
X15918Y8781D01*
X15923Y8776D01*
Y8776D01*
X15924Y8776D01*
X15924Y8775D01*
X15925Y8774D01*
X15926Y8772D01*
X15927Y8771D01*
X15929Y8767D01*
X15931Y8762D01*
X15932Y8756D01*
X15934Y8749D01*
X15934Y8742D01*
Y8739D01*
X15934Y8737D01*
X15934Y8735D01*
X15933Y8732D01*
X15932Y8729D01*
X15932Y8726D01*
X15931Y8722D01*
X15929Y8719D01*
X15928Y8715D01*
X15926Y8712D01*
X15924Y8708D01*
X15921Y8704D01*
X15918Y8701D01*
X15914Y8698D01*
X15914Y8698D01*
X15913Y8697D01*
X15912Y8696D01*
X15910Y8695D01*
X15907Y8694D01*
X15904Y8692D01*
X15900Y8690D01*
X15896Y8689D01*
X15891Y8687D01*
X15885Y8685D01*
X15878Y8684D01*
X15871Y8682D01*
X15863Y8681D01*
X15855Y8680D01*
X15846Y8679D01*
X15836Y8679D01*
X15836D01*
X15835D01*
X15833D01*
X15831D01*
X15828Y8679D01*
X15824D01*
X15821Y8680D01*
X15817Y8680D01*
X15808Y8681D01*
X15799Y8682D01*
X15790Y8684D01*
X15786Y8685D01*
X15781Y8686D01*
X15781D01*
X15781Y8686D01*
X15780Y8687D01*
X15778Y8687D01*
X15776Y8688D01*
X15774Y8689D01*
X15770Y8691D01*
X15765Y8694D01*
X15759Y8698D01*
X15754Y8702D01*
X15750Y8707D01*
Y8707D01*
X15749Y8707D01*
X15749Y8708D01*
X15748Y8709D01*
X15747Y8711D01*
X15746Y8712D01*
X15744Y8716D01*
X15742Y8721D01*
X15740Y8727D01*
X15739Y8734D01*
X15738Y8742D01*
Y8744D01*
X15739Y8747D01*
X15739Y8751D01*
X15740Y8755D01*
X15741Y8759D01*
X15742Y8764D01*
X15745Y8769D01*
Y8769D01*
X15745Y8769D01*
X15746Y8771D01*
X15747Y8773D01*
X15749Y8776D01*
X15752Y8779D01*
X15755Y8782D01*
X15758Y8785D01*
X15763Y8788D01*
X15763Y8788D01*
X15765Y8789D01*
X15767Y8790D01*
X15771Y8792D01*
X15775Y8794D01*
X15780Y8796D01*
X15785Y8798D01*
X15791Y8800D01*
X15791D01*
X15792Y8800D01*
X15793Y8800D01*
X15794Y8801D01*
X15796Y8801D01*
X15798Y8801D01*
X15800Y8802D01*
X15803Y8802D01*
X15806Y8803D01*
X15809Y8803D01*
X15813Y8803D01*
X15817Y8804D01*
X15822Y8804D01*
X15826D01*
X15831Y8804D01*
X15836D01*
X15837D01*
X15838D01*
X15840D01*
X15842D01*
X15845Y8804D01*
D02*
G37*
G36*
X15931Y8527D02*
X15931D01*
X15929D01*
X15928D01*
X15926Y8527D01*
X15923Y8527D01*
X15920Y8528D01*
X15917Y8528D01*
X15914Y8530D01*
X15914D01*
X15914Y8530D01*
X15912Y8530D01*
X15910Y8531D01*
X15906Y8533D01*
X15903Y8535D01*
X15898Y8538D01*
X15894Y8541D01*
X15889Y8545D01*
X15889D01*
X15888Y8546D01*
X15887Y8547D01*
X15884Y8549D01*
X15881Y8553D01*
X15876Y8557D01*
X15872Y8562D01*
X15866Y8569D01*
X15860Y8576D01*
X15860Y8576D01*
X15859Y8577D01*
X15858Y8579D01*
X15856Y8581D01*
X15854Y8583D01*
X15851Y8586D01*
X15849Y8589D01*
X15845Y8593D01*
X15839Y8600D01*
X15832Y8607D01*
X15829Y8610D01*
X15826Y8613D01*
X15822Y8616D01*
X15819Y8618D01*
X15819D01*
X15819Y8619D01*
X15818Y8619D01*
X15817Y8620D01*
X15814Y8622D01*
X15810Y8624D01*
X15806Y8626D01*
X15801Y8628D01*
X15796Y8629D01*
X15791Y8630D01*
X15791D01*
X15790D01*
X15789Y8629D01*
X15786Y8629D01*
X15783Y8628D01*
X15779Y8627D01*
X15775Y8625D01*
X15771Y8623D01*
X15767Y8619D01*
X15767Y8619D01*
X15766Y8617D01*
X15764Y8615D01*
X15762Y8612D01*
X15761Y8608D01*
X15759Y8604D01*
X15758Y8599D01*
X15758Y8593D01*
Y8591D01*
X15758Y8590D01*
X15758Y8587D01*
X15759Y8583D01*
X15760Y8579D01*
X15762Y8574D01*
X15765Y8570D01*
X15768Y8566D01*
X15768Y8565D01*
X15770Y8564D01*
X15772Y8562D01*
X15775Y8561D01*
X15779Y8559D01*
X15784Y8557D01*
X15790Y8556D01*
X15796Y8555D01*
X15794Y8531D01*
X15793D01*
X15793Y8531D01*
X15791D01*
X15789Y8532D01*
X15787Y8532D01*
X15785Y8533D01*
X15781Y8534D01*
X15778Y8535D01*
X15772Y8537D01*
X15765Y8540D01*
X15762Y8542D01*
X15758Y8544D01*
X15755Y8547D01*
X15753Y8550D01*
X15752Y8550D01*
X15752Y8551D01*
X15751Y8551D01*
X15750Y8553D01*
X15749Y8554D01*
X15748Y8556D01*
X15747Y8559D01*
X15745Y8561D01*
X15744Y8564D01*
X15743Y8568D01*
X15742Y8571D01*
X15740Y8575D01*
X15740Y8579D01*
X15739Y8584D01*
X15739Y8589D01*
X15738Y8594D01*
Y8596D01*
X15739Y8598D01*
X15739Y8600D01*
X15739Y8603D01*
X15740Y8606D01*
X15740Y8609D01*
X15742Y8616D01*
X15745Y8624D01*
X15747Y8627D01*
X15749Y8631D01*
X15751Y8634D01*
X15754Y8637D01*
X15754Y8638D01*
X15754Y8638D01*
X15755Y8639D01*
X15757Y8640D01*
X15758Y8641D01*
X15760Y8643D01*
X15762Y8644D01*
X15764Y8646D01*
X15770Y8648D01*
X15776Y8651D01*
X15780Y8652D01*
X15783Y8653D01*
X15787Y8653D01*
X15791Y8654D01*
X15792D01*
X15793D01*
X15796Y8653D01*
X15799Y8653D01*
X15802Y8653D01*
X15806Y8651D01*
X15810Y8650D01*
X15814Y8649D01*
X15815Y8648D01*
X15816Y8648D01*
X15818Y8647D01*
X15821Y8645D01*
X15825Y8643D01*
X15829Y8640D01*
X15833Y8637D01*
X15838Y8633D01*
X15838Y8632D01*
X15840Y8631D01*
X15841Y8630D01*
X15843Y8628D01*
X15844Y8626D01*
X15847Y8624D01*
X15849Y8622D01*
X15851Y8619D01*
X15854Y8616D01*
X15857Y8613D01*
X15860Y8610D01*
X15864Y8606D01*
X15867Y8601D01*
X15871Y8597D01*
X15872Y8597D01*
X15872Y8596D01*
X15873Y8595D01*
X15874Y8594D01*
X15876Y8592D01*
X15877Y8590D01*
X15881Y8585D01*
X15885Y8581D01*
X15889Y8576D01*
X15893Y8572D01*
X15894Y8571D01*
X15896Y8569D01*
X15896Y8569D01*
X15897Y8568D01*
X15898Y8567D01*
X15899Y8566D01*
X15901Y8564D01*
X15903Y8563D01*
X15908Y8559D01*
Y8654D01*
X15931D01*
Y8527D01*
D02*
G37*
G36*
Y8485D02*
X15834Y8417D01*
X15864Y8385D01*
X15931D01*
Y8360D01*
X15739D01*
Y8385D01*
X15834D01*
X15739Y8480D01*
Y8515D01*
X15817Y8435D01*
X15931Y8518D01*
Y8485D01*
D02*
G37*
G36*
X26345Y8953D02*
X26348D01*
X26352Y8953D01*
X26356Y8953D01*
X26365Y8952D01*
X26374Y8950D01*
X26383Y8949D01*
X26387Y8948D01*
X26391Y8946D01*
X26391D01*
X26392Y8946D01*
X26393Y8945D01*
X26394Y8945D01*
X26396Y8944D01*
X26398Y8943D01*
X26403Y8941D01*
X26408Y8938D01*
X26413Y8935D01*
X26418Y8930D01*
X26423Y8925D01*
Y8925D01*
X26424Y8925D01*
X26424Y8924D01*
X26425Y8923D01*
X26426Y8921D01*
X26427Y8920D01*
X26429Y8916D01*
X26431Y8911D01*
X26432Y8905D01*
X26434Y8898D01*
X26434Y8891D01*
Y8888D01*
X26434Y8886D01*
X26434Y8884D01*
X26433Y8881D01*
X26432Y8878D01*
X26432Y8875D01*
X26431Y8871D01*
X26429Y8868D01*
X26428Y8864D01*
X26426Y8861D01*
X26424Y8857D01*
X26421Y8853D01*
X26418Y8850D01*
X26414Y8847D01*
X26414Y8847D01*
X26413Y8846D01*
X26412Y8845D01*
X26410Y8844D01*
X26407Y8843D01*
X26404Y8841D01*
X26400Y8839D01*
X26396Y8838D01*
X26391Y8836D01*
X26385Y8834D01*
X26378Y8833D01*
X26371Y8831D01*
X26363Y8830D01*
X26355Y8829D01*
X26346Y8828D01*
X26336Y8828D01*
X26336D01*
X26335D01*
X26333D01*
X26331D01*
X26328Y8828D01*
X26324D01*
X26321Y8829D01*
X26317Y8829D01*
X26308Y8830D01*
X26299Y8831D01*
X26290Y8833D01*
X26286Y8834D01*
X26281Y8835D01*
X26281D01*
X26281Y8835D01*
X26280Y8836D01*
X26278Y8836D01*
X26276Y8837D01*
X26274Y8838D01*
X26270Y8840D01*
X26265Y8843D01*
X26259Y8847D01*
X26254Y8851D01*
X26250Y8856D01*
Y8856D01*
X26249Y8856D01*
X26249Y8857D01*
X26248Y8858D01*
X26247Y8860D01*
X26246Y8861D01*
X26244Y8866D01*
X26242Y8871D01*
X26240Y8876D01*
X26239Y8883D01*
X26238Y8891D01*
Y8893D01*
X26239Y8896D01*
X26239Y8900D01*
X26240Y8904D01*
X26241Y8908D01*
X26242Y8913D01*
X26245Y8918D01*
Y8918D01*
X26245Y8918D01*
X26246Y8920D01*
X26247Y8922D01*
X26249Y8925D01*
X26252Y8928D01*
X26255Y8931D01*
X26258Y8934D01*
X26263Y8937D01*
X26263Y8937D01*
X26265Y8938D01*
X26267Y8939D01*
X26271Y8941D01*
X26275Y8943D01*
X26280Y8945D01*
X26285Y8947D01*
X26291Y8949D01*
X26291D01*
X26292Y8949D01*
X26293Y8949D01*
X26294Y8950D01*
X26296Y8950D01*
X26298Y8950D01*
X26300Y8951D01*
X26303Y8951D01*
X26306Y8952D01*
X26309Y8952D01*
X26313Y8952D01*
X26317Y8953D01*
X26322Y8953D01*
X26326D01*
X26331Y8953D01*
X26336D01*
X26337D01*
X26338D01*
X26340D01*
X26342D01*
X26345Y8953D01*
D02*
G37*
G36*
Y8804D02*
X26348D01*
X26352Y8804D01*
X26356Y8803D01*
X26365Y8803D01*
X26374Y8801D01*
X26383Y8800D01*
X26387Y8798D01*
X26391Y8797D01*
X26391D01*
X26392Y8797D01*
X26393Y8796D01*
X26394Y8796D01*
X26396Y8795D01*
X26398Y8794D01*
X26403Y8792D01*
X26408Y8789D01*
X26413Y8785D01*
X26418Y8781D01*
X26423Y8776D01*
Y8776D01*
X26424Y8776D01*
X26424Y8775D01*
X26425Y8774D01*
X26426Y8772D01*
X26427Y8771D01*
X26429Y8767D01*
X26431Y8762D01*
X26432Y8756D01*
X26434Y8749D01*
X26434Y8742D01*
Y8739D01*
X26434Y8737D01*
X26434Y8735D01*
X26433Y8732D01*
X26432Y8729D01*
X26432Y8726D01*
X26431Y8722D01*
X26429Y8719D01*
X26428Y8715D01*
X26426Y8712D01*
X26424Y8708D01*
X26421Y8704D01*
X26418Y8701D01*
X26414Y8698D01*
X26414Y8698D01*
X26413Y8697D01*
X26412Y8696D01*
X26410Y8695D01*
X26407Y8694D01*
X26404Y8692D01*
X26400Y8690D01*
X26396Y8689D01*
X26391Y8687D01*
X26385Y8685D01*
X26378Y8684D01*
X26371Y8682D01*
X26363Y8681D01*
X26355Y8680D01*
X26346Y8679D01*
X26336Y8679D01*
X26336D01*
X26335D01*
X26333D01*
X26331D01*
X26328Y8679D01*
X26324D01*
X26321Y8680D01*
X26317Y8680D01*
X26308Y8681D01*
X26299Y8682D01*
X26290Y8684D01*
X26286Y8685D01*
X26281Y8686D01*
X26281D01*
X26281Y8686D01*
X26280Y8687D01*
X26278Y8687D01*
X26276Y8688D01*
X26274Y8689D01*
X26270Y8691D01*
X26265Y8694D01*
X26259Y8698D01*
X26254Y8702D01*
X26250Y8707D01*
Y8707D01*
X26249Y8707D01*
X26249Y8708D01*
X26248Y8709D01*
X26247Y8711D01*
X26246Y8712D01*
X26244Y8716D01*
X26242Y8721D01*
X26240Y8727D01*
X26239Y8734D01*
X26238Y8742D01*
Y8744D01*
X26239Y8747D01*
X26239Y8751D01*
X26240Y8755D01*
X26241Y8759D01*
X26242Y8764D01*
X26245Y8769D01*
Y8769D01*
X26245Y8769D01*
X26246Y8771D01*
X26247Y8773D01*
X26249Y8776D01*
X26252Y8779D01*
X26255Y8782D01*
X26258Y8785D01*
X26263Y8788D01*
X26263Y8788D01*
X26265Y8789D01*
X26267Y8790D01*
X26271Y8792D01*
X26275Y8794D01*
X26280Y8796D01*
X26285Y8798D01*
X26291Y8800D01*
X26291D01*
X26292Y8800D01*
X26293Y8800D01*
X26294Y8801D01*
X26296Y8801D01*
X26298Y8801D01*
X26300Y8802D01*
X26303Y8802D01*
X26306Y8803D01*
X26309Y8803D01*
X26313Y8803D01*
X26317Y8804D01*
X26322Y8804D01*
X26326D01*
X26331Y8804D01*
X26336D01*
X26337D01*
X26338D01*
X26340D01*
X26342D01*
X26345Y8804D01*
D02*
G37*
G36*
X26431Y8527D02*
X26431D01*
X26429D01*
X26428D01*
X26426Y8527D01*
X26423Y8527D01*
X26420Y8528D01*
X26417Y8528D01*
X26414Y8530D01*
X26414D01*
X26414Y8530D01*
X26412Y8530D01*
X26410Y8531D01*
X26406Y8533D01*
X26403Y8535D01*
X26398Y8538D01*
X26394Y8541D01*
X26389Y8545D01*
X26389D01*
X26388Y8546D01*
X26387Y8547D01*
X26384Y8549D01*
X26381Y8553D01*
X26377Y8557D01*
X26372Y8562D01*
X26366Y8569D01*
X26360Y8576D01*
X26360Y8576D01*
X26359Y8577D01*
X26358Y8579D01*
X26356Y8581D01*
X26354Y8583D01*
X26351Y8586D01*
X26349Y8589D01*
X26345Y8593D01*
X26339Y8600D01*
X26332Y8607D01*
X26329Y8610D01*
X26326Y8613D01*
X26322Y8616D01*
X26319Y8618D01*
X26319D01*
X26319Y8619D01*
X26318Y8619D01*
X26317Y8620D01*
X26314Y8622D01*
X26310Y8624D01*
X26306Y8626D01*
X26301Y8628D01*
X26296Y8629D01*
X26291Y8630D01*
X26291D01*
X26290D01*
X26289Y8629D01*
X26286Y8629D01*
X26283Y8628D01*
X26279Y8627D01*
X26275Y8625D01*
X26271Y8623D01*
X26267Y8619D01*
X26267Y8619D01*
X26266Y8617D01*
X26264Y8615D01*
X26262Y8612D01*
X26261Y8608D01*
X26259Y8604D01*
X26258Y8599D01*
X26258Y8593D01*
Y8591D01*
X26258Y8590D01*
X26258Y8587D01*
X26259Y8583D01*
X26260Y8579D01*
X26262Y8574D01*
X26265Y8570D01*
X26268Y8566D01*
X26268Y8565D01*
X26270Y8564D01*
X26272Y8562D01*
X26275Y8561D01*
X26279Y8559D01*
X26284Y8557D01*
X26290Y8556D01*
X26296Y8555D01*
X26294Y8531D01*
X26293D01*
X26293Y8531D01*
X26291D01*
X26289Y8532D01*
X26287Y8532D01*
X26285Y8533D01*
X26281Y8534D01*
X26278Y8535D01*
X26272Y8537D01*
X26265Y8540D01*
X26262Y8542D01*
X26258Y8544D01*
X26255Y8547D01*
X26253Y8550D01*
X26252Y8550D01*
X26252Y8551D01*
X26251Y8551D01*
X26250Y8553D01*
X26249Y8554D01*
X26248Y8556D01*
X26247Y8559D01*
X26245Y8561D01*
X26244Y8564D01*
X26243Y8568D01*
X26242Y8571D01*
X26240Y8575D01*
X26240Y8579D01*
X26239Y8584D01*
X26239Y8589D01*
X26238Y8594D01*
Y8596D01*
X26239Y8598D01*
X26239Y8600D01*
X26239Y8603D01*
X26240Y8606D01*
X26240Y8609D01*
X26242Y8616D01*
X26245Y8624D01*
X26247Y8627D01*
X26249Y8631D01*
X26251Y8634D01*
X26254Y8637D01*
X26254Y8638D01*
X26254Y8638D01*
X26255Y8639D01*
X26257Y8640D01*
X26258Y8641D01*
X26260Y8643D01*
X26262Y8644D01*
X26264Y8646D01*
X26270Y8648D01*
X26276Y8651D01*
X26280Y8652D01*
X26283Y8653D01*
X26287Y8653D01*
X26291Y8654D01*
X26292D01*
X26293D01*
X26296Y8653D01*
X26299Y8653D01*
X26302Y8653D01*
X26306Y8651D01*
X26310Y8650D01*
X26314Y8649D01*
X26315Y8648D01*
X26316Y8648D01*
X26318Y8647D01*
X26321Y8645D01*
X26325Y8643D01*
X26329Y8640D01*
X26333Y8637D01*
X26338Y8633D01*
X26338Y8632D01*
X26340Y8631D01*
X26341Y8630D01*
X26343Y8628D01*
X26344Y8626D01*
X26347Y8624D01*
X26349Y8622D01*
X26351Y8619D01*
X26354Y8616D01*
X26357Y8613D01*
X26360Y8610D01*
X26364Y8606D01*
X26367Y8601D01*
X26371Y8597D01*
X26372Y8597D01*
X26372Y8596D01*
X26373Y8595D01*
X26374Y8594D01*
X26376Y8592D01*
X26377Y8590D01*
X26381Y8585D01*
X26385Y8581D01*
X26389Y8576D01*
X26393Y8572D01*
X26394Y8571D01*
X26396Y8569D01*
X26396Y8569D01*
X26397Y8568D01*
X26398Y8567D01*
X26399Y8566D01*
X26401Y8564D01*
X26403Y8563D01*
X26408Y8559D01*
Y8654D01*
X26431D01*
Y8527D01*
D02*
G37*
G36*
Y8485D02*
X26334Y8417D01*
X26364Y8385D01*
X26431D01*
Y8360D01*
X26239D01*
Y8385D01*
X26334D01*
X26239Y8480D01*
Y8515D01*
X26317Y8435D01*
X26431Y8518D01*
Y8485D01*
D02*
G37*
G36*
X30981Y22780D02*
Y22780D01*
Y22779D01*
Y22777D01*
Y22775D01*
X30980Y22773D01*
Y22770D01*
X30980Y22767D01*
X30980Y22763D01*
X30979Y22756D01*
X30978Y22748D01*
X30976Y22741D01*
X30975Y22737D01*
X30974Y22734D01*
Y22734D01*
X30974Y22733D01*
X30973Y22732D01*
X30973Y22731D01*
X30971Y22728D01*
X30968Y22724D01*
X30965Y22720D01*
X30961Y22715D01*
X30956Y22711D01*
X30950Y22706D01*
X30950D01*
X30949Y22706D01*
X30949Y22706D01*
X30947Y22705D01*
X30946Y22704D01*
X30943Y22703D01*
X30941Y22702D01*
X30938Y22701D01*
X30935Y22700D01*
X30932Y22699D01*
X30928Y22698D01*
X30924Y22698D01*
X30920Y22697D01*
X30916Y22696D01*
X30906Y22696D01*
X30903D01*
X30901Y22696D01*
X30899D01*
X30896Y22696D01*
X30893Y22697D01*
X30890Y22697D01*
X30883Y22698D01*
X30876Y22700D01*
X30868Y22702D01*
X30862Y22705D01*
X30861D01*
X30861Y22706D01*
X30860Y22706D01*
X30859Y22707D01*
X30856Y22709D01*
X30852Y22712D01*
X30848Y22716D01*
X30844Y22720D01*
X30840Y22726D01*
X30837Y22732D01*
Y22732D01*
X30837Y22733D01*
X30837Y22734D01*
X30836Y22735D01*
X30836Y22737D01*
X30835Y22739D01*
X30834Y22742D01*
X30834Y22745D01*
X30833Y22748D01*
X30832Y22752D01*
X30832Y22755D01*
X30831Y22760D01*
X30831Y22764D01*
X30830Y22769D01*
X30830Y22775D01*
Y22780D01*
Y22891D01*
X30855D01*
Y22780D01*
Y22780D01*
Y22779D01*
Y22778D01*
Y22776D01*
X30856Y22774D01*
Y22772D01*
X30856Y22766D01*
X30857Y22760D01*
X30857Y22754D01*
X30859Y22748D01*
X30859Y22746D01*
X30860Y22743D01*
X30860Y22743D01*
X30861Y22741D01*
X30862Y22739D01*
X30864Y22737D01*
X30866Y22734D01*
X30868Y22731D01*
X30872Y22728D01*
X30876Y22725D01*
X30876Y22725D01*
X30878Y22724D01*
X30880Y22723D01*
X30883Y22722D01*
X30887Y22721D01*
X30892Y22720D01*
X30898Y22719D01*
X30903Y22719D01*
X30906D01*
X30908Y22719D01*
X30910D01*
X30913Y22719D01*
X30919Y22721D01*
X30926Y22722D01*
X30932Y22724D01*
X30938Y22727D01*
X30941Y22729D01*
X30943Y22731D01*
X30944Y22732D01*
X30944Y22732D01*
X30944Y22733D01*
X30945Y22734D01*
X30946Y22736D01*
X30947Y22737D01*
X30948Y22740D01*
X30949Y22742D01*
X30951Y22745D01*
X30951Y22749D01*
X30952Y22753D01*
X30953Y22757D01*
X30954Y22762D01*
X30955Y22768D01*
X30955Y22774D01*
Y22780D01*
Y22891D01*
X30981D01*
Y22780D01*
D02*
G37*
G36*
X31082Y22891D02*
X31084Y22891D01*
X31086Y22891D01*
X31090Y22890D01*
X31093Y22890D01*
X31100Y22888D01*
X31107Y22885D01*
X31111Y22883D01*
X31114Y22881D01*
X31118Y22879D01*
X31121Y22876D01*
X31121Y22876D01*
X31121Y22876D01*
X31122Y22875D01*
X31123Y22873D01*
X31124Y22872D01*
X31126Y22870D01*
X31127Y22868D01*
X31129Y22866D01*
X31132Y22860D01*
X31134Y22854D01*
X31136Y22850D01*
X31136Y22847D01*
X31137Y22843D01*
X31137Y22839D01*
Y22838D01*
Y22837D01*
X31137Y22834D01*
X31136Y22831D01*
X31136Y22828D01*
X31135Y22824D01*
X31134Y22820D01*
X31132Y22816D01*
X31132Y22815D01*
X31131Y22814D01*
X31130Y22812D01*
X31128Y22809D01*
X31126Y22805D01*
X31123Y22801D01*
X31120Y22797D01*
X31116Y22792D01*
X31116Y22792D01*
X31114Y22790D01*
X31113Y22789D01*
X31111Y22787D01*
X31110Y22786D01*
X31108Y22783D01*
X31105Y22781D01*
X31103Y22779D01*
X31100Y22776D01*
X31096Y22773D01*
X31093Y22770D01*
X31089Y22766D01*
X31085Y22763D01*
X31080Y22759D01*
X31080Y22758D01*
X31079Y22758D01*
X31078Y22757D01*
X31077Y22756D01*
X31075Y22754D01*
X31073Y22753D01*
X31069Y22749D01*
X31064Y22745D01*
X31060Y22741D01*
X31056Y22737D01*
X31054Y22736D01*
X31053Y22734D01*
X31052Y22734D01*
X31052Y22733D01*
X31050Y22732D01*
X31049Y22731D01*
X31048Y22729D01*
X31046Y22727D01*
X31043Y22722D01*
X31137D01*
Y22699D01*
X31010D01*
Y22699D01*
Y22701D01*
Y22702D01*
X31010Y22704D01*
X31011Y22707D01*
X31011Y22710D01*
X31012Y22713D01*
X31013Y22716D01*
Y22716D01*
X31013Y22716D01*
X31014Y22718D01*
X31015Y22720D01*
X31016Y22724D01*
X31019Y22727D01*
X31021Y22732D01*
X31024Y22736D01*
X31028Y22741D01*
Y22741D01*
X31029Y22742D01*
X31030Y22743D01*
X31033Y22746D01*
X31036Y22749D01*
X31041Y22754D01*
X31046Y22758D01*
X31052Y22764D01*
X31059Y22770D01*
X31059Y22770D01*
X31060Y22771D01*
X31062Y22772D01*
X31064Y22774D01*
X31067Y22776D01*
X31070Y22779D01*
X31073Y22781D01*
X31076Y22785D01*
X31083Y22791D01*
X31090Y22798D01*
X31093Y22801D01*
X31096Y22804D01*
X31099Y22808D01*
X31101Y22811D01*
Y22811D01*
X31102Y22811D01*
X31103Y22812D01*
X31103Y22813D01*
X31105Y22816D01*
X31107Y22820D01*
X31109Y22824D01*
X31111Y22829D01*
X31112Y22834D01*
X31113Y22839D01*
Y22839D01*
Y22840D01*
X31113Y22841D01*
X31112Y22844D01*
X31111Y22847D01*
X31110Y22851D01*
X31108Y22855D01*
X31106Y22859D01*
X31103Y22863D01*
X31102Y22863D01*
X31101Y22864D01*
X31099Y22866D01*
X31096Y22868D01*
X31092Y22869D01*
X31087Y22871D01*
X31082Y22872D01*
X31076Y22872D01*
X31075D01*
X31073Y22872D01*
X31070Y22872D01*
X31066Y22871D01*
X31062Y22870D01*
X31057Y22868D01*
X31053Y22865D01*
X31049Y22862D01*
X31048Y22862D01*
X31047Y22860D01*
X31046Y22858D01*
X31044Y22855D01*
X31042Y22851D01*
X31040Y22846D01*
X31039Y22840D01*
X31039Y22834D01*
X31014Y22836D01*
Y22837D01*
X31015Y22837D01*
Y22839D01*
X31015Y22841D01*
X31016Y22843D01*
X31016Y22845D01*
X31017Y22849D01*
X31018Y22852D01*
X31020Y22858D01*
X31023Y22865D01*
X31025Y22868D01*
X31028Y22872D01*
X31030Y22875D01*
X31033Y22877D01*
X31033Y22878D01*
X31034Y22878D01*
X31035Y22879D01*
X31036Y22880D01*
X31038Y22881D01*
X31040Y22882D01*
X31042Y22883D01*
X31045Y22885D01*
X31048Y22886D01*
X31051Y22887D01*
X31055Y22888D01*
X31059Y22890D01*
X31063Y22890D01*
X31067Y22891D01*
X31072Y22891D01*
X31077Y22892D01*
X31080D01*
X31082Y22891D01*
D02*
G37*
G36*
X31628Y8954D02*
X31631Y8953D01*
X31633Y8953D01*
X31636Y8952D01*
X31639Y8952D01*
X31646Y8949D01*
X31649Y8948D01*
X31653Y8946D01*
X31656Y8944D01*
X31660Y8941D01*
X31663Y8939D01*
X31667Y8935D01*
X31667Y8935D01*
X31667Y8935D01*
X31668Y8933D01*
X31669Y8932D01*
X31671Y8930D01*
X31672Y8928D01*
X31674Y8926D01*
X31675Y8923D01*
X31677Y8920D01*
X31679Y8916D01*
X31680Y8912D01*
X31681Y8908D01*
X31682Y8904D01*
X31683Y8899D01*
X31684Y8894D01*
X31684Y8889D01*
Y8887D01*
X31684Y8885D01*
X31684Y8883D01*
X31683Y8880D01*
X31683Y8877D01*
X31682Y8874D01*
X31681Y8868D01*
X31678Y8861D01*
X31676Y8857D01*
X31674Y8854D01*
X31672Y8851D01*
X31669Y8847D01*
X31669Y8847D01*
X31668Y8846D01*
X31667Y8846D01*
X31666Y8845D01*
X31665Y8843D01*
X31663Y8842D01*
X31661Y8840D01*
X31659Y8839D01*
X31656Y8837D01*
X31653Y8835D01*
X31646Y8832D01*
X31639Y8830D01*
X31635Y8829D01*
X31630Y8828D01*
X31627Y8852D01*
X31627D01*
X31628Y8852D01*
X31629Y8853D01*
X31630Y8853D01*
X31632Y8853D01*
X31634Y8854D01*
X31638Y8855D01*
X31643Y8857D01*
X31648Y8859D01*
X31652Y8862D01*
X31656Y8866D01*
X31656Y8866D01*
X31658Y8867D01*
X31659Y8869D01*
X31660Y8872D01*
X31662Y8875D01*
X31663Y8880D01*
X31664Y8884D01*
X31665Y8889D01*
Y8891D01*
X31664Y8892D01*
X31664Y8895D01*
X31663Y8899D01*
X31662Y8903D01*
X31660Y8908D01*
X31657Y8913D01*
X31653Y8917D01*
X31653Y8918D01*
X31651Y8919D01*
X31649Y8921D01*
X31645Y8923D01*
X31641Y8925D01*
X31636Y8927D01*
X31631Y8928D01*
X31625Y8929D01*
X31625D01*
X31624D01*
X31623D01*
X31622Y8929D01*
X31619Y8928D01*
X31615Y8928D01*
X31611Y8926D01*
X31607Y8925D01*
X31602Y8922D01*
X31598Y8918D01*
X31597Y8918D01*
X31596Y8916D01*
X31595Y8914D01*
X31593Y8911D01*
X31591Y8907D01*
X31589Y8902D01*
X31588Y8897D01*
X31587Y8891D01*
Y8889D01*
X31588Y8887D01*
X31588Y8884D01*
X31589Y8882D01*
X31589Y8878D01*
X31590Y8875D01*
X31569Y8877D01*
Y8879D01*
X31569Y8880D01*
Y8884D01*
X31569Y8887D01*
X31568Y8890D01*
X31567Y8894D01*
X31566Y8899D01*
X31564Y8903D01*
X31562Y8908D01*
Y8908D01*
X31561Y8909D01*
X31560Y8910D01*
X31558Y8912D01*
X31556Y8914D01*
X31552Y8916D01*
X31548Y8918D01*
X31543Y8920D01*
X31541Y8920D01*
X31538D01*
X31537D01*
X31537D01*
X31535D01*
X31533Y8920D01*
X31530Y8919D01*
X31527Y8918D01*
X31523Y8917D01*
X31520Y8915D01*
X31516Y8912D01*
X31516Y8911D01*
X31515Y8910D01*
X31513Y8908D01*
X31512Y8905D01*
X31510Y8902D01*
X31509Y8898D01*
X31508Y8894D01*
X31508Y8889D01*
Y8887D01*
X31508Y8884D01*
X31509Y8881D01*
X31510Y8877D01*
X31511Y8874D01*
X31513Y8870D01*
X31516Y8866D01*
X31517Y8866D01*
X31518Y8865D01*
X31520Y8863D01*
X31523Y8861D01*
X31526Y8859D01*
X31531Y8857D01*
X31536Y8856D01*
X31542Y8854D01*
X31538Y8831D01*
X31538D01*
X31537Y8831D01*
X31536Y8831D01*
X31534Y8832D01*
X31532Y8832D01*
X31530Y8833D01*
X31525Y8835D01*
X31518Y8838D01*
X31512Y8841D01*
X31507Y8845D01*
X31501Y8850D01*
X31501Y8851D01*
X31501Y8851D01*
X31500Y8852D01*
X31499Y8853D01*
X31498Y8854D01*
X31497Y8856D01*
X31496Y8858D01*
X31495Y8861D01*
X31492Y8866D01*
X31490Y8873D01*
X31489Y8880D01*
X31488Y8884D01*
Y8891D01*
X31489Y8894D01*
X31489Y8898D01*
X31490Y8902D01*
X31491Y8907D01*
X31493Y8912D01*
X31495Y8917D01*
Y8917D01*
X31495Y8918D01*
X31496Y8919D01*
X31498Y8922D01*
X31500Y8925D01*
X31503Y8928D01*
X31506Y8931D01*
X31509Y8935D01*
X31513Y8937D01*
X31514Y8938D01*
X31515Y8938D01*
X31518Y8939D01*
X31521Y8941D01*
X31525Y8942D01*
X31529Y8943D01*
X31533Y8944D01*
X31538Y8944D01*
X31539D01*
X31540D01*
X31543Y8944D01*
X31546Y8944D01*
X31549Y8943D01*
X31553Y8941D01*
X31557Y8940D01*
X31561Y8938D01*
X31561Y8937D01*
X31563Y8936D01*
X31564Y8935D01*
X31567Y8933D01*
X31569Y8930D01*
X31572Y8926D01*
X31574Y8923D01*
X31577Y8918D01*
Y8918D01*
X31577Y8919D01*
X31577Y8920D01*
X31578Y8921D01*
X31579Y8924D01*
X31581Y8928D01*
X31583Y8932D01*
X31586Y8936D01*
X31589Y8941D01*
X31593Y8944D01*
X31594Y8945D01*
X31595Y8946D01*
X31598Y8948D01*
X31602Y8949D01*
X31606Y8951D01*
X31612Y8953D01*
X31618Y8954D01*
X31624Y8954D01*
X31625D01*
X31625D01*
X31627D01*
X31628Y8954D01*
D02*
G37*
G36*
X31595Y8804D02*
X31598D01*
X31602Y8804D01*
X31606Y8803D01*
X31615Y8803D01*
X31624Y8801D01*
X31633Y8800D01*
X31637Y8798D01*
X31641Y8797D01*
X31641D01*
X31642Y8797D01*
X31643Y8796D01*
X31644Y8796D01*
X31646Y8795D01*
X31648Y8794D01*
X31653Y8792D01*
X31658Y8789D01*
X31663Y8785D01*
X31668Y8781D01*
X31673Y8776D01*
Y8776D01*
X31674Y8776D01*
X31674Y8775D01*
X31675Y8774D01*
X31676Y8772D01*
X31677Y8771D01*
X31679Y8767D01*
X31681Y8762D01*
X31682Y8756D01*
X31684Y8749D01*
X31684Y8742D01*
Y8739D01*
X31684Y8737D01*
X31684Y8735D01*
X31683Y8732D01*
X31682Y8729D01*
X31682Y8726D01*
X31681Y8722D01*
X31679Y8719D01*
X31678Y8715D01*
X31676Y8712D01*
X31674Y8708D01*
X31671Y8704D01*
X31668Y8701D01*
X31664Y8698D01*
X31664Y8698D01*
X31663Y8697D01*
X31662Y8696D01*
X31660Y8695D01*
X31657Y8694D01*
X31654Y8692D01*
X31650Y8690D01*
X31646Y8689D01*
X31641Y8687D01*
X31635Y8685D01*
X31628Y8684D01*
X31621Y8682D01*
X31613Y8681D01*
X31605Y8680D01*
X31596Y8679D01*
X31586Y8679D01*
X31586D01*
X31585D01*
X31583D01*
X31581D01*
X31578Y8679D01*
X31574D01*
X31571Y8680D01*
X31567Y8680D01*
X31558Y8681D01*
X31549Y8682D01*
X31540Y8684D01*
X31536Y8685D01*
X31531Y8686D01*
X31531D01*
X31531Y8686D01*
X31530Y8687D01*
X31528Y8687D01*
X31526Y8688D01*
X31524Y8689D01*
X31520Y8691D01*
X31515Y8694D01*
X31509Y8698D01*
X31504Y8702D01*
X31500Y8707D01*
Y8707D01*
X31499Y8707D01*
X31499Y8708D01*
X31498Y8709D01*
X31497Y8711D01*
X31496Y8712D01*
X31494Y8716D01*
X31492Y8721D01*
X31490Y8727D01*
X31489Y8734D01*
X31488Y8742D01*
Y8744D01*
X31489Y8747D01*
X31489Y8751D01*
X31490Y8755D01*
X31491Y8759D01*
X31492Y8764D01*
X31495Y8769D01*
Y8769D01*
X31495Y8769D01*
X31496Y8771D01*
X31497Y8773D01*
X31499Y8776D01*
X31502Y8779D01*
X31505Y8782D01*
X31508Y8785D01*
X31513Y8788D01*
X31513Y8788D01*
X31515Y8789D01*
X31517Y8790D01*
X31521Y8792D01*
X31525Y8794D01*
X31530Y8796D01*
X31535Y8798D01*
X31541Y8800D01*
X31541D01*
X31542Y8800D01*
X31543Y8800D01*
X31544Y8801D01*
X31546Y8801D01*
X31548Y8801D01*
X31550Y8802D01*
X31553Y8802D01*
X31556Y8803D01*
X31559Y8803D01*
X31563Y8803D01*
X31567Y8804D01*
X31572Y8804D01*
X31576D01*
X31581Y8804D01*
X31586D01*
X31587D01*
X31588D01*
X31590D01*
X31592D01*
X31595Y8804D01*
D02*
G37*
G36*
X31681Y8527D02*
X31681D01*
X31679D01*
X31678D01*
X31676Y8527D01*
X31673Y8527D01*
X31670Y8528D01*
X31667Y8528D01*
X31664Y8530D01*
X31664D01*
X31664Y8530D01*
X31662Y8530D01*
X31660Y8531D01*
X31656Y8533D01*
X31653Y8535D01*
X31648Y8538D01*
X31644Y8541D01*
X31639Y8545D01*
X31639D01*
X31638Y8546D01*
X31637Y8547D01*
X31634Y8549D01*
X31631Y8553D01*
X31627Y8557D01*
X31622Y8562D01*
X31616Y8569D01*
X31610Y8576D01*
X31610Y8576D01*
X31609Y8577D01*
X31608Y8579D01*
X31606Y8581D01*
X31604Y8583D01*
X31601Y8586D01*
X31599Y8589D01*
X31595Y8593D01*
X31589Y8600D01*
X31582Y8607D01*
X31579Y8610D01*
X31576Y8613D01*
X31572Y8616D01*
X31569Y8618D01*
X31569D01*
X31569Y8619D01*
X31568Y8619D01*
X31567Y8620D01*
X31564Y8622D01*
X31560Y8624D01*
X31556Y8626D01*
X31551Y8628D01*
X31546Y8629D01*
X31541Y8630D01*
X31541D01*
X31540D01*
X31539Y8629D01*
X31536Y8629D01*
X31533Y8628D01*
X31529Y8627D01*
X31525Y8625D01*
X31521Y8623D01*
X31517Y8619D01*
X31517Y8619D01*
X31516Y8617D01*
X31514Y8615D01*
X31512Y8612D01*
X31511Y8608D01*
X31509Y8604D01*
X31508Y8599D01*
X31508Y8593D01*
Y8591D01*
X31508Y8590D01*
X31508Y8587D01*
X31509Y8583D01*
X31510Y8579D01*
X31512Y8574D01*
X31515Y8570D01*
X31518Y8566D01*
X31518Y8565D01*
X31520Y8564D01*
X31522Y8562D01*
X31525Y8561D01*
X31529Y8559D01*
X31534Y8557D01*
X31540Y8556D01*
X31546Y8555D01*
X31544Y8531D01*
X31543D01*
X31543Y8531D01*
X31541D01*
X31539Y8532D01*
X31537Y8532D01*
X31535Y8533D01*
X31531Y8534D01*
X31528Y8535D01*
X31522Y8537D01*
X31515Y8540D01*
X31512Y8542D01*
X31508Y8544D01*
X31505Y8547D01*
X31503Y8550D01*
X31502Y8550D01*
X31502Y8551D01*
X31501Y8551D01*
X31500Y8553D01*
X31499Y8554D01*
X31498Y8556D01*
X31497Y8559D01*
X31495Y8561D01*
X31494Y8564D01*
X31493Y8568D01*
X31492Y8571D01*
X31490Y8575D01*
X31490Y8579D01*
X31489Y8584D01*
X31489Y8589D01*
X31488Y8594D01*
Y8596D01*
X31489Y8598D01*
X31489Y8600D01*
X31489Y8603D01*
X31490Y8606D01*
X31490Y8609D01*
X31492Y8616D01*
X31495Y8624D01*
X31497Y8627D01*
X31499Y8631D01*
X31501Y8634D01*
X31504Y8637D01*
X31504Y8638D01*
X31504Y8638D01*
X31505Y8639D01*
X31507Y8640D01*
X31508Y8641D01*
X31510Y8643D01*
X31512Y8644D01*
X31514Y8646D01*
X31520Y8648D01*
X31526Y8651D01*
X31530Y8652D01*
X31533Y8653D01*
X31537Y8653D01*
X31541Y8654D01*
X31542D01*
X31543D01*
X31546Y8653D01*
X31549Y8653D01*
X31552Y8653D01*
X31556Y8651D01*
X31560Y8650D01*
X31564Y8649D01*
X31565Y8648D01*
X31566Y8648D01*
X31568Y8647D01*
X31571Y8645D01*
X31575Y8643D01*
X31579Y8640D01*
X31583Y8637D01*
X31588Y8633D01*
X31588Y8632D01*
X31590Y8631D01*
X31591Y8630D01*
X31593Y8628D01*
X31594Y8626D01*
X31597Y8624D01*
X31599Y8622D01*
X31601Y8619D01*
X31604Y8616D01*
X31607Y8613D01*
X31610Y8610D01*
X31614Y8606D01*
X31617Y8601D01*
X31621Y8597D01*
X31622Y8597D01*
X31622Y8596D01*
X31623Y8595D01*
X31624Y8594D01*
X31626Y8592D01*
X31627Y8590D01*
X31631Y8585D01*
X31635Y8581D01*
X31639Y8576D01*
X31643Y8572D01*
X31644Y8571D01*
X31646Y8569D01*
X31646Y8569D01*
X31647Y8568D01*
X31648Y8567D01*
X31649Y8566D01*
X31651Y8564D01*
X31653Y8563D01*
X31658Y8559D01*
Y8654D01*
X31681D01*
Y8527D01*
D02*
G37*
G36*
Y8485D02*
X31584Y8417D01*
X31614Y8385D01*
X31681D01*
Y8360D01*
X31489D01*
Y8385D01*
X31584D01*
X31489Y8480D01*
Y8515D01*
X31567Y8435D01*
X31681Y8518D01*
Y8485D01*
D02*
G37*
%LPC*%
G36*
X21113Y8903D02*
X21027D01*
X21113Y8843D01*
Y8903D01*
D02*
G37*
G36*
X21095Y8780D02*
X21086D01*
X21086D01*
X21086D01*
X21084D01*
X21082D01*
X21079Y8780D01*
X21075D01*
X21071Y8780D01*
X21066Y8779D01*
X21061Y8779D01*
X21050Y8777D01*
X21045Y8777D01*
X21040Y8776D01*
X21035Y8774D01*
X21031Y8773D01*
X21027Y8771D01*
X21023Y8769D01*
X21023D01*
X21023Y8769D01*
X21022Y8768D01*
X21021Y8767D01*
X21018Y8765D01*
X21015Y8762D01*
X21013Y8758D01*
X21010Y8753D01*
X21009Y8750D01*
X21008Y8748D01*
X21008Y8744D01*
X21008Y8741D01*
Y8740D01*
X21008Y8739D01*
X21008Y8736D01*
X21009Y8732D01*
X21011Y8728D01*
X21013Y8723D01*
X21015Y8721D01*
X21017Y8719D01*
X21019Y8717D01*
X21022Y8715D01*
X21022D01*
X21022Y8715D01*
X21023Y8714D01*
X21025Y8713D01*
X21027Y8712D01*
X21030Y8711D01*
X21033Y8710D01*
X21036Y8709D01*
X21040Y8708D01*
X21045Y8707D01*
X21050Y8706D01*
X21056Y8705D01*
X21063Y8704D01*
X21070Y8704D01*
X21078Y8703D01*
X21086Y8703D01*
X21087D01*
X21088D01*
X21091D01*
X21094Y8703D01*
X21098D01*
X21102Y8704D01*
X21107Y8704D01*
X21112Y8705D01*
X21123Y8706D01*
X21128Y8707D01*
X21133Y8708D01*
X21138Y8709D01*
X21142Y8711D01*
X21146Y8712D01*
X21149Y8714D01*
X21149D01*
X21150Y8715D01*
X21152Y8716D01*
X21154Y8719D01*
X21157Y8722D01*
X21160Y8726D01*
X21162Y8731D01*
X21164Y8736D01*
X21164Y8739D01*
X21165Y8742D01*
Y8743D01*
X21164Y8744D01*
X21164Y8747D01*
X21163Y8751D01*
X21161Y8755D01*
X21158Y8760D01*
X21156Y8762D01*
X21154Y8764D01*
X21152Y8767D01*
X21149Y8769D01*
X21149D01*
X21148Y8769D01*
X21148Y8770D01*
X21146Y8771D01*
X21144Y8772D01*
X21142Y8772D01*
X21139Y8774D01*
X21136Y8775D01*
X21131Y8776D01*
X21127Y8777D01*
X21122Y8778D01*
X21116Y8779D01*
X21110Y8779D01*
X21103Y8780D01*
X21095Y8780D01*
D02*
G37*
G36*
X10595D02*
X10586D01*
X10586D01*
X10586D01*
X10584D01*
X10582D01*
X10579Y8780D01*
X10575D01*
X10571Y8780D01*
X10566Y8779D01*
X10561Y8779D01*
X10550Y8777D01*
X10545Y8777D01*
X10540Y8776D01*
X10535Y8774D01*
X10531Y8773D01*
X10527Y8771D01*
X10523Y8769D01*
X10523D01*
X10523Y8769D01*
X10522Y8768D01*
X10521Y8767D01*
X10518Y8765D01*
X10515Y8762D01*
X10513Y8758D01*
X10510Y8753D01*
X10509Y8750D01*
X10508Y8748D01*
X10508Y8744D01*
X10508Y8741D01*
Y8740D01*
X10508Y8739D01*
X10508Y8736D01*
X10509Y8732D01*
X10511Y8728D01*
X10513Y8723D01*
X10515Y8721D01*
X10517Y8719D01*
X10519Y8717D01*
X10522Y8715D01*
X10522D01*
X10522Y8715D01*
X10523Y8714D01*
X10525Y8713D01*
X10527Y8712D01*
X10530Y8711D01*
X10533Y8710D01*
X10536Y8709D01*
X10540Y8708D01*
X10545Y8707D01*
X10550Y8706D01*
X10556Y8705D01*
X10563Y8704D01*
X10570Y8704D01*
X10578Y8703D01*
X10586Y8703D01*
X10587D01*
X10588D01*
X10591D01*
X10594Y8703D01*
X10598D01*
X10602Y8704D01*
X10607Y8704D01*
X10612Y8705D01*
X10623Y8706D01*
X10628Y8707D01*
X10633Y8708D01*
X10638Y8709D01*
X10642Y8711D01*
X10646Y8712D01*
X10649Y8714D01*
X10649D01*
X10650Y8715D01*
X10652Y8716D01*
X10654Y8719D01*
X10657Y8722D01*
X10660Y8726D01*
X10662Y8731D01*
X10664Y8736D01*
X10664Y8739D01*
X10665Y8742D01*
Y8743D01*
X10664Y8744D01*
X10664Y8747D01*
X10663Y8751D01*
X10661Y8755D01*
X10658Y8760D01*
X10656Y8762D01*
X10654Y8764D01*
X10652Y8767D01*
X10649Y8769D01*
X10649D01*
X10648Y8769D01*
X10648Y8770D01*
X10646Y8771D01*
X10644Y8772D01*
X10642Y8772D01*
X10639Y8774D01*
X10636Y8775D01*
X10631Y8776D01*
X10627Y8777D01*
X10622Y8778D01*
X10616Y8779D01*
X10610Y8779D01*
X10603Y8780D01*
X10595Y8780D01*
D02*
G37*
G36*
X15845D02*
X15836D01*
X15836D01*
X15836D01*
X15834D01*
X15832D01*
X15829Y8780D01*
X15825D01*
X15821Y8780D01*
X15816Y8779D01*
X15811Y8779D01*
X15800Y8777D01*
X15795Y8777D01*
X15790Y8776D01*
X15785Y8774D01*
X15781Y8773D01*
X15777Y8771D01*
X15773Y8769D01*
X15773D01*
X15773Y8769D01*
X15772Y8768D01*
X15771Y8767D01*
X15768Y8765D01*
X15765Y8762D01*
X15763Y8758D01*
X15760Y8753D01*
X15759Y8750D01*
X15758Y8748D01*
X15758Y8744D01*
X15758Y8741D01*
Y8740D01*
X15758Y8739D01*
X15758Y8736D01*
X15759Y8732D01*
X15761Y8728D01*
X15763Y8723D01*
X15765Y8721D01*
X15767Y8719D01*
X15769Y8717D01*
X15772Y8715D01*
X15772D01*
X15772Y8715D01*
X15773Y8714D01*
X15775Y8713D01*
X15777Y8712D01*
X15780Y8711D01*
X15783Y8710D01*
X15786Y8709D01*
X15790Y8708D01*
X15795Y8707D01*
X15800Y8706D01*
X15806Y8705D01*
X15813Y8704D01*
X15820Y8704D01*
X15828Y8703D01*
X15836Y8703D01*
X15837D01*
X15838D01*
X15841D01*
X15844Y8703D01*
X15848D01*
X15852Y8704D01*
X15857Y8704D01*
X15862Y8705D01*
X15873Y8706D01*
X15878Y8707D01*
X15883Y8708D01*
X15888Y8709D01*
X15892Y8711D01*
X15896Y8712D01*
X15899Y8714D01*
X15899D01*
X15900Y8715D01*
X15902Y8716D01*
X15904Y8719D01*
X15907Y8722D01*
X15910Y8726D01*
X15912Y8731D01*
X15914Y8736D01*
X15914Y8739D01*
X15915Y8742D01*
Y8743D01*
X15914Y8744D01*
X15914Y8747D01*
X15913Y8751D01*
X15911Y8755D01*
X15908Y8760D01*
X15906Y8762D01*
X15904Y8764D01*
X15902Y8767D01*
X15899Y8769D01*
X15899D01*
X15898Y8769D01*
X15898Y8770D01*
X15896Y8771D01*
X15894Y8772D01*
X15892Y8772D01*
X15889Y8774D01*
X15886Y8775D01*
X15881Y8776D01*
X15877Y8777D01*
X15872Y8778D01*
X15866Y8779D01*
X15860Y8779D01*
X15853Y8780D01*
X15845Y8780D01*
D02*
G37*
G36*
X26345Y8929D02*
X26336D01*
X26336D01*
X26336D01*
X26334D01*
X26332D01*
X26329Y8929D01*
X26325D01*
X26321Y8929D01*
X26316Y8928D01*
X26311Y8928D01*
X26300Y8926D01*
X26295Y8926D01*
X26290Y8925D01*
X26285Y8923D01*
X26281Y8922D01*
X26277Y8920D01*
X26273Y8918D01*
X26273D01*
X26273Y8918D01*
X26272Y8917D01*
X26271Y8916D01*
X26268Y8914D01*
X26265Y8911D01*
X26263Y8907D01*
X26260Y8902D01*
X26259Y8899D01*
X26258Y8897D01*
X26258Y8893D01*
X26258Y8890D01*
Y8889D01*
X26258Y8888D01*
X26258Y8885D01*
X26259Y8881D01*
X26261Y8877D01*
X26263Y8872D01*
X26265Y8870D01*
X26267Y8868D01*
X26269Y8866D01*
X26272Y8864D01*
X26272D01*
X26272Y8864D01*
X26273Y8863D01*
X26275Y8862D01*
X26277Y8861D01*
X26280Y8860D01*
X26283Y8859D01*
X26286Y8858D01*
X26290Y8857D01*
X26295Y8856D01*
X26300Y8855D01*
X26306Y8854D01*
X26313Y8853D01*
X26320Y8853D01*
X26328Y8853D01*
X26336Y8852D01*
X26337D01*
X26338D01*
X26341D01*
X26344Y8853D01*
X26348D01*
X26352Y8853D01*
X26357Y8853D01*
X26362Y8854D01*
X26373Y8855D01*
X26378Y8856D01*
X26383Y8857D01*
X26388Y8858D01*
X26392Y8860D01*
X26396Y8861D01*
X26399Y8863D01*
X26399D01*
X26400Y8864D01*
X26402Y8865D01*
X26404Y8868D01*
X26407Y8871D01*
X26410Y8875D01*
X26412Y8880D01*
X26414Y8885D01*
X26414Y8888D01*
X26415Y8891D01*
Y8892D01*
X26414Y8893D01*
X26414Y8896D01*
X26413Y8900D01*
X26411Y8904D01*
X26408Y8909D01*
X26406Y8911D01*
X26404Y8913D01*
X26402Y8916D01*
X26399Y8918D01*
X26399D01*
X26398Y8918D01*
X26398Y8919D01*
X26396Y8920D01*
X26394Y8921D01*
X26392Y8921D01*
X26389Y8923D01*
X26386Y8924D01*
X26381Y8925D01*
X26377Y8926D01*
X26372Y8927D01*
X26366Y8928D01*
X26360Y8928D01*
X26353Y8929D01*
X26345Y8929D01*
D02*
G37*
G36*
Y8780D02*
X26336D01*
X26336D01*
X26336D01*
X26334D01*
X26332D01*
X26329Y8780D01*
X26325D01*
X26321Y8780D01*
X26316Y8779D01*
X26311Y8779D01*
X26300Y8777D01*
X26295Y8777D01*
X26290Y8776D01*
X26285Y8774D01*
X26281Y8773D01*
X26277Y8771D01*
X26273Y8769D01*
X26273D01*
X26273Y8769D01*
X26272Y8768D01*
X26271Y8767D01*
X26268Y8765D01*
X26265Y8762D01*
X26263Y8758D01*
X26260Y8753D01*
X26259Y8750D01*
X26258Y8748D01*
X26258Y8744D01*
X26258Y8741D01*
Y8740D01*
X26258Y8739D01*
X26258Y8736D01*
X26259Y8732D01*
X26261Y8728D01*
X26263Y8723D01*
X26265Y8721D01*
X26267Y8719D01*
X26269Y8717D01*
X26272Y8715D01*
X26272D01*
X26272Y8715D01*
X26273Y8714D01*
X26275Y8713D01*
X26277Y8712D01*
X26280Y8711D01*
X26283Y8710D01*
X26286Y8709D01*
X26290Y8708D01*
X26295Y8707D01*
X26300Y8706D01*
X26306Y8705D01*
X26313Y8704D01*
X26320Y8704D01*
X26328Y8703D01*
X26336Y8703D01*
X26337D01*
X26338D01*
X26341D01*
X26344Y8703D01*
X26348D01*
X26352Y8704D01*
X26357Y8704D01*
X26362Y8705D01*
X26373Y8706D01*
X26378Y8707D01*
X26383Y8708D01*
X26388Y8709D01*
X26392Y8711D01*
X26396Y8712D01*
X26399Y8714D01*
X26399D01*
X26400Y8715D01*
X26402Y8716D01*
X26404Y8719D01*
X26407Y8722D01*
X26410Y8726D01*
X26412Y8731D01*
X26414Y8736D01*
X26414Y8739D01*
X26415Y8742D01*
Y8743D01*
X26414Y8744D01*
X26414Y8747D01*
X26413Y8751D01*
X26411Y8755D01*
X26408Y8760D01*
X26406Y8762D01*
X26404Y8764D01*
X26402Y8767D01*
X26399Y8769D01*
X26399D01*
X26398Y8769D01*
X26398Y8770D01*
X26396Y8771D01*
X26394Y8772D01*
X26392Y8772D01*
X26389Y8774D01*
X26386Y8775D01*
X26381Y8776D01*
X26377Y8777D01*
X26372Y8778D01*
X26366Y8779D01*
X26360Y8779D01*
X26353Y8780D01*
X26345Y8780D01*
D02*
G37*
G36*
X31595D02*
X31586D01*
X31586D01*
X31586D01*
X31584D01*
X31582D01*
X31579Y8780D01*
X31575D01*
X31571Y8780D01*
X31566Y8779D01*
X31561Y8779D01*
X31550Y8777D01*
X31545Y8777D01*
X31540Y8776D01*
X31535Y8774D01*
X31531Y8773D01*
X31527Y8771D01*
X31523Y8769D01*
X31523D01*
X31523Y8769D01*
X31522Y8768D01*
X31521Y8767D01*
X31518Y8765D01*
X31515Y8762D01*
X31513Y8758D01*
X31510Y8753D01*
X31509Y8750D01*
X31508Y8748D01*
X31508Y8744D01*
X31508Y8741D01*
Y8740D01*
X31508Y8739D01*
X31508Y8736D01*
X31509Y8732D01*
X31511Y8728D01*
X31513Y8723D01*
X31515Y8721D01*
X31517Y8719D01*
X31519Y8717D01*
X31522Y8715D01*
X31522D01*
X31522Y8715D01*
X31523Y8714D01*
X31525Y8713D01*
X31527Y8712D01*
X31530Y8711D01*
X31533Y8710D01*
X31536Y8709D01*
X31540Y8708D01*
X31545Y8707D01*
X31550Y8706D01*
X31556Y8705D01*
X31563Y8704D01*
X31570Y8704D01*
X31578Y8703D01*
X31586Y8703D01*
X31587D01*
X31588D01*
X31591D01*
X31594Y8703D01*
X31598D01*
X31602Y8704D01*
X31607Y8704D01*
X31612Y8705D01*
X31623Y8706D01*
X31628Y8707D01*
X31633Y8708D01*
X31638Y8709D01*
X31642Y8711D01*
X31646Y8712D01*
X31649Y8714D01*
X31649D01*
X31650Y8715D01*
X31652Y8716D01*
X31654Y8719D01*
X31657Y8722D01*
X31660Y8726D01*
X31662Y8731D01*
X31664Y8736D01*
X31664Y8739D01*
X31665Y8742D01*
Y8743D01*
X31664Y8744D01*
X31664Y8747D01*
X31663Y8751D01*
X31661Y8755D01*
X31658Y8760D01*
X31656Y8762D01*
X31654Y8764D01*
X31652Y8767D01*
X31649Y8769D01*
X31649D01*
X31648Y8769D01*
X31648Y8770D01*
X31646Y8771D01*
X31644Y8772D01*
X31642Y8772D01*
X31639Y8774D01*
X31636Y8775D01*
X31631Y8776D01*
X31627Y8777D01*
X31622Y8778D01*
X31616Y8779D01*
X31610Y8779D01*
X31603Y8780D01*
X31595Y8780D01*
D02*
G37*
%LPD*%
D11*
X19023Y4305D02*
Y12415D01*
X23197D01*
Y4305D02*
Y12415D01*
X19023Y4305D02*
X23197D01*
X8523D02*
Y12415D01*
X12697D01*
Y4305D02*
Y12415D01*
X8523Y4305D02*
X12697D01*
X13773D02*
X17947D01*
Y12415D01*
X13773D02*
X17947D01*
X13773Y4305D02*
Y12415D01*
X24273Y4305D02*
X28447D01*
Y12415D01*
X24273D02*
X28447D01*
X24273Y4305D02*
Y12415D01*
X28676Y26082D02*
X32984D01*
Y19458D02*
Y26082D01*
X28676Y19458D02*
X32984D01*
X28676D02*
Y26082D01*
X29523Y4305D02*
Y12415D01*
X33697D01*
Y4305D02*
Y12415D01*
X29523Y4305D02*
X33697D01*
M02*
