G04*
G04 #@! TF.GenerationSoftware,Altium Limited,Altium Designer,20.2.6 (244)*
G04*
G04 Layer_Color=16711935*
%FSLAX24Y24*%
%MOIN*%
G70*
G04*
G04 #@! TF.SameCoordinates,6B0B31F8-34BC-4807-AF79-D9433D138100*
G04*
G04*
G04 #@! TF.FilePolarity,Positive*
G04*
G01*
G75*
%ADD11C,0.0079*%
%ADD13C,0.0059*%
%ADD15C,0.0100*%
%ADD20C,0.0039*%
%ADD21C,0.0050*%
%ADD147C,0.0060*%
G36*
X41148Y18725D02*
Y19141D01*
X41223D01*
Y18725D01*
X41148D01*
D02*
G37*
G36*
X41345Y18725D02*
Y19141D01*
X41420D01*
Y18725D01*
X41345D01*
D02*
G37*
G36*
X41542Y18726D02*
Y19141D01*
X41618D01*
Y18726D01*
X41542D01*
D02*
G37*
G36*
X41740Y18725D02*
Y19141D01*
X41814D01*
Y18725D01*
X41740D01*
D02*
G37*
G36*
X41936Y18727D02*
Y19141D01*
X42013D01*
Y18727D01*
X41936D01*
D02*
G37*
G36*
X42134Y18726D02*
Y19140D01*
X42208D01*
Y18726D01*
X42134D01*
D02*
G37*
G36*
X40497Y19372D02*
Y19458D01*
X40906D01*
Y19372D01*
X40497D01*
D02*
G37*
G36*
X40498Y19573D02*
Y19654D01*
X40910D01*
Y19573D01*
X40498D01*
D02*
G37*
G36*
X40497Y19768D02*
Y19852D01*
X40908D01*
Y19768D01*
X40497D01*
D02*
G37*
G36*
X40497Y20164D02*
Y20246D01*
X40910D01*
Y20164D01*
X40497D01*
D02*
G37*
G36*
X40497Y19967D02*
Y20048D01*
X40910D01*
Y19967D01*
X40497D01*
D02*
G37*
G36*
X40496Y20360D02*
Y20443D01*
X40910D01*
Y20360D01*
X40496D01*
D02*
G37*
G36*
X40494Y20754D02*
Y20839D01*
X40910D01*
Y20754D01*
X40494D01*
D02*
G37*
G36*
X40495Y20557D02*
Y20641D01*
X40910D01*
Y20557D01*
X40495D01*
D02*
G37*
G36*
X40494Y20951D02*
Y21036D01*
X40910D01*
Y20951D01*
X40494D01*
D02*
G37*
G36*
X40495Y21346D02*
Y21429D01*
X40911D01*
Y21346D01*
X40495D01*
D02*
G37*
G36*
X40496Y21149D02*
Y21231D01*
X40911D01*
Y21149D01*
X40496D01*
D02*
G37*
G36*
X40497Y21543D02*
Y21623D01*
X40912D01*
Y21543D01*
X40497D01*
D02*
G37*
G36*
X41342Y21859D02*
Y22274D01*
X41424D01*
Y21859D01*
X41342D01*
D02*
G37*
G36*
X41143Y21859D02*
Y22276D01*
X41227D01*
Y21859D01*
X41143D01*
D02*
G37*
G36*
X41536Y21860D02*
Y22277D01*
X41622D01*
Y21860D01*
X41536D01*
D02*
G37*
G36*
X41933Y21860D02*
Y22275D01*
X42016D01*
Y21860D01*
X41933D01*
D02*
G37*
G36*
X41734Y21860D02*
Y22276D01*
X41819D01*
Y21860D01*
X41734D01*
D02*
G37*
G36*
X42130Y21860D02*
Y22274D01*
X42212D01*
Y21860D01*
X42130D01*
D02*
G37*
G36*
X42331Y18726D02*
Y19140D01*
X42406D01*
Y18726D01*
X42331D01*
D02*
G37*
G36*
X42528Y18727D02*
Y19140D01*
X42603D01*
Y18727D01*
X42528D01*
D02*
G37*
G36*
X42725Y18727D02*
Y19140D01*
X42800D01*
Y18727D01*
X42725D01*
D02*
G37*
G36*
X42922Y18727D02*
Y19139D01*
X42997D01*
Y18727D01*
X42922D01*
D02*
G37*
G36*
X43119Y18727D02*
Y19139D01*
X43194D01*
Y18727D01*
X43119D01*
D02*
G37*
G36*
X43318Y18727D02*
Y19137D01*
X43391D01*
Y18727D01*
X43318D01*
D02*
G37*
G36*
X43631Y19379D02*
Y19454D01*
X44042D01*
Y19379D01*
X43631D01*
D02*
G37*
G36*
X43631Y19576D02*
Y19651D01*
X44043D01*
Y19576D01*
X43631D01*
D02*
G37*
G36*
X43631Y19773D02*
Y19848D01*
X44043D01*
Y19773D01*
X43631D01*
D02*
G37*
G36*
X43631Y19970D02*
Y20045D01*
X44044D01*
Y19970D01*
X43631D01*
D02*
G37*
G36*
X43632Y20169D02*
Y20240D01*
X44045D01*
Y20169D01*
X43632D01*
D02*
G37*
G36*
X43630Y20365D02*
Y20439D01*
X44044D01*
Y20365D01*
X43630D01*
D02*
G37*
G36*
X42327Y21860D02*
Y22274D01*
X42410D01*
Y21860D01*
X42327D01*
D02*
G37*
G36*
X42524Y21861D02*
Y22274D01*
X42607D01*
Y21861D01*
X42524D01*
D02*
G37*
G36*
X42720Y21862D02*
Y22274D01*
X42805D01*
Y21862D01*
X42720D01*
D02*
G37*
G36*
X43115Y21861D02*
Y22273D01*
X43198D01*
Y21861D01*
X43115D01*
D02*
G37*
G36*
X42918Y21862D02*
Y22274D01*
X43002D01*
Y21862D01*
X42918D01*
D02*
G37*
G36*
X43312Y21863D02*
Y22273D01*
X43396D01*
Y21863D01*
X43312D01*
D02*
G37*
G36*
X43630Y20561D02*
Y20636D01*
X44044D01*
Y20561D01*
X43630D01*
D02*
G37*
G36*
X43630Y20759D02*
Y20833D01*
X44044D01*
Y20759D01*
X43630D01*
D02*
G37*
G36*
X43629Y20955D02*
Y21031D01*
X44044D01*
Y20955D01*
X43629D01*
D02*
G37*
G36*
X43629Y21349D02*
Y21425D01*
X44044D01*
Y21349D01*
X43629D01*
D02*
G37*
G36*
X43629Y21153D02*
Y21227D01*
X44045D01*
Y21153D01*
X43629D01*
D02*
G37*
G36*
X43629Y21548D02*
Y21622D01*
X44046D01*
Y21548D01*
X43629D01*
D02*
G37*
D11*
X33520Y12833D02*
X37520D01*
X33520D02*
Y14640D01*
X37520D01*
Y12833D02*
Y14640D01*
X35220Y13740D02*
X35820D01*
X35520Y13440D02*
Y14040D01*
X19063Y4344D02*
Y12376D01*
X23157D01*
Y4344D02*
Y12376D01*
X19063Y4344D02*
X23157D01*
X7688Y16216D02*
Y16516D01*
X7538Y16366D02*
X7838D01*
X7176Y16957D02*
X8200D01*
X7176Y15775D02*
X8200D01*
X7176D02*
Y16957D01*
X8200Y15775D02*
Y16957D01*
X9270Y16220D02*
Y16520D01*
X9120Y16370D02*
X9420D01*
X8758Y16961D02*
X9782D01*
X8758Y15779D02*
X9782D01*
X8758D02*
Y16961D01*
X9782Y15779D02*
Y16961D01*
X8563Y4344D02*
Y12376D01*
X12657D01*
Y4344D02*
Y12376D01*
X8563Y4344D02*
X12657D01*
X8520Y13320D02*
Y13920D01*
X8220Y13620D02*
X8820D01*
X10520Y12713D02*
Y14520D01*
X6520D02*
X10520D01*
X6520Y12713D02*
Y14520D01*
Y12713D02*
X10520D01*
X13100Y16120D02*
Y16420D01*
X12950Y16270D02*
X13250D01*
X12588Y16861D02*
X13612D01*
X12588Y15679D02*
X13612D01*
X12588D02*
Y16861D01*
X13612Y15679D02*
Y16861D01*
X13813Y4344D02*
X17907D01*
Y12376D01*
X13813D02*
X17907D01*
X13813Y4344D02*
Y12376D01*
X14750Y16130D02*
Y16430D01*
X14600Y16280D02*
X14900D01*
X14238Y16871D02*
X15262D01*
X14238Y15689D02*
X15262D01*
X14238D02*
Y16871D01*
X15262Y15689D02*
Y16871D01*
X14813Y19693D02*
X17647D01*
X14813D02*
Y22527D01*
X17647D01*
Y19693D02*
Y22527D01*
X16092Y21110D02*
X16368D01*
X16230Y20972D02*
Y21248D01*
X15770Y13340D02*
Y13940D01*
X15470Y13640D02*
X16070D01*
X17770Y12733D02*
Y14540D01*
X13770D02*
X17770D01*
X13770Y12733D02*
Y14540D01*
Y12733D02*
X17770D01*
X23330Y26140D02*
Y28130D01*
X22270D02*
X23330D01*
X22270Y26140D02*
Y28130D01*
Y26140D02*
X23330D01*
X22800Y27030D02*
Y27290D01*
X22670Y27160D02*
X22930D01*
X22460Y13360D02*
Y13960D01*
X22160Y13660D02*
X22760D01*
X24460Y12753D02*
Y14560D01*
X20460D02*
X24460D01*
X20460Y12753D02*
Y14560D01*
Y12753D02*
X24460D01*
X21478Y16146D02*
Y16446D01*
X21328Y16296D02*
X21628D01*
X20966Y16887D02*
X21990D01*
X20966Y15705D02*
X21990D01*
X20966D02*
Y16887D01*
X21990Y15705D02*
Y16887D01*
X24740Y32265D02*
Y32835D01*
X23874Y32265D02*
Y32835D01*
Y32265D02*
X24740D01*
X23874Y32835D02*
X24740D01*
X24228Y32550D02*
X24386D01*
X24307Y32471D02*
Y32629D01*
X21974Y32255D02*
Y32825D01*
X22840Y32255D02*
Y32825D01*
X21974D02*
X22840D01*
X21974Y32255D02*
X22840D01*
X22328Y32540D02*
X22486D01*
X22407Y32461D02*
Y32619D01*
X23108Y16146D02*
Y16446D01*
X22958Y16296D02*
X23258D01*
X22596Y16887D02*
X23620D01*
X22596Y15705D02*
X23620D01*
X22596D02*
Y16887D01*
X23620Y15705D02*
Y16887D01*
X24313Y4344D02*
X28407D01*
Y12376D01*
X24313D02*
X28407D01*
X24313Y4344D02*
Y12376D01*
X28730Y25160D02*
X32930D01*
Y21360D02*
Y25160D01*
X28730Y21360D02*
X32930D01*
X28730D02*
Y25160D01*
X29563Y4344D02*
Y12376D01*
X33657D01*
Y4344D02*
Y12376D01*
X29563Y4344D02*
X33657D01*
X41533Y11325D02*
Y11895D01*
X40667Y11325D02*
Y11895D01*
Y11325D02*
X41533D01*
X40667Y11895D02*
X41533D01*
X41021Y11610D02*
X41179D01*
X41100Y11531D02*
Y11689D01*
X28188Y16156D02*
Y16456D01*
X28038Y16306D02*
X28338D01*
X27676Y16897D02*
X28700D01*
X27676Y15715D02*
X28700D01*
X27676D02*
Y16897D01*
X28700Y15715D02*
Y16897D01*
X28869Y13391D02*
Y13991D01*
X28569Y13691D02*
X29169D01*
X30869Y12784D02*
Y14591D01*
X26869D02*
X30869D01*
X26869Y12784D02*
Y14591D01*
Y12784D02*
X30869D01*
X29820Y16160D02*
Y16460D01*
X29670Y16310D02*
X29970D01*
X29308Y16901D02*
X30332D01*
X29308Y15719D02*
X30332D01*
X29308D02*
Y16901D01*
X30332Y15719D02*
Y16901D01*
X34518Y16196D02*
Y16496D01*
X34368Y16346D02*
X34668D01*
X34006Y16937D02*
X35030D01*
X34006Y15755D02*
X35030D01*
X34006D02*
Y16937D01*
X35030Y15755D02*
Y16937D01*
X36142Y16200D02*
Y16500D01*
X35992Y16350D02*
X36292D01*
X35630Y16941D02*
X36654D01*
X35630Y15759D02*
X36654D01*
X35630D02*
Y16941D01*
X36654Y15759D02*
Y16941D01*
D13*
X22230Y22180D02*
X22530D01*
X22380Y22030D02*
Y22330D01*
X21987Y21934D02*
X22775D01*
X21987D02*
Y22426D01*
X22775D01*
Y21934D02*
Y22426D01*
X22260Y31630D02*
X22560D01*
X22410Y31480D02*
Y31780D01*
X22017Y31384D02*
X22805D01*
X22017D02*
Y31876D01*
X22805D01*
Y31384D02*
Y31876D01*
X27330Y27370D02*
Y27670D01*
X27180Y27520D02*
X27480D01*
X27084Y27125D02*
Y27913D01*
X27576D01*
Y27125D02*
Y27913D01*
X27084Y27125D02*
X27576D01*
X36160Y18826D02*
Y19126D01*
X36010Y18976D02*
X36310D01*
X36406Y18583D02*
Y19371D01*
X35914Y18583D02*
X36406D01*
X35914D02*
Y19371D01*
X36406D01*
X41677Y15603D02*
Y16587D01*
Y15603D02*
X42937D01*
Y16587D01*
X41677D02*
X42937D01*
X42307Y15898D02*
Y16292D01*
X42110Y16095D02*
X42504D01*
X43260Y6940D02*
Y7240D01*
X43110Y7090D02*
X43410D01*
X43506Y6697D02*
Y7485D01*
X43014Y6697D02*
X43506D01*
X43014D02*
Y7485D01*
X43506D01*
X43420Y10830D02*
Y11130D01*
X43270Y10980D02*
X43570D01*
X43174Y10585D02*
Y11373D01*
X43666D01*
Y10585D02*
Y11373D01*
X43174Y10585D02*
X43666D01*
X20388Y21550D02*
X21372D01*
X20388Y20290D02*
Y21550D01*
Y20290D02*
X21372D01*
Y21550D01*
X20683Y20920D02*
X21077D01*
X20880Y20723D02*
Y21117D01*
X21822Y26805D02*
Y28025D01*
X20798Y26805D02*
X21822D01*
X20798D02*
Y28025D01*
X21822D01*
X21310Y27255D02*
Y27555D01*
X21160Y27405D02*
X21460D01*
X24150Y31630D02*
X24450D01*
X24300Y31480D02*
Y31780D01*
X23905Y31876D02*
X24693D01*
Y31384D02*
Y31876D01*
X23905Y31384D02*
X24693D01*
X23905D02*
Y31876D01*
X33530Y20030D02*
Y20330D01*
X33380Y20180D02*
X33680D01*
X33776Y19787D02*
Y20575D01*
X33284Y19787D02*
X33776D01*
X33284D02*
Y20575D01*
X33776D01*
X38335Y17824D02*
Y18316D01*
X37547D02*
X38335D01*
X37547Y17824D02*
Y18316D01*
Y17824D02*
X38335D01*
X37940Y17920D02*
Y18220D01*
X37790Y18070D02*
X38090D01*
X4665Y18814D02*
Y19306D01*
Y18814D02*
X5453D01*
Y19306D01*
X4665D02*
X5453D01*
X5060Y18910D02*
Y19210D01*
X4910Y19060D02*
X5210D01*
X28250Y27360D02*
Y27660D01*
X28100Y27510D02*
X28400D01*
X28496Y27117D02*
Y27905D01*
X28004Y27117D02*
X28496D01*
X28004D02*
Y27905D01*
X28496D01*
X20788Y24565D02*
Y25785D01*
X21812D01*
Y24565D02*
Y25785D01*
X20788Y24565D02*
X21812D01*
X21300Y25035D02*
Y25335D01*
X21150Y25185D02*
X21450D01*
X31714Y18750D02*
X32014D01*
X31864Y18600D02*
Y18900D01*
X31471Y18504D02*
X32259D01*
X31471D02*
Y18996D01*
X32259D01*
Y18504D02*
Y18996D01*
X38105Y16094D02*
Y16586D01*
Y16094D02*
X38893D01*
Y16586D01*
X38105D02*
X38893D01*
X38500Y16190D02*
Y16490D01*
X38350Y16340D02*
X38650D01*
X40970Y10670D02*
X41270D01*
X41120Y10520D02*
Y10820D01*
X40725Y10916D02*
X41513D01*
Y10424D02*
Y10916D01*
X40725Y10424D02*
X41513D01*
X40725D02*
Y10916D01*
D15*
X8694Y32585D02*
G03*
X8700Y29002I-2344J-1796D01*
G01*
X8700Y28290D02*
G03*
X8771Y28119I241J0D01*
G01*
D02*
G03*
X8962Y28040I191J191D01*
G01*
X9159D02*
G03*
X9400Y28140I0J341D01*
G01*
D02*
G03*
X9500Y28381I-241J241D01*
G01*
Y33199D02*
G03*
X9400Y33440I-341J0D01*
G01*
D02*
G03*
X9159Y33540I-241J-241D01*
G01*
X8962D02*
G03*
X8771Y33461I0J-271D01*
G01*
D02*
G03*
X8700Y33290I171J-171D01*
G01*
X9500Y31923D02*
G03*
X9700Y31440I683J0D01*
G01*
Y30140D02*
G03*
X9500Y29657I483J-483D01*
G01*
X43294Y21287D02*
G03*
X43294Y21287I-236J0D01*
G01*
X9500Y28381D02*
Y29540D01*
Y28402D02*
Y29490D01*
X8700Y28290D02*
Y28990D01*
X8962Y28040D02*
X9159D01*
X9500Y28381D02*
Y28402D01*
Y33178D02*
Y33199D01*
X8962Y33540D02*
X9159D01*
X8700Y32590D02*
Y33290D01*
X9500Y32090D02*
Y33178D01*
Y32040D02*
Y33199D01*
Y31923D02*
Y32140D01*
Y29440D02*
Y29657D01*
D20*
X34571Y28521D02*
X34965D01*
X27412Y649D02*
Y1279D01*
X27097Y649D02*
X27412D01*
X27097D02*
Y1279D01*
X27412D01*
X27254Y864D02*
Y1064D01*
X27154Y964D02*
X27354D01*
X28216Y649D02*
Y1279D01*
X27901Y649D02*
X28216D01*
X27901D02*
Y1279D01*
X28216D01*
X28058Y864D02*
Y1064D01*
X27958Y964D02*
X28158D01*
X28763D02*
X28963D01*
X28863Y864D02*
Y1064D01*
X28705Y1279D02*
X29020D01*
X28705Y649D02*
Y1279D01*
Y649D02*
X29020D01*
Y1279D01*
X29824Y649D02*
Y1279D01*
X29509Y649D02*
X29824D01*
X29509D02*
Y1279D01*
X29824D01*
X29667Y864D02*
Y1064D01*
X29567Y964D02*
X29767D01*
X26350D02*
X26550D01*
X26450Y864D02*
Y1064D01*
X26293Y1279D02*
X26607D01*
X26293Y649D02*
Y1279D01*
Y649D02*
X26607D01*
Y1279D01*
X38692Y4775D02*
Y5405D01*
X39007D01*
Y4775D02*
Y5405D01*
X38692Y4775D02*
X39007D01*
X38850Y4990D02*
Y5190D01*
X38750Y5090D02*
X38950D01*
X37182Y4785D02*
Y5415D01*
X37497D01*
Y4785D02*
Y5415D01*
X37182Y4785D02*
X37497D01*
X37339Y5000D02*
Y5200D01*
X37239Y5100D02*
X37439D01*
X40202Y4785D02*
Y5415D01*
X40517D01*
Y4785D02*
Y5415D01*
X40202Y4785D02*
X40517D01*
X40360Y5000D02*
Y5200D01*
X40260Y5100D02*
X40460D01*
X38252Y4785D02*
Y5415D01*
X37937Y4785D02*
X38252D01*
X37937D02*
Y5415D01*
X38252D01*
X38094Y5000D02*
Y5200D01*
X37994Y5100D02*
X38194D01*
X36741Y4785D02*
Y5415D01*
X36427Y4785D02*
X36741D01*
X36427D02*
Y5415D01*
X36741D01*
X36584Y5000D02*
Y5200D01*
X36484Y5100D02*
X36684D01*
X39762Y4785D02*
Y5415D01*
X39447Y4785D02*
X39762D01*
X39447D02*
Y5415D01*
X39762D01*
X39605Y5000D02*
Y5200D01*
X39505Y5100D02*
X39705D01*
X37500Y15050D02*
Y15250D01*
X37400Y15150D02*
X37600D01*
X37185Y14993D02*
Y15308D01*
Y14993D02*
X37815D01*
Y15308D01*
X37185D02*
X37815D01*
X30790Y15070D02*
Y15270D01*
X30690Y15170D02*
X30890D01*
X30475Y15013D02*
Y15328D01*
Y15013D02*
X31105D01*
Y15328D01*
X30475D02*
X31105D01*
X25360Y12910D02*
X26000D01*
Y14370D01*
X25360D02*
X26000D01*
X25360Y12910D02*
Y14370D01*
X39504Y15740D02*
Y16370D01*
X39819D01*
Y15740D02*
Y16370D01*
X39504Y15740D02*
X39819D01*
X39661Y15955D02*
Y16155D01*
X39561Y16055D02*
X39761D01*
X40167Y15740D02*
Y16370D01*
X40482D01*
Y15740D02*
Y16370D01*
X40167Y15740D02*
X40482D01*
X40324Y15955D02*
Y16155D01*
X40224Y16055D02*
X40424D01*
X27935Y15050D02*
Y15250D01*
X27835Y15150D02*
X28035D01*
X27620Y14993D02*
Y15308D01*
Y14993D02*
X28250D01*
Y15308D01*
X27620D02*
X28250D01*
X29295Y15050D02*
Y15250D01*
X29195Y15150D02*
X29395D01*
X28980Y14993D02*
Y15308D01*
Y14993D02*
X29610D01*
Y15308D01*
X28980D02*
X29610D01*
X20545Y22613D02*
X21175D01*
X20545D02*
Y22927D01*
X21175D01*
Y22613D02*
Y22927D01*
X20760Y22770D02*
X20960D01*
X20860Y22670D02*
Y22870D01*
X17585Y17752D02*
X18215D01*
X17585D02*
Y18067D01*
X18215D01*
Y17752D02*
Y18067D01*
X17800Y17910D02*
X18000D01*
X17900Y17810D02*
Y18010D01*
X4530Y12760D02*
X5170D01*
Y14220D01*
X4530D02*
X5170D01*
X4530Y12760D02*
Y14220D01*
X12430Y12760D02*
Y14220D01*
X13070D01*
Y12760D02*
Y14220D01*
X12430Y12760D02*
X13070D01*
X10806Y30297D02*
X14113D01*
X10806D02*
Y33643D01*
X14113D01*
Y30297D02*
Y33643D01*
X12300Y31960D02*
X12600D01*
X12450Y31810D02*
Y32110D01*
X18970Y12850D02*
Y14310D01*
X19610D01*
Y12850D02*
Y14310D01*
X18970Y12850D02*
X19610D01*
X22310Y24900D02*
X22510D01*
X22410Y24800D02*
Y25000D01*
X22253Y24585D02*
X22567D01*
Y25215D01*
X22253D02*
X22567D01*
X22253Y24585D02*
Y25215D01*
X24167Y29799D02*
Y30429D01*
X23853Y29799D02*
X24167D01*
X23853D02*
Y30429D01*
X24167D01*
X24010Y30014D02*
Y30214D01*
X23910Y30114D02*
X24110D01*
X25027Y29799D02*
Y30429D01*
X24713Y29799D02*
X25027D01*
X24713D02*
Y30429D01*
X25027D01*
X24870Y30014D02*
Y30214D01*
X24770Y30114D02*
X24970D01*
X26320Y24450D02*
X26520D01*
X26420Y24350D02*
Y24550D01*
X26263Y24135D02*
X26577D01*
Y24765D01*
X26263D02*
X26577D01*
X26263Y24135D02*
Y24765D01*
X31920Y12950D02*
Y14410D01*
X32560D01*
Y12950D02*
Y14410D01*
X31920Y12950D02*
X32560D01*
X38020Y19438D02*
Y19638D01*
X37920Y19538D02*
X38120D01*
X38335Y19380D02*
Y19695D01*
X37705D02*
X38335D01*
X37705Y19380D02*
Y19695D01*
Y19380D02*
X38335D01*
X38020Y20116D02*
Y20316D01*
X37920Y20216D02*
X38120D01*
X38335Y20058D02*
Y20373D01*
X37705D02*
X38335D01*
X37705Y20058D02*
Y20373D01*
Y20058D02*
X38335D01*
X40490Y23770D02*
X40690D01*
X40590Y23670D02*
Y23870D01*
X40433Y23455D02*
X40747D01*
Y24085D01*
X40433D02*
X40747D01*
X40433Y23455D02*
Y24085D01*
X42280Y7040D02*
X42480D01*
X42380Y6940D02*
Y7140D01*
X42223Y7355D02*
X42537D01*
X42223Y6725D02*
Y7355D01*
Y6725D02*
X42537D01*
Y7355D01*
X42430Y11026D02*
X42630D01*
X42530Y10926D02*
Y11126D01*
X42372Y10711D02*
X42687D01*
Y11341D01*
X42372D02*
X42687D01*
X42372Y10711D02*
Y11341D01*
X43517Y16055D02*
X43717D01*
X43617Y15955D02*
Y16155D01*
X43657Y15740D02*
X43774D01*
Y16370D01*
X43657D02*
X43774D01*
X43657Y15740D02*
Y16370D01*
X46593Y18971D02*
Y19171D01*
X46493Y19071D02*
X46693D01*
X46908Y18913D02*
Y19228D01*
X46278D02*
X46908D01*
X46278Y18913D02*
Y19228D01*
Y18913D02*
X46908D01*
X20860Y21990D02*
Y22190D01*
X20760Y22090D02*
X20960D01*
X21175Y21932D02*
Y22247D01*
X20545D02*
X21175D01*
X20545Y21932D02*
Y22247D01*
Y21932D02*
X21175D01*
X14890Y24180D02*
X15090D01*
X14990Y24080D02*
Y24280D01*
X14833Y24495D02*
X15148D01*
X14833Y23865D02*
Y24495D01*
Y23865D02*
X15148D01*
Y24495D01*
X13900Y18650D02*
Y18850D01*
X13800Y18750D02*
X14000D01*
X13585Y18593D02*
Y18908D01*
Y18593D02*
X14215D01*
Y18908D01*
X13585D02*
X14215D01*
X19320Y22680D02*
Y22880D01*
X19220Y22780D02*
X19420D01*
X19005Y22623D02*
Y22938D01*
Y22623D02*
X19635D01*
Y22938D01*
X19005D02*
X19635D01*
X18504Y19330D02*
Y19530D01*
X18404Y19430D02*
X18604D01*
X18819Y19273D02*
Y19587D01*
X18189D02*
X18819D01*
X18189Y19273D02*
Y19587D01*
Y19273D02*
X18819D01*
X2835Y18707D02*
X3465D01*
Y18393D02*
Y18707D01*
X2835Y18393D02*
X3465D01*
X2835D02*
Y18707D01*
X3050Y18550D02*
X3250D01*
X3150Y18450D02*
Y18650D01*
X2835Y19358D02*
X3465D01*
Y19043D02*
Y19358D01*
X2835Y19043D02*
X3465D01*
X2835D02*
Y19358D01*
X3050Y19200D02*
X3250D01*
X3150Y19100D02*
Y19300D01*
X5145Y15022D02*
X5775D01*
X5145D02*
Y15337D01*
X5775D01*
Y15022D02*
Y15337D01*
X5360Y15180D02*
X5560D01*
X5460Y15080D02*
Y15280D01*
X6815Y15338D02*
X7445D01*
Y15023D02*
Y15338D01*
X6815Y15023D02*
X7445D01*
X6815D02*
Y15338D01*
X7030Y15180D02*
X7230D01*
X7130Y15080D02*
Y15280D01*
X8375Y15338D02*
X9005D01*
Y15023D02*
Y15338D01*
X8375Y15023D02*
X9005D01*
X8375D02*
Y15338D01*
X8590Y15180D02*
X8790D01*
X8690Y15080D02*
Y15280D01*
X9935Y15338D02*
X10565D01*
Y15023D02*
Y15338D01*
X9935Y15023D02*
X10565D01*
X9935D02*
Y15338D01*
X10150Y15180D02*
X10350D01*
X10250Y15080D02*
Y15280D01*
X14027Y15267D02*
X14657D01*
Y14953D02*
Y15267D01*
X14027Y14953D02*
X14657D01*
X14027D02*
Y15267D01*
X14242Y15110D02*
X14442D01*
X14342Y15010D02*
Y15210D01*
X12670Y14952D02*
X13300D01*
X12670D02*
Y15267D01*
X13300D01*
Y14952D02*
Y15267D01*
X12885Y15110D02*
X13085D01*
X12985Y15010D02*
Y15210D01*
X15384Y15267D02*
X16013D01*
Y14953D02*
Y15267D01*
X15384Y14953D02*
X16013D01*
X15384D02*
Y15267D01*
X15599Y15110D02*
X15799D01*
X15699Y15010D02*
Y15210D01*
X16740Y15267D02*
X17370D01*
Y14953D02*
Y15267D01*
X16740Y14953D02*
X17370D01*
X16740D02*
Y15267D01*
X16955Y15110D02*
X17155D01*
X17055Y15010D02*
Y15210D01*
X19365Y14983D02*
X19995D01*
X19365D02*
Y15297D01*
X19995D01*
Y14983D02*
Y15297D01*
X19580Y15140D02*
X19780D01*
X19680Y15040D02*
Y15240D01*
X21200Y15297D02*
X21830D01*
Y14983D02*
Y15297D01*
X21200Y14983D02*
X21830D01*
X21200D02*
Y15297D01*
X21415Y15140D02*
X21615D01*
X21515Y15040D02*
Y15240D01*
X23653Y26841D02*
Y27471D01*
X23967D01*
Y26841D02*
Y27471D01*
X23653Y26841D02*
X23967D01*
X23810Y27056D02*
Y27256D01*
X23710Y27156D02*
X23910D01*
X22560Y15297D02*
X23190D01*
Y14983D02*
Y15297D01*
X22560Y14983D02*
X23190D01*
X22560D02*
Y15297D01*
X22775Y15140D02*
X22975D01*
X22875Y15040D02*
Y15240D01*
X24025Y15297D02*
X24655D01*
Y14983D02*
Y15297D01*
X24025Y14983D02*
X24655D01*
X24025D02*
Y15297D01*
X24240Y15140D02*
X24440D01*
X24340Y15040D02*
Y15240D01*
X24918Y24145D02*
Y24775D01*
X24603Y24145D02*
X24918D01*
X24603D02*
Y24775D01*
X24918D01*
X24760Y24360D02*
Y24560D01*
X24660Y24460D02*
X24860D01*
X25403Y24145D02*
Y24775D01*
X25717D01*
Y24145D02*
Y24775D01*
X25403Y24145D02*
X25717D01*
X25560Y24360D02*
Y24560D01*
X25460Y24460D02*
X25660D01*
X25755Y15002D02*
X26385D01*
X25755D02*
Y15317D01*
X26385D01*
Y15002D02*
Y15317D01*
X25970Y15160D02*
X26170D01*
X26070Y15060D02*
Y15260D01*
X32795Y15002D02*
X33425D01*
X32795D02*
Y15317D01*
X33425D01*
Y15002D02*
Y15317D01*
X33010Y15160D02*
X33210D01*
X33110Y15060D02*
Y15260D01*
X34260Y15328D02*
X34890D01*
Y15013D02*
Y15328D01*
X34260Y15013D02*
X34890D01*
X34260D02*
Y15328D01*
X34475Y15170D02*
X34675D01*
X34575Y15070D02*
Y15270D01*
X35640Y15328D02*
X36270D01*
Y15013D02*
Y15328D01*
X35640Y15013D02*
X36270D01*
X35640D02*
Y15328D01*
X35855Y15170D02*
X36055D01*
X35955Y15070D02*
Y15270D01*
X37190Y23764D02*
X37390D01*
X37290Y23664D02*
Y23864D01*
X37133Y24079D02*
X37448D01*
X37133Y23449D02*
Y24079D01*
Y23449D02*
X37448D01*
Y24079D01*
X37890Y23770D02*
X38090D01*
X37990Y23670D02*
Y23870D01*
X37833Y24085D02*
X38147D01*
X37833Y23455D02*
Y24085D01*
Y23455D02*
X38147D01*
Y24085D01*
X38539Y23770D02*
X38739D01*
X38639Y23670D02*
Y23870D01*
X38481Y23455D02*
X38796D01*
Y24085D01*
X38481D02*
X38796D01*
X38481Y23455D02*
Y24085D01*
X39187Y23770D02*
X39387D01*
X39287Y23670D02*
Y23870D01*
X39130Y24085D02*
X39445D01*
X39130Y23455D02*
Y24085D01*
Y23455D02*
X39445D01*
Y24085D01*
X38020Y18760D02*
Y18960D01*
X37920Y18860D02*
X38120D01*
X37705Y18702D02*
Y19017D01*
Y18702D02*
X38335D01*
Y19017D01*
X37705D02*
X38335D01*
X38020Y20794D02*
Y20994D01*
X37920Y20894D02*
X38120D01*
X37705Y20736D02*
Y21051D01*
Y20736D02*
X38335D01*
Y21051D01*
X37705D02*
X38335D01*
X38020Y22150D02*
Y22350D01*
X37920Y22250D02*
X38120D01*
X37705Y22093D02*
Y22408D01*
Y22093D02*
X38335D01*
Y22408D01*
X37705D02*
X38335D01*
X38020Y21472D02*
Y21672D01*
X37920Y21572D02*
X38120D01*
X37705Y21414D02*
Y21729D01*
Y21414D02*
X38335D01*
Y21729D01*
X37705D02*
X38335D01*
X39836Y23770D02*
X40036D01*
X39936Y23670D02*
Y23870D01*
X39778Y24085D02*
X40093D01*
X39778Y23455D02*
Y24085D01*
Y23455D02*
X40093D01*
Y24085D01*
X40920Y16060D02*
X41120D01*
X41020Y15960D02*
Y16160D01*
X41178Y15745D02*
Y16375D01*
X40863D02*
X41178D01*
X40863Y15745D02*
X41178D01*
X40863D02*
Y16375D01*
X42420Y23770D02*
X42620D01*
X42520Y23670D02*
Y23870D01*
X42363Y24085D02*
X42677D01*
X42363Y23455D02*
Y24085D01*
Y23455D02*
X42677D01*
Y24085D01*
X41780Y23770D02*
X41980D01*
X41880Y23670D02*
Y23870D01*
X41723Y24085D02*
X42038D01*
X41723Y23455D02*
Y24085D01*
Y23455D02*
X42038D01*
Y24085D01*
X41130Y23770D02*
X41330D01*
X41230Y23670D02*
Y23870D01*
X41073Y23455D02*
X41387D01*
Y24085D01*
X41073D02*
X41387D01*
X41073Y23455D02*
Y24085D01*
X42280Y17150D02*
Y17350D01*
X42180Y17250D02*
X42380D01*
X41965Y17093D02*
Y17407D01*
Y17093D02*
X42595D01*
Y17407D01*
X41965D02*
X42595D01*
X44351Y23776D02*
X44551D01*
X44451Y23676D02*
Y23876D01*
X44294Y23461D02*
X44609D01*
Y24091D01*
X44294D02*
X44609D01*
X44294Y23461D02*
Y24091D01*
X45000Y23775D02*
X45200D01*
X45100Y23675D02*
Y23875D01*
X44943Y24090D02*
X45258D01*
X44943Y23460D02*
Y24090D01*
Y23460D02*
X45258D01*
Y24090D01*
X43066Y23770D02*
X43266D01*
X43166Y23670D02*
Y23870D01*
X43008Y23455D02*
X43323D01*
Y24085D01*
X43008D02*
X43323D01*
X43008Y23455D02*
Y24085D01*
X43714Y23770D02*
X43914D01*
X43814Y23670D02*
Y23870D01*
X43657Y24085D02*
X43972D01*
X43657Y23455D02*
Y24085D01*
Y23455D02*
X43972D01*
Y24085D01*
X45673Y23770D02*
X45873D01*
X45773Y23670D02*
Y23870D01*
X45615Y24085D02*
X45930D01*
X45615Y23455D02*
Y24085D01*
Y23455D02*
X45930D01*
Y24085D01*
X46594Y16138D02*
Y16338D01*
X46494Y16238D02*
X46694D01*
X46279Y16081D02*
Y16396D01*
Y16081D02*
X46909D01*
Y16396D01*
X46279D02*
X46909D01*
X46594Y16846D02*
Y17046D01*
X46494Y16946D02*
X46694D01*
X46279Y16789D02*
Y17104D01*
Y16789D02*
X46909D01*
Y17104D01*
X46279D02*
X46909D01*
X46593Y17554D02*
Y17754D01*
X46493Y17654D02*
X46693D01*
X46908Y17497D02*
Y17812D01*
X46278D02*
X46908D01*
X46278Y17497D02*
Y17812D01*
Y17497D02*
X46908D01*
X46594Y18262D02*
Y18462D01*
X46494Y18362D02*
X46694D01*
X46279Y18205D02*
Y18520D01*
Y18205D02*
X46909D01*
Y18520D01*
X46279D02*
X46909D01*
X46594Y19679D02*
Y19879D01*
X46494Y19779D02*
X46694D01*
X46279Y19621D02*
Y19936D01*
Y19621D02*
X46909D01*
Y19936D01*
X46279D02*
X46909D01*
X46593Y20387D02*
Y20587D01*
X46493Y20487D02*
X46693D01*
X46908Y20329D02*
Y20644D01*
X46278D02*
X46908D01*
X46278Y20329D02*
Y20644D01*
Y20329D02*
X46908D01*
X46593Y21095D02*
Y21295D01*
X46908Y21037D02*
Y21352D01*
X46278D02*
X46908D01*
X46278Y21037D02*
Y21352D01*
Y21037D02*
X46908D01*
X46493Y21195D02*
X46693D01*
X46593Y22511D02*
Y22711D01*
X46493Y22611D02*
X46693D01*
X46908Y22454D02*
Y22769D01*
X46278D02*
X46908D01*
X46278Y22454D02*
Y22769D01*
Y22454D02*
X46908D01*
X46321Y23770D02*
X46521D01*
X46421Y23670D02*
Y23870D01*
X46264Y23455D02*
X46579D01*
Y24085D01*
X46264D02*
X46579D01*
X46264Y23455D02*
Y24085D01*
X46970Y23770D02*
X47170D01*
X47070Y23670D02*
Y23870D01*
X46913Y24085D02*
X47228D01*
X46913Y23455D02*
Y24085D01*
Y23455D02*
X47228D01*
Y24085D01*
X22020Y20920D02*
X22220D01*
X22120Y20820D02*
Y21020D01*
X21963Y21235D02*
X22278D01*
X21963Y20605D02*
Y21235D01*
Y20605D02*
X22278D01*
Y21235D01*
X22992Y29800D02*
Y30430D01*
X23307D01*
Y29800D02*
Y30430D01*
X22992Y29800D02*
X23307D01*
X23150Y30015D02*
Y30215D01*
X23050Y30115D02*
X23250D01*
X44167Y16054D02*
X44367D01*
X44267Y15954D02*
Y16154D01*
X44109Y16369D02*
X44424D01*
X44109Y15739D02*
Y16369D01*
Y15739D02*
X44424D01*
Y16369D01*
X44817Y16054D02*
X45017D01*
X44917Y15954D02*
Y16154D01*
X44759Y16369D02*
X45074D01*
X44759Y15739D02*
Y16369D01*
Y15739D02*
X45074D01*
Y16369D01*
X46593Y15430D02*
Y15630D01*
X46493Y15530D02*
X46693D01*
X46908Y15373D02*
Y15687D01*
X46278D02*
X46908D01*
X46278Y15373D02*
Y15687D01*
Y15373D02*
X46908D01*
X46593Y21803D02*
Y22003D01*
X46493Y21903D02*
X46693D01*
X46908Y21746D02*
Y22060D01*
X46278D02*
X46908D01*
X46278Y21746D02*
Y22060D01*
Y21746D02*
X46908D01*
D21*
X43668Y19102D02*
Y21898D01*
X40872D02*
X43668D01*
X40872Y19102D02*
Y21898D01*
Y19102D02*
X43668D01*
D147*
X43966Y5760D02*
Y13477D01*
X46722D01*
Y5760D02*
Y13477D01*
X43966Y5760D02*
X46722D01*
M02*
