G04*
G04 #@! TF.GenerationSoftware,Altium Limited,Altium Designer,20.2.6 (244)*
G04*
G04 Layer_Color=128*
%FSLAX24Y24*%
%MOIN*%
G70*
G04*
G04 #@! TF.SameCoordinates,6B0B31F8-34BC-4807-AF79-D9433D138100*
G04*
G04*
G04 #@! TF.FilePolarity,Positive*
G04*
G01*
G75*
%ADD158C,0.0020*%
D158*
X34434Y32516D02*
X35103D01*
X34768Y32182D02*
Y32851D01*
X34593Y31200D02*
X34907D01*
X34750Y31043D02*
Y31357D01*
X32736Y29528D02*
X33050D01*
X32893Y29371D02*
Y29685D01*
X36486Y29528D02*
X36800D01*
X36643Y29371D02*
Y29685D01*
X36536Y31328D02*
X36850D01*
X36693Y31171D02*
Y31485D01*
X32746Y31328D02*
X33140D01*
X32943Y31131D02*
Y31525D01*
X34493Y28717D02*
X35044D01*
X34768Y28442D02*
Y28993D01*
X37467Y2100D02*
X37967D01*
X37717Y1850D02*
Y2350D01*
X35467Y2100D02*
X35967D01*
X35717Y1850D02*
Y2350D01*
X19354Y4860D02*
X19866D01*
X19610Y4604D02*
Y5116D01*
X19354Y7860D02*
X19866D01*
X19610Y7604D02*
Y8116D01*
X19354Y11860D02*
X19866D01*
X19610Y11604D02*
Y12116D01*
X22354Y5860D02*
X22866D01*
X22610Y5604D02*
Y6116D01*
X22354Y11860D02*
X22866D01*
X22610Y11604D02*
Y12116D01*
X39810Y2100D02*
X40310D01*
X40060Y1850D02*
Y2350D01*
X41810Y2100D02*
X42310D01*
X42060Y1850D02*
Y2350D01*
X31123Y2100D02*
X31623D01*
X31373Y1850D02*
Y2350D01*
X33123Y2100D02*
X33623D01*
X33373Y1850D02*
Y2350D01*
X18345Y2090D02*
X18845D01*
X18595Y1840D02*
Y2340D01*
X20345Y2090D02*
X20845D01*
X20595Y1840D02*
Y2340D01*
X5310Y2090D02*
X5810D01*
X5560Y1840D02*
Y2340D01*
X7310Y2090D02*
X7810D01*
X7560Y1840D02*
Y2340D01*
X11655Y2090D02*
X12155D01*
X11905Y1840D02*
Y2340D01*
X9655Y2090D02*
X10155D01*
X9905Y1840D02*
Y2340D01*
X16000Y2090D02*
X16500D01*
X16250Y1840D02*
Y2340D01*
X14000Y2090D02*
X14500D01*
X14250Y1840D02*
Y2340D01*
X22690Y2090D02*
X23190D01*
X22940Y1840D02*
Y2340D01*
X24690Y2090D02*
X25190D01*
X24940Y1840D02*
Y2340D01*
X45869Y1180D02*
X47051D01*
X46460Y589D02*
Y1771D01*
X594Y1180D02*
X1775D01*
X1184Y589D02*
Y1771D01*
X26375Y30050D02*
X27325D01*
X26850Y29575D02*
Y30525D01*
X29375Y30050D02*
X30325D01*
X29850Y29575D02*
Y30525D01*
X21010Y19530D02*
X21290D01*
X21150Y19390D02*
Y19670D01*
X21010Y18530D02*
X21290D01*
X21150Y18390D02*
Y18670D01*
X43035Y27140D02*
X43429D01*
X43232Y26943D02*
Y27337D01*
X42035Y27140D02*
X42429D01*
X42232Y26943D02*
Y27337D01*
X41035Y27140D02*
X41429D01*
X41232Y26943D02*
Y27337D01*
X40035Y27140D02*
X40429D01*
X40232Y26943D02*
Y27337D01*
X39535Y26140D02*
X39929D01*
X39732Y25943D02*
Y26337D01*
X40535Y26140D02*
X40929D01*
X40732Y25943D02*
Y26337D01*
X42535Y26140D02*
X42929D01*
X42732Y25943D02*
Y26337D01*
X41535Y26140D02*
X41929D01*
X41732Y25943D02*
Y26337D01*
X43872Y31569D02*
X44305D01*
X44088Y31353D02*
Y31786D01*
X42872Y31569D02*
X43305D01*
X43088Y31353D02*
Y31786D01*
X39655Y31569D02*
X40088D01*
X39872Y31353D02*
Y31786D01*
X38655Y31569D02*
X39088D01*
X38872Y31353D02*
Y31786D01*
X38234Y28439D02*
X38628D01*
X38431Y28242D02*
Y28636D01*
X44332Y28439D02*
X44726D01*
X44529Y28242D02*
Y28636D01*
X38580Y29640D02*
X39880D01*
X39230Y28990D02*
Y30290D01*
X43080Y29640D02*
X44380D01*
X43730Y28990D02*
Y30290D01*
X8854Y4860D02*
X9366D01*
X9110Y4604D02*
Y5116D01*
X8854Y7860D02*
X9366D01*
X9110Y7604D02*
Y8116D01*
X11854Y5860D02*
X12366D01*
X12110Y5604D02*
Y6116D01*
X11854Y11860D02*
X12366D01*
X12110Y11604D02*
Y12116D01*
X8854Y11860D02*
X9366D01*
X9110Y11604D02*
Y12116D01*
X17104Y11860D02*
X17616D01*
X17360Y11604D02*
Y12116D01*
X17104Y5860D02*
X17616D01*
X17360Y5604D02*
Y6116D01*
X14104Y11860D02*
X14616D01*
X14360Y11604D02*
Y12116D01*
X14104Y7860D02*
X14616D01*
X14360Y7604D02*
Y8116D01*
X14104Y4860D02*
X14616D01*
X14360Y4604D02*
Y5116D01*
X27604Y11860D02*
X28116D01*
X27860Y11604D02*
Y12116D01*
X27604Y5860D02*
X28116D01*
X27860Y5604D02*
Y6116D01*
X24604Y11860D02*
X25116D01*
X24860Y11604D02*
Y12116D01*
X24604Y7860D02*
X25116D01*
X24860Y7604D02*
Y8116D01*
X24604Y4860D02*
X25116D01*
X24860Y4604D02*
Y5116D01*
X29854Y4860D02*
X30366D01*
X30110Y4604D02*
Y5116D01*
X29854Y7860D02*
X30366D01*
X30110Y7604D02*
Y8116D01*
X29854Y11860D02*
X30366D01*
X30110Y11604D02*
Y12116D01*
X32854Y5860D02*
X33366D01*
X33110Y5604D02*
Y6116D01*
X32854Y11860D02*
X33366D01*
X33110Y11604D02*
Y12116D01*
X44183Y6650D02*
X44497D01*
X44340Y6493D02*
Y6807D01*
X44183Y7650D02*
X44497D01*
X44340Y7493D02*
Y7807D01*
X44183Y9650D02*
X44497D01*
X44340Y9493D02*
Y9807D01*
X44183Y11650D02*
X44497D01*
X44340Y11493D02*
Y11807D01*
X623Y27850D02*
X977D01*
X800Y27673D02*
Y28027D01*
X623Y28850D02*
X977D01*
X800Y28673D02*
Y29027D01*
X623Y29850D02*
X977D01*
X800Y29673D02*
Y30027D01*
X623Y19210D02*
X977D01*
X800Y19033D02*
Y19387D01*
X623Y18210D02*
X977D01*
X800Y18033D02*
Y18387D01*
X623Y17210D02*
X977D01*
X800Y17033D02*
Y17387D01*
X623Y16080D02*
X977D01*
X800Y15903D02*
Y16257D01*
X623Y15080D02*
X977D01*
X800Y14903D02*
Y15257D01*
X623Y14080D02*
X977D01*
X800Y13903D02*
Y14257D01*
X45881Y32690D02*
X47062D01*
X46471Y32100D02*
Y33281D01*
X594Y32676D02*
X1775D01*
X1184Y32086D02*
Y33267D01*
X45869Y1180D02*
X47051D01*
X46460Y589D02*
Y1771D01*
X594Y1180D02*
X1775D01*
X1184Y589D02*
Y1771D01*
X1835Y7050D02*
X1985D01*
X1910Y6975D02*
Y7125D01*
X27110Y31530D02*
X27210D01*
X27160Y31480D02*
Y31580D01*
X32110Y1530D02*
X32210D01*
X32160Y1480D02*
Y1580D01*
X31110Y26530D02*
X31210D01*
X31160Y26480D02*
Y26580D01*
X27110Y32530D02*
X27210D01*
X27160Y32480D02*
Y32580D01*
X26110Y32530D02*
X26210D01*
X26160Y32480D02*
Y32580D01*
X27110Y20530D02*
X27210D01*
X27160Y20480D02*
Y20580D01*
X27110Y19530D02*
X27210D01*
X27160Y19480D02*
Y19580D01*
X8875Y13180D02*
X9025D01*
X8950Y13105D02*
Y13255D01*
X28575Y11490D02*
X28725D01*
X28650Y11415D02*
Y11565D01*
X34910Y11000D02*
X35060D01*
X34985Y10925D02*
Y11075D01*
X33705Y10950D02*
X33855D01*
X33780Y10875D02*
Y11025D01*
X34910Y10120D02*
X35060D01*
X34985Y10045D02*
Y10195D01*
X3320Y12561D02*
X3470D01*
X3395Y12486D02*
Y12636D01*
X4475Y10960D02*
X4625D01*
X4550Y10885D02*
Y11035D01*
X2765Y10880D02*
X2915D01*
X2840Y10805D02*
Y10955D01*
X4635Y9720D02*
X4785D01*
X4710Y9645D02*
Y9795D01*
X725Y11030D02*
X875D01*
X800Y10955D02*
Y11105D01*
X7925Y11820D02*
X8075D01*
X8000Y11745D02*
Y11895D01*
X18495Y13740D02*
X18645D01*
X18570Y13665D02*
Y13815D01*
X21955Y12560D02*
X22105D01*
X22030Y12485D02*
Y12635D01*
X14775Y13020D02*
X14925D01*
X14850Y12945D02*
Y13095D01*
X15455Y13025D02*
X15605D01*
X15530Y12950D02*
Y13100D01*
X7725Y12490D02*
X7875D01*
X7800Y12415D02*
Y12565D01*
X1935Y11540D02*
X2085D01*
X2010Y11465D02*
Y11615D01*
X1475Y11610D02*
X1625D01*
X1550Y11535D02*
Y11685D01*
X1800Y8980D02*
X1950D01*
X1875Y8905D02*
Y9055D01*
X3315Y11400D02*
X3465D01*
X3390Y11325D02*
Y11475D01*
X22860Y13530D02*
X22960D01*
X22910Y13480D02*
Y13580D01*
X20360Y27780D02*
X20460D01*
X20410Y27730D02*
Y27830D01*
X20110Y27780D02*
X20210D01*
X20160Y27730D02*
Y27830D01*
X20110Y28030D02*
X20210D01*
X20160Y27980D02*
Y28080D01*
X20110Y28280D02*
X20210D01*
X20160Y28230D02*
Y28330D01*
X26110Y31530D02*
X26210D01*
X26160Y31480D02*
Y31580D01*
X24110Y19530D02*
X24210D01*
X24160Y19480D02*
Y19580D01*
X24110Y20530D02*
X24210D01*
X24160Y20480D02*
Y20580D01*
X22110Y13530D02*
X22210D01*
X22160Y13480D02*
Y13580D01*
X22610Y13280D02*
X22710D01*
X22660Y13230D02*
Y13330D01*
X22860Y13280D02*
X22960D01*
X22910Y13230D02*
Y13330D01*
X22610Y13530D02*
X22710D01*
X22660Y13480D02*
Y13580D01*
X4110Y2530D02*
X4210D01*
X4160Y2480D02*
Y2580D01*
X3110Y23530D02*
X3210D01*
X3160Y23480D02*
Y23580D01*
X4110Y4530D02*
X4210D01*
X4160Y4480D02*
Y4580D01*
X4110Y3530D02*
X4210D01*
X4160Y3480D02*
Y3580D01*
X4110Y530D02*
X4210D01*
X4160Y480D02*
Y580D01*
X3110Y24530D02*
X3210D01*
X3160Y24480D02*
Y24580D01*
X3110Y32530D02*
X3210D01*
X3160Y32480D02*
Y32580D01*
X3110Y31530D02*
X3210D01*
X3160Y31480D02*
Y31580D01*
X3110Y22530D02*
X3210D01*
X3160Y22480D02*
Y22580D01*
X4110Y7530D02*
X4210D01*
X4160Y7480D02*
Y7580D01*
X4110Y5530D02*
X4210D01*
X4160Y5480D02*
Y5580D01*
X4110Y1530D02*
X4210D01*
X4160Y1480D02*
Y1580D01*
X37635Y5970D02*
X37785D01*
X37710Y5895D02*
Y6045D01*
X43110Y4530D02*
X43210D01*
X43160Y4480D02*
Y4580D01*
X43110Y2530D02*
X43210D01*
X43160Y2480D02*
Y2580D01*
X43110Y8530D02*
X43210D01*
X43160Y8480D02*
Y8580D01*
X43110Y1530D02*
X43210D01*
X43160Y1480D02*
Y1580D01*
X42110Y13530D02*
X42210D01*
X42160Y13480D02*
Y13580D01*
X42110Y12530D02*
X42210D01*
X42160Y12480D02*
Y12580D01*
X42110Y8530D02*
X42210D01*
X42160Y8480D02*
Y8580D01*
X43110Y12530D02*
X43210D01*
X43160Y12480D02*
Y12580D01*
X42110Y4530D02*
X42210D01*
X42160Y4480D02*
Y4580D01*
X41110Y4530D02*
X41210D01*
X41160Y4480D02*
Y4580D01*
X41110Y2530D02*
X41210D01*
X41160Y2480D02*
Y2580D01*
X41110Y3530D02*
X41210D01*
X41160Y3480D02*
Y3580D01*
X43110Y3530D02*
X43210D01*
X43160Y3480D02*
Y3580D01*
X28610Y13530D02*
X28710D01*
X28660Y13480D02*
Y13580D01*
X29110Y13530D02*
X29210D01*
X29160Y13480D02*
Y13580D01*
X28860Y13530D02*
X28960D01*
X28910Y13480D02*
Y13580D01*
X45110Y13530D02*
X45210D01*
X45160Y13480D02*
Y13580D01*
X45110Y6530D02*
X45210D01*
X45160Y6480D02*
Y6580D01*
X45110Y3530D02*
X45210D01*
X45160Y3480D02*
Y3580D01*
X45110Y7530D02*
X45210D01*
X45160Y7480D02*
Y7580D01*
X45110Y26530D02*
X45210D01*
X45160Y26480D02*
Y26580D01*
X43110Y19530D02*
X43210D01*
X43160Y19480D02*
Y19580D01*
X45110Y11530D02*
X45210D01*
X45160Y11480D02*
Y11580D01*
X44110Y8530D02*
X44210D01*
X44160Y8480D02*
Y8580D01*
X44110Y530D02*
X44210D01*
X44160Y480D02*
Y580D01*
X44110Y12530D02*
X44210D01*
X44160Y12480D02*
Y12580D01*
X43110Y13530D02*
X43210D01*
X43160Y13480D02*
Y13580D01*
X45110Y4530D02*
X45210D01*
X45160Y4480D02*
Y4580D01*
X45110Y8530D02*
X45210D01*
X45160Y8480D02*
Y8580D01*
X45110Y12530D02*
X45210D01*
X45160Y12480D02*
Y12580D01*
X44110Y13530D02*
X44210D01*
X44160Y13480D02*
Y13580D01*
X45110Y2530D02*
X45210D01*
X45160Y2480D02*
Y2580D01*
X45110Y25530D02*
X45210D01*
X45160Y25480D02*
Y25580D01*
X11895Y15750D02*
X12045D01*
X11970Y15675D02*
Y15825D01*
X15620Y16715D02*
X15770D01*
X15695Y16640D02*
Y16790D01*
X46110Y4530D02*
X46210D01*
X46160Y4480D02*
Y4580D01*
X46110Y26530D02*
X46210D01*
X46160Y26480D02*
Y26580D01*
X46110Y8530D02*
X46210D01*
X46160Y8480D02*
Y8580D01*
X45110Y27530D02*
X45210D01*
X45160Y27480D02*
Y27580D01*
X46110Y29530D02*
X46210D01*
X46160Y29480D02*
Y29580D01*
X46110Y12530D02*
X46210D01*
X46160Y12480D02*
Y12580D01*
X46110Y6530D02*
X46210D01*
X46160Y6480D02*
Y6580D01*
X45110Y29530D02*
X45210D01*
X45160Y29480D02*
Y29580D01*
X46110Y25530D02*
X46210D01*
X46160Y25480D02*
Y25580D01*
X15620Y16445D02*
X15770D01*
X15695Y16370D02*
Y16520D01*
X46110Y7530D02*
X46210D01*
X46160Y7480D02*
Y7580D01*
X46110Y3530D02*
X46210D01*
X46160Y3480D02*
Y3580D01*
X46110Y11530D02*
X46210D01*
X46160Y11480D02*
Y11580D01*
X46110Y13530D02*
X46210D01*
X46160Y13480D02*
Y13580D01*
X38110Y12530D02*
X38210D01*
X38160Y12480D02*
Y12580D01*
X37110Y22530D02*
X37210D01*
X37160Y22480D02*
Y22580D01*
X38110Y7530D02*
X38210D01*
X38160Y7480D02*
Y7580D01*
X36110Y20530D02*
X36210D01*
X36160Y20480D02*
Y20580D01*
X37110Y21530D02*
X37210D01*
X37160Y21480D02*
Y21580D01*
X38110Y9530D02*
X38210D01*
X38160Y9480D02*
Y9580D01*
X38110Y8530D02*
X38210D01*
X38160Y8480D02*
Y8580D01*
X37110Y8530D02*
X37210D01*
X37160Y8480D02*
Y8580D01*
X38110Y10530D02*
X38210D01*
X38160Y10480D02*
Y10580D01*
X37110Y28530D02*
X37210D01*
X37160Y28480D02*
Y28580D01*
X37110Y19530D02*
X37210D01*
X37160Y19480D02*
Y19580D01*
X37110Y9530D02*
X37210D01*
X37160Y9480D02*
Y9580D01*
X37110Y7530D02*
X37210D01*
X37160Y7480D02*
Y7580D01*
X37110Y20530D02*
X37210D01*
X37160Y20480D02*
Y20580D01*
X37110Y24530D02*
X37210D01*
X37160Y24480D02*
Y24580D01*
X38110Y11530D02*
X38210D01*
X38160Y11480D02*
Y11580D01*
X110Y3530D02*
X210D01*
X160Y3480D02*
Y3580D01*
X110Y5530D02*
X210D01*
X160Y5480D02*
Y5580D01*
X110Y14530D02*
X210D01*
X160Y14480D02*
Y14580D01*
X110Y15530D02*
X210D01*
X160Y15480D02*
Y15580D01*
X110Y13530D02*
X210D01*
X160Y13480D02*
Y13580D01*
X110Y12530D02*
X210D01*
X160Y12480D02*
Y12580D01*
X110Y7530D02*
X210D01*
X160Y7480D02*
Y7580D01*
X110Y4530D02*
X210D01*
X160Y4480D02*
Y4580D01*
X110Y11530D02*
X210D01*
X160Y11480D02*
Y11580D01*
X110Y2530D02*
X210D01*
X160Y2480D02*
Y2580D01*
X110Y9530D02*
X210D01*
X160Y9480D02*
Y9580D01*
X38110Y31530D02*
X38210D01*
X38160Y31480D02*
Y31580D01*
X41110Y1530D02*
X41210D01*
X41160Y1480D02*
Y1580D01*
X40110Y7530D02*
X40210D01*
X40160Y7480D02*
Y7580D01*
X38110Y32530D02*
X38210D01*
X38160Y32480D02*
Y32580D01*
X39110Y11530D02*
X39210D01*
X39160Y11480D02*
Y11580D01*
X39110Y3530D02*
X39210D01*
X39160Y3480D02*
Y3580D01*
X40110Y3530D02*
X40210D01*
X40160Y3480D02*
Y3580D01*
X39110Y12530D02*
X39210D01*
X39160Y12480D02*
Y12580D01*
X39110Y8530D02*
X39210D01*
X39160Y8480D02*
Y8580D01*
X39110Y1530D02*
X39210D01*
X39160Y1480D02*
Y1580D01*
X39110Y10530D02*
X39210D01*
X39160Y10480D02*
Y10580D01*
X39110Y2530D02*
X39210D01*
X39160Y2480D02*
Y2580D01*
X40110Y8530D02*
X40210D01*
X40160Y8480D02*
Y8580D01*
X39110Y9530D02*
X39210D01*
X39160Y9480D02*
Y9580D01*
X39110Y7530D02*
X39210D01*
X39160Y7480D02*
Y7580D01*
X8610Y17280D02*
X8710D01*
X8660Y17230D02*
Y17330D01*
X19860Y28030D02*
X19960D01*
X19910Y27980D02*
Y28080D01*
X8860Y17280D02*
X8960D01*
X8910Y17230D02*
Y17330D01*
X8360Y17280D02*
X8460D01*
X8410Y17230D02*
Y17330D01*
X19860Y27780D02*
X19960D01*
X19910Y27730D02*
Y27830D01*
X19860Y28280D02*
X19960D01*
X19910Y28230D02*
Y28330D01*
X8360Y17030D02*
X8460D01*
X8410Y16980D02*
Y17080D01*
X8610Y17030D02*
X8710D01*
X8660Y16980D02*
Y17080D01*
X8860Y17030D02*
X8960D01*
X8910Y16980D02*
Y17080D01*
X15890Y16445D02*
X16040D01*
X15965Y16370D02*
Y16520D01*
X32110Y2530D02*
X32210D01*
X32160Y2480D02*
Y2580D01*
X34110Y1530D02*
X34210D01*
X34160Y1480D02*
Y1580D01*
X34110Y4530D02*
X34210D01*
X34160Y4480D02*
Y4580D01*
X36110Y3530D02*
X36210D01*
X36160Y3480D02*
Y3580D01*
X32110Y26530D02*
X32210D01*
X32160Y26480D02*
Y26580D01*
X33110Y3530D02*
X33210D01*
X33160Y3480D02*
Y3580D01*
X35110Y3530D02*
X35210D01*
X35160Y3480D02*
Y3580D01*
X15885Y16710D02*
X16035D01*
X15960Y16635D02*
Y16785D01*
X110Y28530D02*
X210D01*
X160Y28480D02*
Y28580D01*
X110Y19530D02*
X210D01*
X160Y19480D02*
Y19580D01*
X110Y16530D02*
X210D01*
X160Y16480D02*
Y16580D01*
X110Y17530D02*
X210D01*
X160Y17480D02*
Y17580D01*
X110Y29530D02*
X210D01*
X160Y29480D02*
Y29580D01*
X110Y27530D02*
X210D01*
X160Y27480D02*
Y27580D01*
X110Y18530D02*
X210D01*
X160Y18480D02*
Y18580D01*
X34860Y12280D02*
X34960D01*
X34910Y12230D02*
Y12330D01*
X34860Y11530D02*
X34960D01*
X34910Y11480D02*
Y11580D01*
X34860Y11780D02*
X34960D01*
X34910Y11730D02*
Y11830D01*
X34860Y12030D02*
X34960D01*
X34910Y11980D02*
Y12080D01*
X20360Y28280D02*
X20460D01*
X20410Y28230D02*
Y28330D01*
X20360Y28030D02*
X20460D01*
X20410Y27980D02*
Y28080D01*
X28360Y13530D02*
X28460D01*
X28410Y13480D02*
Y13580D01*
X3110Y1530D02*
X3210D01*
X3160Y1480D02*
Y1580D01*
X2110Y27530D02*
X2210D01*
X2160Y27480D02*
Y27580D01*
X3110Y5530D02*
X3210D01*
X3160Y5480D02*
Y5580D01*
X3110Y3530D02*
X3210D01*
X3160Y3480D02*
Y3580D01*
X3110Y7530D02*
X3210D01*
X3160Y7480D02*
Y7580D01*
X2110Y31530D02*
X2210D01*
X2160Y31480D02*
Y31580D01*
X2110Y30530D02*
X2210D01*
X2160Y30480D02*
Y30580D01*
X3110Y4530D02*
X3210D01*
X3160Y4480D02*
Y4580D01*
X3110Y21530D02*
X3210D01*
X3160Y21480D02*
Y21580D01*
X3110Y530D02*
X3210D01*
X3160Y480D02*
Y580D01*
X3110Y2530D02*
X3210D01*
X3160Y2480D02*
Y2580D01*
X5110Y21530D02*
X5210D01*
X5160Y21480D02*
Y21580D01*
X4110Y23530D02*
X4210D01*
X4160Y23480D02*
Y23580D01*
X6110Y30530D02*
X6210D01*
X6160Y30480D02*
Y30580D01*
X4110Y24530D02*
X4210D01*
X4160Y24480D02*
Y24580D01*
X5110Y29530D02*
X5210D01*
X5160Y29480D02*
Y29580D01*
X4110Y31530D02*
X4210D01*
X4160Y31480D02*
Y31580D01*
X4110Y21530D02*
X4210D01*
X4160Y21480D02*
Y21580D01*
X6110Y29530D02*
X6210D01*
X6160Y29480D02*
Y29580D01*
X5110Y24530D02*
X5210D01*
X5160Y24480D02*
Y24580D01*
X6110Y24530D02*
X6210D01*
X6160Y24480D02*
Y24580D01*
X4110Y8530D02*
X4210D01*
X4160Y8480D02*
Y8580D01*
X5110Y31530D02*
X5210D01*
X5160Y31480D02*
Y31580D01*
X4110Y22530D02*
X4210D01*
X4160Y22480D02*
Y22580D01*
X5110Y32530D02*
X5210D01*
X5160Y32480D02*
Y32580D01*
X4110Y32530D02*
X4210D01*
X4160Y32480D02*
Y32580D01*
X6110Y28530D02*
X6210D01*
X6160Y28480D02*
Y28580D01*
X6110Y32530D02*
X6210D01*
X6160Y32480D02*
Y32580D01*
X9110Y32530D02*
X9210D01*
X9160Y32480D02*
Y32580D01*
X8110Y32530D02*
X8210D01*
X8160Y32480D02*
Y32580D01*
X14110Y24530D02*
X14210D01*
X14160Y24480D02*
Y24580D01*
X9110Y14530D02*
X9210D01*
X9160Y14480D02*
Y14580D01*
X18110Y23530D02*
X18210D01*
X18160Y23480D02*
Y23580D01*
X12110Y30530D02*
X12210D01*
X12160Y30480D02*
Y30580D01*
X6110Y31530D02*
X6210D01*
X6160Y31480D02*
Y31580D01*
X10110Y32530D02*
X10210D01*
X10160Y32480D02*
Y32580D01*
X8110Y31530D02*
X8210D01*
X8160Y31480D02*
Y31580D01*
X8110Y24530D02*
X8210D01*
X8160Y24480D02*
Y24580D01*
X18110Y18530D02*
X18210D01*
X18160Y18480D02*
Y18580D01*
X7110Y24530D02*
X7210D01*
X7160Y24480D02*
Y24580D01*
X7110Y23530D02*
X7210D01*
X7160Y23480D02*
Y23580D01*
X8110Y14530D02*
X8210D01*
X8160Y14480D02*
Y14580D01*
X2110Y2530D02*
X2210D01*
X2160Y2480D02*
Y2580D01*
X1110Y4530D02*
X1210D01*
X1160Y4480D02*
Y4580D01*
X2110Y5530D02*
X2210D01*
X2160Y5480D02*
Y5580D01*
X1110Y30530D02*
X1210D01*
X1160Y30480D02*
Y30580D01*
X1110Y3530D02*
X1210D01*
X1160Y3480D02*
Y3580D01*
X1110Y16530D02*
X1210D01*
X1160Y16480D02*
Y16580D01*
X1110Y12530D02*
X1210D01*
X1160Y12480D02*
Y12580D01*
X1110Y5530D02*
X1210D01*
X1160Y5480D02*
Y5580D01*
X2110Y3530D02*
X2210D01*
X2160Y3480D02*
Y3580D01*
X110Y31530D02*
X210D01*
X160Y31480D02*
Y31580D01*
X2110Y7530D02*
X2210D01*
X2160Y7480D02*
Y7580D01*
X110Y30530D02*
X210D01*
X160Y30480D02*
Y30580D01*
X2110Y4530D02*
X2210D01*
X2160Y4480D02*
Y4580D01*
X22360Y13280D02*
X22460D01*
X22410Y13230D02*
Y13330D01*
X22360Y13530D02*
X22460D01*
X22410Y13480D02*
Y13580D01*
X38635Y24850D02*
X38785D01*
X38710Y24775D02*
Y24925D01*
X12925Y32809D02*
X13075D01*
X13000Y32734D02*
Y32884D01*
X12734Y21631D02*
X12884D01*
X12809Y21556D02*
Y21706D01*
X13743Y18353D02*
X13893D01*
X13818Y18278D02*
Y18428D01*
X13785Y17520D02*
X13935D01*
X13860Y17445D02*
Y17595D01*
X23145Y24530D02*
X23295D01*
X23220Y24455D02*
Y24605D01*
X22855Y24530D02*
X23005D01*
X22930Y24455D02*
Y24605D01*
X36855Y24120D02*
X37005D01*
X36930Y24045D02*
Y24195D01*
X39295Y19290D02*
X39445D01*
X39370Y19215D02*
Y19365D01*
X39635Y21200D02*
X39785D01*
X39710Y21125D02*
Y21275D01*
X45135Y21580D02*
X45285D01*
X45210Y21505D02*
Y21655D01*
X44875Y21580D02*
X45025D01*
X44950Y21505D02*
Y21655D01*
X46760Y22990D02*
X46910D01*
X46835Y22915D02*
Y23065D01*
X47245Y20610D02*
X47395D01*
X47320Y20535D02*
Y20685D01*
X46185Y15000D02*
X46335D01*
X46260Y14925D02*
Y15075D01*
X45495Y16940D02*
X45645D01*
X45570Y16865D02*
Y17015D01*
X32685Y15760D02*
X32835D01*
X32760Y15685D02*
Y15835D01*
X19245Y15790D02*
X19395D01*
X19320Y15715D02*
Y15865D01*
X25705Y15760D02*
X25855D01*
X25780Y15685D02*
Y15835D01*
X6795Y32360D02*
X6945D01*
X6870Y32285D02*
Y32435D01*
X12495Y18710D02*
X12645D01*
X12570Y18635D02*
Y18785D01*
X12835Y20100D02*
X12985D01*
X12910Y20025D02*
Y20175D01*
X1765Y18150D02*
X1915D01*
X1840Y18075D02*
Y18225D01*
X22365Y33160D02*
X22515D01*
X22440Y33085D02*
Y33235D01*
X36925Y24830D02*
X37075D01*
X37000Y24755D02*
Y24905D01*
X14145Y15600D02*
X14295D01*
X14220Y15525D02*
Y15675D01*
X24065Y16500D02*
X24215D01*
X24140Y16425D02*
Y16575D01*
X45535Y18410D02*
X45685D01*
X45610Y18335D02*
Y18485D01*
X45743Y19690D02*
X45893D01*
X45818Y19615D02*
Y19765D01*
X15360Y29030D02*
X15460D01*
X15410Y28980D02*
Y29080D01*
X15110Y29030D02*
X15210D01*
X15160Y28980D02*
Y29080D01*
X14860Y29030D02*
X14960D01*
X14910Y28980D02*
Y29080D01*
X14610Y29030D02*
X14710D01*
X14660Y28980D02*
Y29080D01*
X12360Y27280D02*
X12460D01*
X12410Y27230D02*
Y27330D01*
X12110Y27280D02*
X12210D01*
X12160Y27230D02*
Y27330D01*
X11860Y27280D02*
X11960D01*
X11910Y27230D02*
Y27330D01*
X12360Y25530D02*
X12460D01*
X12410Y25480D02*
Y25580D01*
X12110Y25530D02*
X12210D01*
X12160Y25480D02*
Y25580D01*
X11455Y25630D02*
X11605D01*
X11530Y25555D02*
Y25705D01*
X11455Y27290D02*
X11605D01*
X11530Y27215D02*
Y27365D01*
X19715Y21460D02*
X19865D01*
X19790Y21385D02*
Y21535D01*
X19210Y21910D02*
X19360D01*
X19285Y21835D02*
Y21985D01*
X11685Y15120D02*
X11835D01*
X11760Y15045D02*
Y15195D01*
X3965Y16054D02*
X4115D01*
X4040Y15979D02*
Y16129D01*
X26895Y24230D02*
X27045D01*
X26970Y24155D02*
Y24305D01*
X39625Y20500D02*
X39775D01*
X39700Y20425D02*
Y20575D01*
X41900Y19520D02*
X42050D01*
X41975Y19445D02*
Y19595D01*
X14045Y25740D02*
X14195D01*
X14120Y25665D02*
Y25815D01*
X6720Y15850D02*
X6870D01*
X6795Y15775D02*
Y15925D01*
X40825Y21890D02*
X40975D01*
X40900Y21815D02*
Y21965D01*
X39625Y20480D02*
X39775D01*
X39700Y20405D02*
Y20555D01*
X43005Y21610D02*
X43155D01*
X43080Y21535D02*
Y21685D01*
X41615Y21410D02*
X41765D01*
X41690Y21335D02*
Y21485D01*
X44605Y21583D02*
X44755D01*
X44680Y21508D02*
Y21658D01*
X46155Y27755D02*
X46305D01*
X46230Y27680D02*
Y27830D01*
X32225Y26870D02*
X32375D01*
X32300Y26795D02*
Y26945D01*
X26251Y22284D02*
X26401D01*
X26326Y22209D02*
Y22359D01*
X25955Y24115D02*
X26105D01*
X26030Y24040D02*
Y24190D01*
X10995Y28820D02*
X11145D01*
X11070Y28745D02*
Y28895D01*
X11091Y31630D02*
X11241D01*
X11166Y31555D02*
Y31705D01*
X9485Y20960D02*
X9635D01*
X9560Y20885D02*
Y21035D01*
X18045Y23110D02*
X18195D01*
X18120Y23035D02*
Y23185D01*
X16025Y25800D02*
X16175D01*
X16100Y25725D02*
Y25875D01*
X13705Y30020D02*
X13855D01*
X13780Y29945D02*
Y30095D01*
X8865Y25820D02*
X9015D01*
X8940Y25745D02*
Y25895D01*
X5850Y19405D02*
X6000D01*
X5925Y19330D02*
Y19480D01*
X4045Y18740D02*
X4195D01*
X4120Y18665D02*
Y18815D01*
X3835Y20610D02*
X3985D01*
X3910Y20535D02*
Y20685D01*
X19355Y22240D02*
X19505D01*
X19430Y22165D02*
Y22315D01*
X10675Y26740D02*
X10825D01*
X10750Y26665D02*
Y26815D01*
X10685Y24870D02*
X10835D01*
X10760Y24795D02*
Y24945D01*
X10995Y13620D02*
X11145D01*
X11070Y13545D02*
Y13695D01*
X28405Y13010D02*
X28555D01*
X28480Y12935D02*
Y13085D01*
X5835Y16170D02*
X5985D01*
X5910Y16095D02*
Y16245D01*
X17795Y25330D02*
X17945D01*
X17870Y25255D02*
Y25405D01*
X17495Y24940D02*
X17645D01*
X17570Y24865D02*
Y25015D01*
X24015Y22230D02*
X24165D01*
X24090Y22155D02*
Y22305D01*
X16445Y25730D02*
X16595D01*
X16520Y25655D02*
Y25805D01*
X18525Y20020D02*
X18675D01*
X18600Y19945D02*
Y20095D01*
X42610Y9530D02*
X42710D01*
X42660Y9480D02*
Y9580D01*
X42610Y9280D02*
X42710D01*
X42660Y9230D02*
Y9330D01*
X42360Y9530D02*
X42460D01*
X42410Y9480D02*
Y9580D01*
X42360Y9280D02*
X42460D01*
X42410Y9230D02*
Y9330D01*
X42110Y9530D02*
X42210D01*
X42160Y9480D02*
Y9580D01*
X42110Y9280D02*
X42210D01*
X42160Y9230D02*
Y9330D01*
X41860Y9530D02*
X41960D01*
X41910Y9480D02*
Y9580D01*
X41860Y9280D02*
X41960D01*
X41910Y9230D02*
Y9330D01*
X41610Y9530D02*
X41710D01*
X41660Y9480D02*
Y9580D01*
X41610Y9280D02*
X41710D01*
X41660Y9230D02*
Y9330D01*
X30715Y16600D02*
X30865D01*
X30790Y16525D02*
Y16675D01*
X37075Y16520D02*
X37225D01*
X37150Y16445D02*
Y16595D01*
X23345Y31750D02*
X23495D01*
X23420Y31675D02*
Y31825D01*
X45705Y21160D02*
X45855D01*
X45780Y21085D02*
Y21235D01*
X38835Y20800D02*
X38985D01*
X38910Y20725D02*
Y20875D01*
X38855Y19080D02*
X39005D01*
X38930Y19005D02*
Y19155D01*
X42687Y21122D02*
X42837D01*
X42762Y21047D02*
Y21197D01*
X23835Y25530D02*
X23985D01*
X23910Y25455D02*
Y25605D01*
X23585Y25530D02*
X23735D01*
X23660Y25455D02*
Y25605D01*
X23335Y25530D02*
X23485D01*
X23410Y25455D02*
Y25605D01*
X23085Y25530D02*
X23235D01*
X23160Y25455D02*
Y25605D01*
X22835Y25530D02*
X22985D01*
X22910Y25455D02*
Y25605D01*
X12755Y30720D02*
X12905D01*
X12830Y30645D02*
Y30795D01*
X3476Y16481D02*
X3626D01*
X3551Y16406D02*
Y16556D01*
X3965Y17580D02*
X4115D01*
X4040Y17505D02*
Y17655D01*
X3485Y17875D02*
X3635D01*
X3560Y17800D02*
Y17950D01*
X45335Y25040D02*
X45485D01*
X45410Y24965D02*
Y25115D01*
X45355Y22200D02*
X45505D01*
X45430Y22125D02*
Y22275D01*
X42555Y24760D02*
X42705D01*
X42630Y24685D02*
Y24835D01*
X39855Y24900D02*
X40005D01*
X39930Y24825D02*
Y24975D01*
X41785Y24715D02*
X41935D01*
X41860Y24640D02*
Y24790D01*
X44376Y22936D02*
X44526D01*
X44451Y22861D02*
Y23011D01*
X39195Y22920D02*
X39345D01*
X39270Y22845D02*
Y22995D01*
X42297Y22932D02*
X42447D01*
X42372Y22857D02*
Y23007D01*
X44755Y18580D02*
X44905D01*
X44830Y18505D02*
Y18655D01*
X44785Y19100D02*
X44935D01*
X44860Y19025D02*
Y19175D01*
X44305Y18050D02*
X44455D01*
X44380Y17975D02*
Y18125D01*
X44055Y17710D02*
X44205D01*
X44130Y17635D02*
Y17785D01*
X12889Y28150D02*
X13039D01*
X12964Y28075D02*
Y28225D01*
X12885Y27310D02*
X13035D01*
X12960Y27235D02*
Y27385D01*
X16975Y24260D02*
X17125D01*
X17050Y24185D02*
Y24335D01*
X43395Y17000D02*
X43545D01*
X43470Y16925D02*
Y17075D01*
X44445Y17310D02*
X44595D01*
X44520Y17235D02*
Y17385D01*
X8905Y28580D02*
X9055D01*
X8980Y28505D02*
Y28655D01*
X41755Y22910D02*
X41905D01*
X41830Y22835D02*
Y22985D01*
X42755Y22890D02*
X42905D01*
X42830Y22815D02*
Y22965D01*
X7669Y30790D02*
X8181D01*
X7925Y30534D02*
Y31046D01*
X4755Y30790D02*
X5189D01*
X4972Y30573D02*
Y31007D01*
M02*
