G04*
G04 #@! TF.GenerationSoftware,Altium Limited,Altium Designer,20.2.6 (244)*
G04*
G04 Layer_Color=32896*
%FSLAX24Y24*%
%MOIN*%
G70*
G04*
G04 #@! TF.SameCoordinates,6B0B31F8-34BC-4807-AF79-D9433D138100*
G04*
G04*
G04 #@! TF.FilePolarity,Positive*
G04*
G01*
G75*
%ADD154C,0.0010*%
D154*
X17765Y19984D02*
Y20071D01*
X18002D01*
Y19984D02*
Y20071D01*
X17765Y19984D02*
X18002D01*
X17765Y20181D02*
Y20267D01*
X18002D01*
Y20181D02*
Y20267D01*
X17765Y20181D02*
X18002D01*
X17765Y20378D02*
Y20464D01*
X18002D01*
Y20378D02*
Y20464D01*
X17765Y20378D02*
X18002D01*
X17765Y20575D02*
Y20661D01*
X18002D01*
Y20575D02*
Y20661D01*
X17765Y20575D02*
X18002D01*
X17765Y20771D02*
Y20858D01*
X18002D01*
Y20771D02*
Y20858D01*
X17765Y20771D02*
X18002D01*
X17765Y20968D02*
Y21055D01*
X18002D01*
Y20968D02*
Y21055D01*
X17765Y20968D02*
X18002D01*
X17765Y21165D02*
Y21252D01*
X18002D01*
Y21165D02*
Y21252D01*
X17765Y21165D02*
X18002D01*
X17765Y21362D02*
Y21449D01*
X18002D01*
Y21362D02*
Y21449D01*
X17765Y21362D02*
X18002D01*
X17765Y21559D02*
Y21645D01*
X18002D01*
Y21559D02*
Y21645D01*
X17765Y21559D02*
X18002D01*
X17765Y21756D02*
Y21842D01*
X18002D01*
Y21756D02*
Y21842D01*
X17765Y21756D02*
X18002D01*
X17765Y21953D02*
Y22039D01*
X18002D01*
Y21953D02*
Y22039D01*
X17765Y21953D02*
X18002D01*
X17765Y22149D02*
Y22236D01*
X18002D01*
Y22149D02*
Y22236D01*
X17765Y22149D02*
X18002D01*
X17269Y22645D02*
X17356D01*
X17269D02*
Y22882D01*
X17356D01*
Y22645D02*
Y22882D01*
X17073Y22645D02*
X17159D01*
X17073D02*
Y22882D01*
X17159D01*
Y22645D02*
Y22882D01*
X16876Y22645D02*
X16962D01*
X16876D02*
Y22882D01*
X16962D01*
Y22645D02*
Y22882D01*
X16679Y22645D02*
X16765D01*
X16679D02*
Y22882D01*
X16765D01*
Y22645D02*
Y22882D01*
X16482Y22645D02*
X16569D01*
X16482D02*
Y22882D01*
X16569D01*
Y22645D02*
Y22882D01*
X16285Y22645D02*
X16372D01*
X16285D02*
Y22882D01*
X16372D01*
Y22645D02*
Y22882D01*
X16088Y22645D02*
X16175D01*
X16088D02*
Y22882D01*
X16175D01*
Y22645D02*
Y22882D01*
X15891Y22645D02*
X15978D01*
X15891D02*
Y22882D01*
X15978D01*
Y22645D02*
Y22882D01*
X15695Y22645D02*
X15781D01*
X15695D02*
Y22882D01*
X15781D01*
Y22645D02*
Y22882D01*
X15498Y22645D02*
X15584D01*
X15498D02*
Y22882D01*
X15584D01*
Y22645D02*
Y22882D01*
X15301Y22645D02*
X15387D01*
X15301D02*
Y22882D01*
X15387D01*
Y22645D02*
Y22882D01*
X15104Y22645D02*
X15191D01*
X15104D02*
Y22882D01*
X15191D01*
Y22645D02*
Y22882D01*
X14695Y22149D02*
Y22236D01*
X14458Y22149D02*
X14695D01*
X14458D02*
Y22236D01*
X14695D01*
Y21953D02*
Y22039D01*
X14458Y21953D02*
X14695D01*
X14458D02*
Y22039D01*
X14695D01*
Y21756D02*
Y21842D01*
X14458Y21756D02*
X14695D01*
X14458D02*
Y21842D01*
X14695D01*
Y21559D02*
Y21645D01*
X14458Y21559D02*
X14695D01*
X14458D02*
Y21645D01*
X14695D01*
Y21362D02*
Y21449D01*
X14458Y21362D02*
X14695D01*
X14458D02*
Y21449D01*
X14695D01*
Y21165D02*
Y21252D01*
X14458Y21165D02*
X14695D01*
X14458D02*
Y21252D01*
X14695D01*
Y20968D02*
Y21055D01*
X14458Y20968D02*
X14695D01*
X14458D02*
Y21055D01*
X14695D01*
Y20771D02*
Y20858D01*
X14458Y20771D02*
X14695D01*
X14458D02*
Y20858D01*
X14695D01*
Y20575D02*
Y20661D01*
X14458Y20575D02*
X14695D01*
X14458D02*
Y20661D01*
X14695D01*
Y20378D02*
Y20464D01*
X14458Y20378D02*
X14695D01*
X14458D02*
Y20464D01*
X14695D01*
Y20181D02*
Y20267D01*
X14458Y20181D02*
X14695D01*
X14458D02*
Y20267D01*
X14695D01*
Y19984D02*
Y20071D01*
X14458Y19984D02*
X14695D01*
X14458D02*
Y20071D01*
X14695D01*
X15104Y19575D02*
X15191D01*
Y19338D02*
Y19575D01*
X15104Y19338D02*
X15191D01*
X15104D02*
Y19575D01*
X15301D02*
X15387D01*
Y19338D02*
Y19575D01*
X15301Y19338D02*
X15387D01*
X15301D02*
Y19575D01*
X15498D02*
X15584D01*
Y19338D02*
Y19575D01*
X15498Y19338D02*
X15584D01*
X15498D02*
Y19575D01*
X15695D02*
X15781D01*
Y19338D02*
Y19575D01*
X15695Y19338D02*
X15781D01*
X15695D02*
Y19575D01*
X15891D02*
X15978D01*
Y19338D02*
Y19575D01*
X15891Y19338D02*
X15978D01*
X15891D02*
Y19575D01*
X16088D02*
X16175D01*
Y19338D02*
Y19575D01*
X16088Y19338D02*
X16175D01*
X16088D02*
Y19575D01*
X16285D02*
X16372D01*
Y19338D02*
Y19575D01*
X16285Y19338D02*
X16372D01*
X16285D02*
Y19575D01*
X16482D02*
X16569D01*
Y19338D02*
Y19575D01*
X16482Y19338D02*
X16569D01*
X16482D02*
Y19575D01*
X16679D02*
X16765D01*
Y19338D02*
Y19575D01*
X16679Y19338D02*
X16765D01*
X16679D02*
Y19575D01*
X16876D02*
X16962D01*
Y19338D02*
Y19575D01*
X16876Y19338D02*
X16962D01*
X16876D02*
Y19575D01*
X17073D02*
X17159D01*
Y19338D02*
Y19575D01*
X17073Y19338D02*
X17159D01*
X17073D02*
Y19575D01*
X17269D02*
X17356D01*
Y19338D02*
Y19575D01*
X17269Y19338D02*
X17356D01*
X17269D02*
Y19575D01*
X14852Y19732D02*
X17608D01*
X14852D02*
Y22488D01*
X17608D01*
Y19732D02*
Y22488D01*
M02*
